<svg width="108" height="153" viewBox="0 0 108 153" fill="none" xmlns="http://www.w3.org/2000/svg">
<g clip-path="url(#clip0_658_13079)">
<path d="M59.1612 80.8963C73.1604 80.8963 84.5089 69.5477 84.5089 55.5485C84.5089 41.5493 73.1604 30.2007 59.1612 30.2007C45.162 30.2007 33.8134 41.5493 33.8134 55.5485C33.8134 69.5477 45.162 80.8963 59.1612 80.8963Z" fill="#FBB562"/>
<path d="M87.293 41.6544C86.6382 41.6544 86.0168 41.2691 85.7467 40.6276C85.3872 39.7738 85.7876 38.7904 86.6414 38.4309L105.414 30.5237C106.267 30.1642 107.251 30.5646 107.61 31.4184C107.97 32.2721 107.569 33.2556 106.716 33.6151L87.9434 41.5222C87.7306 41.6116 87.5102 41.6544 87.293 41.6544Z" fill="black"/>
<path d="M67.6243 22.2205C67.4134 22.2205 67.1993 22.1809 66.9922 22.0965C66.134 21.7471 65.7222 20.7687 66.071 19.9105L73.7535 1.04514C74.1029 0.18699 75.0813 -0.225399 75.9394 0.12403C76.7976 0.473459 77.2093 1.45186 76.8605 2.31001L69.1781 21.1754C68.9131 21.8264 68.286 22.2205 67.6243 22.2205Z" fill="black"/>
<path d="M39.9772 22.3855C39.3224 22.3855 38.701 22.0002 38.4309 21.3586L30.5237 2.58704C30.1642 1.7333 30.5647 0.749858 31.4184 0.390356C32.2721 0.0308532 33.2556 0.43128 33.6151 1.28502L41.5222 20.0572C41.8817 20.911 41.4813 21.8944 40.6276 22.2539C40.4148 22.3433 40.1944 22.3861 39.9772 22.3861V22.3855Z" fill="black"/>
<path d="M20.542 42.053C20.3311 42.053 20.117 42.0133 19.9099 41.929L1.04514 34.2459C0.186995 33.8965 -0.224765 32.9181 0.124035 32.06C0.473464 31.2018 1.45186 30.7894 2.31001 31.1388L21.1748 38.8212C22.0329 39.1707 22.4447 40.1491 22.0959 41.0072C21.8308 41.6582 21.2037 42.0524 20.542 42.0524V42.053Z" fill="black"/>
<path d="M1.93666 77.6085C1.28187 77.6085 0.660455 77.2232 0.390356 76.5816C0.0308532 75.7279 0.43128 74.7444 1.28502 74.3849L20.0572 66.4778C20.911 66.1183 21.8944 66.5187 22.2539 67.3724C22.6134 68.2262 22.213 69.2096 21.3592 69.5691L2.58704 77.4763C2.37423 77.5657 2.15387 77.6085 1.93666 77.6085Z" fill="black"/>
<path d="M32.6921 108C32.4812 108 32.2671 107.96 32.06 107.876C31.2018 107.527 30.79 106.548 31.1388 105.69L38.8212 86.8246C39.1707 85.9665 40.1497 85.5541 41.0072 85.9035C41.8654 86.2529 42.2771 87.2313 41.9283 88.0895L34.2459 106.955C33.9809 107.606 33.3538 108 32.6921 108Z" fill="black"/>
<path d="M75.9312 107.742C75.2764 107.742 74.655 107.357 74.3849 106.715L66.4778 87.9428C66.1183 87.089 66.5187 86.1056 67.3724 85.7461C68.2262 85.3866 69.2096 85.787 69.5691 86.6408L77.4763 105.413C77.8358 106.267 77.4353 107.25 76.5816 107.61C76.3688 107.699 76.1484 107.742 75.9312 107.742Z" fill="black"/>
<path d="M106.321 76.9852C106.111 76.9852 105.897 76.9455 105.689 76.8612L86.824 69.1788C85.9658 68.8293 85.5541 67.8509 85.9029 66.9928C86.2523 66.1347 87.2307 65.7229 88.0888 66.0717L106.954 73.7541C107.812 74.1035 108.224 75.0819 107.875 75.9401C107.61 76.5911 106.983 76.9852 106.321 76.9852Z" fill="black"/>
<path d="M54.0003 81.0253C50.3524 81.0253 46.8134 80.3107 43.4803 78.9011C40.2618 77.5399 37.3719 75.5912 34.8906 73.11C32.4094 70.6287 30.4608 67.7388 29.0996 64.5203C27.6899 61.1872 26.9753 57.6482 26.9753 54.0003C26.9753 50.3524 27.6899 46.8134 29.0996 43.4803C30.4608 40.2618 32.4094 37.3719 34.8906 34.8906C37.3719 32.4094 40.2618 30.4608 43.4803 29.0996C46.8134 27.6899 50.3524 26.9753 54.0003 26.9753C57.6482 26.9753 61.1872 27.6899 64.5203 29.0996C67.7388 30.4608 70.6287 32.4094 73.11 34.8906C75.5912 37.3719 77.5399 40.2618 78.9011 43.4803C80.3107 46.8134 81.0253 50.3524 81.0253 54.0003C81.0253 57.6482 80.3107 61.1872 78.9011 64.5203C77.5399 67.7388 75.5912 70.6287 73.11 73.11C70.6287 75.5912 67.7388 77.5399 64.5203 78.9011C61.1872 80.3107 57.6482 81.0253 54.0003 81.0253ZM54.0003 30.3298C40.948 30.3298 30.3298 40.9487 30.3298 54.0003C30.3298 67.052 40.9487 77.6708 54.0003 77.6708C67.052 77.6708 77.6708 67.052 77.6708 54.0003C77.6708 40.9487 67.052 30.3298 54.0003 30.3298Z" fill="black"/>
<path d="M54.0003 22.3855C53.0742 22.3855 52.3231 21.6344 52.3231 20.7082V14.0527C52.3231 13.1266 53.0742 12.3755 54.0003 12.3755C54.9265 12.3755 55.6776 13.1266 55.6776 14.0527V20.7082C55.6776 21.6344 54.9265 22.3855 54.0003 22.3855Z" fill="black"/>
<path d="M30.4589 32.1361C30.0295 32.1361 29.6001 31.9724 29.2727 31.645L24.5664 26.9388C23.9117 26.284 23.9117 25.2218 24.5664 24.5664C25.2212 23.911 26.2834 23.9116 26.9388 24.5664L31.645 29.2727C32.2998 29.9275 32.2998 30.9896 31.645 31.645C31.3177 31.9724 30.8883 32.1361 30.4589 32.1361Z" fill="black"/>
<path d="M20.7076 55.6776H14.0521C13.1259 55.6776 12.3748 54.9265 12.3748 54.0003C12.3748 53.0742 13.1259 52.3231 14.0521 52.3231H20.7076C21.6337 52.3231 22.3849 53.0742 22.3849 54.0003C22.3849 54.9265 21.6337 55.6776 20.7076 55.6776Z" fill="black"/>
<path d="M25.7526 83.9247C25.3232 83.9247 24.8938 83.761 24.5664 83.4336C23.9117 82.7788 23.9117 81.7167 24.5664 81.0612L29.2727 76.355C29.9275 75.7002 30.9896 75.6996 31.645 76.355C32.2998 77.0098 32.2998 78.0719 31.645 78.7273L26.9388 83.4336C26.6114 83.761 26.182 83.9247 25.7526 83.9247Z" fill="black"/>
<path d="M54.0003 95.6252C53.0742 95.6252 52.3231 94.8741 52.3231 93.9479V87.2924C52.3231 86.3663 53.0742 85.6151 54.0003 85.6151C54.9265 85.6151 55.6776 86.3663 55.6776 87.2924V93.9479C55.6776 94.8741 54.9265 95.6252 54.0003 95.6252Z" fill="black"/>
<path d="M82.2474 83.9247C81.818 83.9247 81.3886 83.761 81.0612 83.4336L76.355 78.7273C75.7002 78.0725 75.7002 77.0104 76.355 76.355C77.0097 75.6996 78.0719 75.7002 78.7273 76.355L83.4336 81.0612C84.0884 81.716 84.0884 82.7782 83.4336 83.4336C83.1062 83.761 82.6768 83.9247 82.2474 83.9247Z" fill="black"/>
<path d="M93.9479 55.6776H87.2924C86.3663 55.6776 85.6151 54.9265 85.6151 54.0003C85.6151 53.0742 86.3663 52.3231 87.2924 52.3231H93.9479C94.8741 52.3231 95.6252 53.0742 95.6252 54.0003C95.6252 54.9265 94.8741 55.6776 93.9479 55.6776Z" fill="black"/>
<path d="M77.5411 32.1361C77.1117 32.1361 76.6823 31.9724 76.355 31.645C75.7002 30.9903 75.7002 29.9281 76.355 29.2727L81.0612 24.5664C81.716 23.9117 82.7782 23.9117 83.4336 24.5664C84.0884 25.2212 84.0884 26.2834 83.4336 26.9388L78.7273 31.645C78.3999 31.9724 77.9705 32.1361 77.5411 32.1361Z" fill="black"/>
</g>
<g clip-path="url(#clip1_658_13079)">
<path d="M54.1905 153C73.809 153 89.7129 150.661 89.7129 147.775C89.7129 144.889 73.809 142.55 54.1905 142.55C34.5721 142.55 18.6682 144.889 18.6682 147.775C18.6682 150.661 34.5721 153 54.1905 153Z" fill="#DBD8D7"/>
<path d="M20.8028 112.336C21.3079 112.694 27.6656 128.884 27.6656 128.884C27.6656 128.884 12.5616 131.578 12.9617 137.365C13.3618 143.153 22.0641 150.588 58.1736 148.378C94.283 146.167 93.7829 140.641 93.8829 140.339C93.983 140.038 94.9852 137.068 94.4831 136.019C93.981 134.969 94.6366 134.009 93.5228 133.205C92.409 132.401 83.7748 129.889 83.7748 129.889C83.7748 129.889 89.2282 125.669 91.0057 122.554C92.7826 119.439 95.5929 114.013 95.2883 111.802C94.9837 109.592 95.0837 107.897 94.1835 107.689C93.2833 107.482 88.8521 108.083 88.582 107.428C88.312 106.773 88.8821 105.837 88.8821 105.837C88.8821 105.837 87.3817 107.884 83.1806 108.336C78.9795 108.788 78.0793 108.336 78.0793 108.336C78.0793 108.336 73.6266 110.705 70.7554 110.834C67.8846 110.963 66.8764 111.25 66.5763 111.326C66.2762 111.401 67.0879 115.273 60.8303 116.854C54.5731 118.435 47.4188 119.563 43.7868 117.932C40.1549 116.301 40.1649 114.475 39.8283 114.516C39.4917 114.557 38.72 115.629 35.8647 116.124C30.9204 116.98 20.8033 112.337 20.8033 112.337L20.8028 112.336Z" fill="white"/>
<path d="M40.0198 116.051C40.0198 116.051 41.0436 122.755 53.1718 121.75C62.8743 120.946 64.5153 123.604 63.9746 128.291C62.7743 138.691 58.4062 140.94 54.4096 142.088C54.4096 142.088 66.0387 141.25 68.5233 139.535C77.8377 133.109 83.0641 107.909 82.7 108.385C82.3359 108.86 81.7793 109.575 78.6785 109.634C75.5776 109.693 74.5774 110.195 73.4771 110.195C72.3768 110.195 67.4755 111.15 66.9754 111.326C66.4753 111.501 68.8004 114.163 61.689 116.608C48.7971 121.041 40.0198 116.051 40.0198 116.051Z" fill="#DBD8D7"/>
<path d="M88.3245 109.283C88.8561 109.63 92.7621 108.641 91.7604 112.736C91.0522 115.629 87.6433 123.218 85.3927 124.559C83.1421 125.899 80.705 127.307 80.705 127.307C80.705 127.307 79.6567 125.478 82.3834 123.407C86.2444 120.473 88.0844 114.419 88.4595 112.736C88.8346 111.053 88.3245 109.283 88.3245 109.283Z" fill="#DBD8D7"/>
<path d="M15.5624 135.516C18.1396 133.055 26.2652 131.396 28.5158 130.844C28.6694 130.806 29.9162 133.406 29.9162 133.406C26.8229 134.361 26.3653 136.119 26.3653 136.119C26.3653 136.119 25.4825 135.573 21.364 135.215C16.9248 134.828 15.5624 135.516 15.5624 135.516Z" fill="#DBD8D7"/>
<path d="M92.143 135.314C89.5658 132.853 82.1299 131.397 79.8793 130.844C79.7257 130.807 77.6287 132.904 77.6287 132.904C81.3617 133.909 82.4299 136.12 82.4299 136.12C82.4299 136.12 82.9126 135.574 87.0312 135.215C91.4703 134.828 92.143 135.314 92.143 135.314Z" fill="#DBD8D7"/>
<path d="M30.1022 134.324C27.5731 135.585 27.5656 136.948 27.8157 138.23C28.0657 139.511 33.8502 143.943 53.7209 143.605C73.5916 143.268 80.2199 140.608 81.0721 138.691C81.9243 136.774 80.6345 136.12 80.507 135.868C80.3794 135.617 77.1546 134.324 76.976 134.261C76.7975 134.197 71.4266 141.194 53.922 142.088C40.8851 142.754 31.016 134.713 30.6659 134.462C30.3158 134.21 30.1017 134.324 30.1017 134.324H30.1022Z" fill="#DBD8D7"/>
<path d="M71.8772 47.5944C65.4485 48.5525 59.874 54.8291 58.8738 57.1402C57.8735 59.4512 57.9685 62.431 57.2964 62.642C56.6247 62.8531 49.0552 59.4512 41.7613 60.9585C34.4674 62.4657 32.6939 63.988 32.1408 63.4705C31.5876 62.953 18.2881 60.1511 17.1624 65.1943C16.0366 70.238 18.6682 78.5273 18.6682 78.5273C18.6682 78.5273 15.7895 85.8117 16.4307 92.0069C17.0718 98.2021 18.6682 99.8445 18.6682 99.8445C18.6682 99.8445 15.2834 107.272 19.7075 110.834C24.1317 114.395 30.1322 115.876 34.2733 116.226C38.4144 116.575 40.8216 114.214 40.8216 114.214C40.8216 114.214 41.7693 121.549 54.7727 118.736C67.7761 115.922 66.9759 111.325 66.9759 111.325C66.9759 111.325 76.1898 109.543 76.5634 109.633C76.9375 109.724 83.3942 110.165 87.1552 107.18C90.9162 104.196 94.4826 99.4175 94.7827 96.4161C95.0828 93.4142 95.5289 83.1354 91.0052 78.0957C86.4815 73.056 74.7184 69.0975 74.7184 69.0975C74.7184 69.0975 75.5782 63.5172 77.6787 60.1782C79.7793 56.8387 79.8308 53.9287 77.9788 51.3122C76.1268 48.6961 71.8772 47.5944 71.8772 47.5944Z" fill="#FFE9D4"/>
<path d="M17.7945 102.537C16.9628 105.171 17.5635 109.628 22.7728 112.867C27.9822 116.105 32.8144 116.553 34.745 116.254C36.6755 115.955 39.8278 114.516 39.8278 114.516C39.8278 114.516 40.1754 119.094 51.6749 118.563C63.1744 118.033 66.6628 112.33 66.6628 112.33C66.6628 112.33 67.3555 111.142 67.8391 111.08C68.3222 111.018 75.5756 108.949 76.0693 109.291C76.5629 109.633 84.0509 107.702 87.7808 106.095C91.5108 104.489 93.3603 100.133 93.3603 100.133C93.3603 100.133 90.0709 103.792 86.2254 103.577C82.3799 103.361 81.9973 102.84 81.9973 102.84C81.9973 102.84 77.7787 105.371 73.2775 105.371C68.7764 105.371 68.4068 105.07 68.4068 105.07C68.4068 105.07 66.7618 111.432 56.6092 113.811C53.2898 114.59 48.9997 115.277 46.8201 114.615C42.3339 113.254 41.7613 109.147 41.7613 109.147C41.7613 109.147 41.2692 112.564 35.3676 112.735C32.5909 112.816 26.2877 111.036 22.7728 108.627C18.8173 105.917 17.7945 102.536 17.7945 102.536V102.537Z" fill="#EAD3C1"/>
<path d="M16.3376 92.7967C16.4732 92.3968 16.4637 88.267 22.2642 87.5857C34.1673 86.1875 34.7244 81.1639 38.3429 81.5799C43.1877 82.1366 42.5695 87.5857 51.6754 89.4436C58.3491 90.8051 66.5548 94.4903 62.5042 101.634C62.5042 101.634 70.8474 95.8257 76.5639 95.5243C82.2804 95.2228 84.1809 96.401 84.1809 96.401C84.1809 96.401 86.2814 94.9214 89.2822 95.2228C92.283 95.5243 94.7322 96.9938 94.7837 96.4161C94.8352 95.8378 95.7469 91.6437 94.5516 86.8878C93.3563 82.132 90.459 77.9299 85.3932 73.8724C80.3279 69.8149 75.7122 68.9749 74.7189 69.0975C73.7257 69.2201 70.0772 68.3941 70.0772 68.3941C70.0772 68.3941 71.3025 63.9217 67.3765 62.6667C63.4505 61.4116 56.6112 63.0515 56.6112 63.0515C56.6112 63.0515 49.3718 61.7864 43.7868 61.3483C38.2019 60.9102 32.1418 64.1739 32.1418 64.1739C32.1418 64.1739 21.3414 61.8166 18.0636 64.5331C14.7857 67.2496 19.0638 78.5277 19.0638 78.5277L16.3381 92.7967H16.3376Z" fill="#D1C8C1"/>
<path d="M58.8738 57.1402C70.7549 53.0204 75.7522 63.0299 75.7782 62.9681C75.8042 62.9063 80.4704 57.6039 79.1571 53.8735C77.8438 50.1426 74.5274 46.3429 69.4015 48.2249C64.2757 50.1069 58.8743 57.1407 58.8743 57.1407L58.8738 57.1402Z" fill="#D1C8C1"/>
<path d="M21.695 77.6701C21.1699 77.5274 17.686 66.9693 19.6905 65.9142C21.695 64.8592 26.7964 73.9226 26.7964 73.9226C26.7964 73.9226 25.9712 75.3339 23.9456 76.4643C22.3662 77.3456 21.695 77.6701 21.695 77.6701Z" fill="#FFB6B6"/>
<path d="M61.3689 74.9852C61.1534 76.1629 65.8991 78.4629 65.8991 78.4629C65.8991 78.4629 69.7051 65.8283 67.1544 65.1943C64.0216 64.4155 61.3684 74.9847 61.3684 74.9847L61.3689 74.9852Z" fill="#FFB6B6"/>
<path d="M38.6435 95.3037C38.583 96.1568 37.5132 96.7758 36.2534 96.6858C34.994 96.5959 34.0218 95.8312 34.0823 94.9776C34.1428 94.1245 38.7035 94.4506 38.643 95.3037H38.6435Z" fill="#FFB6B6"/>
<path d="M67.369 96.604C67.3305 96.6678 67.287 96.7285 67.244 96.7888C67.2205 96.822 67.196 96.8542 67.172 96.8868C67.0304 97.0802 67.349 96.6632 67.229 96.813C67.1494 96.9119 67.0699 97.0109 66.9874 97.1074C66.4393 97.7474 65.8171 98.3232 65.1629 98.8527C65.1129 98.8934 65.0624 98.9336 65.0124 98.9733C64.9829 98.9964 64.9534 99.0195 64.9239 99.0432C64.8368 99.113 65.1649 98.8583 65.0129 98.9738C64.8944 99.0638 64.7763 99.1537 64.6563 99.2416C64.3877 99.4385 64.1141 99.6285 63.8366 99.8118C63.2089 100.227 62.5607 100.609 61.8971 100.963C61.5155 101.166 61.1294 101.36 60.7388 101.546C60.5272 101.646 60.3147 101.744 60.1011 101.839C60.0016 101.883 59.902 101.927 59.802 101.97C59.7515 101.992 59.7005 102.014 59.65 102.036C59.5084 102.097 59.756 101.991 59.757 101.99C59.72 102.005 59.683 102.021 59.646 102.037C58.6672 102.444 57.6685 102.804 56.6577 103.122C54.131 103.917 51.5279 104.456 48.9062 104.819C48.8697 104.824 48.8312 104.826 48.7951 104.834C49.0222 104.785 48.8942 104.821 48.8377 104.828C48.7501 104.839 48.6626 104.851 48.5751 104.862C48.3725 104.888 48.1695 104.913 47.9664 104.937C47.5628 104.985 47.1587 105.028 46.7541 105.068C45.9314 105.149 45.1072 105.214 44.282 105.265C42.437 105.379 40.5855 105.429 38.737 105.407C36.9675 105.387 35.1976 105.282 33.4411 105.062C33.3356 105.049 33.2276 105.039 33.1225 105.021C33.3246 105.056 33.1255 105.021 33.0345 105.008C32.828 104.978 32.6219 104.947 32.4159 104.914C32.0408 104.855 31.6662 104.789 31.2931 104.716C30.5754 104.578 29.8622 104.416 29.156 104.228C28.5003 104.053 27.8507 103.854 27.21 103.63C26.9019 103.522 26.5958 103.408 26.2922 103.288C26.1587 103.235 26.0262 103.181 25.8931 103.125C25.7296 103.057 26.0862 103.21 25.8806 103.119C25.7981 103.083 25.7156 103.047 25.6331 103.01C24.5953 102.544 23.593 101.996 22.6558 101.349C22.4427 101.202 22.2357 101.048 22.0281 100.894C21.9146 100.809 22.2237 101.049 22.0301 100.895C21.9841 100.858 21.9381 100.822 21.8926 100.785C21.7896 100.702 21.687 100.617 21.586 100.531C21.2134 100.213 20.8568 99.8772 20.5187 99.523C20.2007 99.1894 19.9196 98.8291 19.621 98.4789C19.8581 98.7573 19.6085 98.4594 19.5495 98.3785C19.48 98.283 19.4124 98.1865 19.3459 98.0891C19.2189 97.9032 19.0969 97.7138 18.9798 97.5214C18.7593 97.1576 18.5572 96.7823 18.3762 96.3975C18.3317 96.303 18.2887 96.2081 18.2466 96.1121C18.2271 96.0679 18.2096 96.0222 18.1891 95.9785C18.3432 96.305 18.2346 96.087 18.2026 96.0081C18.1261 95.8172 18.0541 95.6248 17.9871 95.4303C17.8535 95.041 17.74 94.6451 17.647 94.2436C17.5585 93.8603 17.4844 93.4729 17.4209 93.0846C17.4049 92.9856 17.3894 92.8866 17.3749 92.7876C17.3669 92.7319 17.3589 92.6756 17.3509 92.6198C17.3524 92.6304 17.3724 92.7967 17.3594 92.6786C17.3349 92.4611 17.3089 92.2435 17.2894 92.025C17.2214 91.2533 17.2054 90.4766 17.2454 89.7028C17.2634 89.3517 17.2934 89.0015 17.3344 88.6523C17.3399 88.6071 17.3454 88.5619 17.3509 88.5167C17.3694 88.3584 17.3319 88.5754 17.3419 88.582C17.3259 88.5719 17.3709 88.382 17.3759 88.3494C17.4024 88.175 17.4319 88.0012 17.4644 87.8279C17.6885 86.6186 18.0481 85.4419 18.4657 84.2869C19.1344 82.437 20.0876 80.5258 20.0426 78.5096C20.0166 77.3471 19.616 76.1961 19.3009 75.0882C18.9033 73.688 18.4957 72.2888 18.1891 70.865C18.1111 70.5022 18.0396 70.1385 17.9776 69.7727C17.9501 69.611 17.9246 69.4492 17.9016 69.2869C17.864 69.0272 17.9176 69.4301 17.8955 69.2452C17.8835 69.1432 17.871 69.0417 17.86 68.9397C17.792 68.2916 17.763 67.636 17.8175 66.9854C17.8235 66.916 17.831 66.8467 17.838 66.7779C17.863 66.5297 17.798 66.9974 17.842 66.7553C17.867 66.6156 17.892 66.4759 17.9251 66.3378C17.9571 66.2046 17.9946 66.0725 18.0386 65.9429C18.0586 65.8836 18.0816 65.8253 18.1026 65.7665C18.1561 65.6163 18.0676 65.8509 18.0621 65.86C18.0836 65.8228 18.0981 65.7796 18.1166 65.7409C18.1726 65.6243 18.2346 65.5108 18.3037 65.4013C18.3357 65.3505 18.3702 65.3023 18.4032 65.2526C18.5197 65.0777 18.2531 65.4194 18.4157 65.239C18.5672 65.0707 18.7233 64.9144 18.8948 64.7662C19.0464 64.6351 18.8273 64.8134 18.8518 64.7969C18.8958 64.7672 18.9373 64.7336 18.9808 64.7029C19.0814 64.6326 19.1849 64.5658 19.2904 64.5035C19.3914 64.4437 19.494 64.3874 19.5985 64.3347C19.648 64.3095 19.6975 64.2854 19.748 64.2618C19.7885 64.2427 20.0271 64.1387 19.8481 64.2146C19.678 64.2869 19.8651 64.209 19.9086 64.192C19.9696 64.1684 20.0311 64.1452 20.0926 64.1236C20.2102 64.0819 20.3287 64.0433 20.4482 64.0071C20.7028 63.9307 20.9609 63.8669 21.2209 63.8131C21.3415 63.7885 21.463 63.7654 21.5845 63.7448C21.655 63.7328 21.7251 63.7217 21.7956 63.7112C22.0421 63.674 21.637 63.7292 21.7971 63.7102C22.0791 63.676 22.3617 63.6479 22.6453 63.6288C23.2179 63.5906 23.7926 63.5846 24.3662 63.6001C24.9329 63.6157 25.4985 63.6529 26.0627 63.7066C26.3473 63.7338 26.6318 63.7649 26.9154 63.8001C26.9784 63.8081 27.0414 63.8157 27.1045 63.8242C27.3635 63.8579 26.9594 63.8036 27.1055 63.8242C27.245 63.8438 27.385 63.8639 27.5246 63.8845C28.4358 64.0217 29.3415 64.1935 30.2408 64.3954C30.7369 64.507 31.2315 64.6266 31.7212 64.7622C32.0232 64.8461 32.3103 64.818 32.6059 64.6853C32.6794 64.6527 32.7519 64.618 32.8255 64.5854C32.8575 64.5713 32.89 64.5572 32.9225 64.5432C33.1325 64.4517 32.6824 64.6431 32.822 64.5859C32.916 64.5472 33.01 64.508 33.1045 64.4703C33.3591 64.3683 33.6157 64.2713 33.8737 64.1784C34.6219 63.9086 35.3821 63.672 36.1493 63.4615C37.1851 63.1776 38.2339 62.9425 39.2907 62.7531C39.6012 62.6973 39.9128 62.6455 40.2249 62.5978C40.3814 62.5737 40.538 62.5506 40.6945 62.5285C40.7265 62.524 40.758 62.5199 40.79 62.5154C40.9246 62.4953 40.5805 62.5421 40.716 62.5255C40.813 62.5134 40.9101 62.4998 41.0076 62.4878C41.6868 62.4029 42.368 62.3361 43.0501 62.2878C44.597 62.1778 46.1509 62.1607 47.6999 62.2356C48.5511 62.2768 49.4013 62.3456 50.248 62.4416C50.4641 62.4662 50.6796 62.4928 50.8952 62.5204C50.9112 62.5225 51.0567 62.5415 50.9362 62.5255C50.8062 62.5079 50.9912 62.533 51.0212 62.5375C51.1528 62.5561 51.2843 62.5752 51.4158 62.5948C51.8619 62.6621 52.3071 62.737 52.7512 62.8189C54.6192 63.165 56.4606 63.6458 58.2636 64.2447C58.7607 64.41 59.3784 64.0538 59.4939 63.5429C59.6195 62.9892 59.3274 62.4838 58.7953 62.3069C53.7434 60.6289 48.362 59.8999 43.0496 60.2782C39.7733 60.5113 36.4844 61.1142 33.3856 62.225C32.7784 62.4426 32.1673 62.6737 31.5861 62.9555C31.8432 62.9219 32.0998 62.8882 32.3568 62.854C31.5686 62.626 30.7639 62.4476 29.9602 62.2843C28.1672 61.9201 26.3388 61.6573 24.5088 61.5955C22.5803 61.5307 20.5793 61.6875 18.8033 62.4968C17.9711 62.8762 17.2449 63.4564 16.7057 64.198C16.0761 65.0636 15.8555 66.1795 15.8005 67.2295C15.738 68.4233 15.913 69.6316 16.1371 70.8007C16.3671 72.0004 16.6817 73.1821 17.0113 74.3577C17.3039 75.4007 17.618 76.4392 17.877 77.4918C17.9281 77.6983 17.9801 77.9058 18.0151 78.1158C18.0221 78.157 18.0261 78.1992 18.0341 78.2399C18.0206 78.17 18.0041 77.9711 18.0181 78.1384C18.0256 78.2283 18.0336 78.3182 18.0376 78.4082C18.0451 78.582 18.0431 78.7563 18.0331 78.9302C18.0281 79.0146 18.0211 79.0985 18.0126 79.1824C18.0081 79.2246 18.0026 79.2668 17.9981 79.309C17.9826 79.4577 18.0406 79.0342 18.0076 79.2326C17.7315 80.876 17.0133 82.4063 16.4597 83.9663C15.7115 86.0729 15.2269 88.268 15.2218 90.5132C15.2173 92.5877 15.5289 94.7526 16.3271 96.6788C16.9468 98.1745 17.8055 99.5285 18.8958 100.725C20.0926 102.038 21.5475 103.126 23.0954 103.986C24.9929 105.04 27.0615 105.789 29.164 106.308C31.8402 106.968 34.6044 107.283 37.3551 107.386C40.3374 107.499 43.3402 107.395 46.312 107.122C48.8091 106.894 51.3008 106.535 53.7489 105.984C55.6274 105.561 57.4824 105.024 59.2814 104.336C60.7468 103.774 62.1836 103.125 63.5475 102.347C64.5763 101.759 65.553 101.093 66.4793 100.354C67.0659 99.8857 67.6266 99.3808 68.1362 98.8276C68.4508 98.486 68.7504 98.1242 69.0144 97.7414C69.0419 97.7017 69.0694 97.662 69.0945 97.6208C69.366 97.1707 69.208 96.4969 68.7354 96.2462C68.2497 95.9885 67.6566 96.1262 67.367 96.607L67.369 96.604Z" fill="#512516"/>
<path d="M53.894 65.9368C54.0615 65.8966 54.2251 65.8173 54.3851 65.7555C54.7482 65.6158 55.1118 65.4786 55.4774 65.346C56.6257 64.93 57.79 64.5582 58.9708 64.2462C59.686 64.0568 60.4077 63.8895 61.1344 63.7503C61.519 63.6765 61.9056 63.6102 62.2932 63.5534C62.3507 63.5449 62.6728 63.4876 62.3942 63.5383C62.4912 63.5207 62.5913 63.5132 62.6893 63.5016C62.8863 63.478 63.0839 63.4574 63.2814 63.4393C64.0671 63.3675 64.8573 63.3389 65.6455 63.372C66.0201 63.3881 66.3922 63.4228 66.7648 63.4645C66.9064 63.4805 66.5713 63.4353 66.7118 63.4574C66.7588 63.465 66.8059 63.4715 66.8529 63.4785C66.9214 63.4891 66.9904 63.4996 67.0589 63.5127C67.1434 63.5293 67.2265 63.5499 67.3085 63.5765C67.3455 63.5886 67.383 63.6082 67.4205 63.6172C67.458 63.6262 67.1519 63.4876 67.3035 63.5695C67.3775 63.6097 67.4515 63.6468 67.5225 63.6931C67.5515 63.7122 67.5791 63.7343 67.6086 63.7524C67.6996 63.8076 67.3855 63.5594 67.5245 63.688C67.5886 63.7473 67.6541 63.8036 67.7146 63.8669C67.7681 63.9232 67.8136 63.9945 67.8706 64.0463C67.8806 64.0553 67.7041 63.8121 67.7736 63.9202C67.7856 63.9382 67.8001 63.9553 67.8121 63.9734C67.8371 64.0101 67.8626 64.0468 67.8871 64.0839C67.9892 64.2417 68.0782 64.408 68.1572 64.5783C68.1782 64.623 68.1957 64.6698 68.2172 64.7145C68.2222 64.7245 68.1117 64.4462 68.1597 64.5798C68.1682 64.6039 68.1787 64.6275 68.1877 64.6512C68.2252 64.7496 68.2602 64.8486 68.2927 64.9491C68.3618 65.1621 68.4203 65.3782 68.4703 65.5962C68.5243 65.8313 68.5688 66.0685 68.6063 66.3066C68.6158 66.3689 68.6243 66.4312 68.6343 66.4935C68.6598 66.6563 68.6003 66.2137 68.6268 66.4402C68.6428 66.5789 68.6588 66.7171 68.6723 66.8557C68.7809 68.0068 68.7684 69.1678 68.6979 70.3209C68.6598 70.9439 68.6033 71.5658 68.5318 72.1863C68.5133 72.3466 68.4938 72.5063 68.4738 72.6661C68.4678 72.7133 68.4373 72.9449 68.4603 72.7726C68.4823 72.6088 68.4633 72.748 68.4578 72.7892C68.4508 72.8394 68.4438 72.8892 68.4368 72.9394C68.3913 73.2595 68.3423 73.5795 68.2897 73.8985C67.9136 76.179 67.39 78.4735 66.5518 80.6313C66.5098 80.7398 66.4658 80.8479 66.4218 80.9559C66.3627 81.1031 66.5328 80.6992 66.4413 80.9102C66.4193 80.9604 66.3977 81.0106 66.3757 81.0604C66.1647 81.5397 66.2207 82.1622 66.7348 82.435C67.1694 82.6656 67.8771 82.5877 68.1032 82.0742C69.0569 79.9099 69.6431 77.5867 70.0727 75.2651C70.5443 72.7184 70.8654 70.0852 70.7199 67.4913C70.6123 65.5726 70.2898 63.1384 68.5573 61.9738C68.1722 61.7151 67.7316 61.5905 67.279 61.5237C66.4198 61.3976 65.5585 61.3353 64.6898 61.3503C63.0324 61.379 61.3729 61.6287 59.7565 61.9874C57.6194 62.4617 55.5744 63.1836 53.5259 63.9428C53.4724 63.9629 53.4183 63.9855 53.3628 63.9985C52.8537 64.1201 52.5021 64.7305 52.6642 65.2345C52.8357 65.7675 53.3488 66.067 53.8945 65.9363L53.894 65.9368Z" fill="#512516"/>
<path d="M17.9256 99.3793C17.9256 99.3793 17.9256 99.3803 17.9261 99.3808L17.7895 98.8738C17.7895 98.8738 17.878 98.5417 17.8165 98.6432C17.804 98.6643 17.7975 98.6945 17.7885 98.7171C17.757 98.8 17.721 98.8814 17.6875 98.9633C17.5715 99.2456 17.4594 99.53 17.3554 99.8169C17.0278 100.721 16.7693 101.653 16.6132 102.603C16.3972 103.92 16.3526 105.229 16.5892 106.547C16.8438 107.965 17.4994 109.287 18.4552 110.359C19.0043 110.975 19.671 111.481 20.3232 111.98C20.9644 112.47 21.6295 112.927 22.3137 113.355C23.7241 114.237 25.2105 114.979 26.7429 115.62C28.0942 116.185 29.4906 116.656 30.9195 116.98C32.1438 117.257 33.4216 117.457 34.6799 117.408C36.1438 117.351 37.6457 116.975 38.9606 116.325C39.6437 115.987 40.3104 115.53 40.78 114.92C40.8221 114.866 40.8701 114.809 40.9076 114.75C41.1882 114.305 41.0146 113.623 40.549 113.375C40.0549 113.113 39.4802 113.261 39.1806 113.736C39.1766 113.742 39.1726 113.748 39.1686 113.754C39.0791 113.884 39.2661 113.614 39.2806 113.611C39.2396 113.619 39.1421 113.77 39.1111 113.802C39.0116 113.904 38.9041 113.996 38.796 114.089C38.6655 114.2 38.9976 113.94 38.8775 114.027C38.8425 114.052 38.8085 114.078 38.773 114.103C38.6845 114.167 38.5935 114.227 38.5009 114.285C38.2929 114.415 38.0763 114.532 37.8548 114.637C37.7958 114.666 37.7362 114.692 37.6767 114.719C37.5277 114.788 37.7397 114.691 37.7543 114.687C37.7177 114.697 37.6767 114.719 37.6422 114.733C37.4927 114.793 37.3416 114.847 37.1891 114.899C36.8255 115.021 36.4549 115.121 36.0803 115.203C35.8873 115.245 35.6932 115.282 35.4982 115.315C35.3946 115.333 35.2906 115.347 35.1871 115.364C35.009 115.394 35.4246 115.337 35.2956 115.35C35.2576 115.354 35.2196 115.359 35.1816 115.363C34.6774 115.417 34.1673 115.415 33.6617 115.383C33.3766 115.364 33.094 115.319 32.81 115.3C33.1325 115.322 32.8555 115.306 32.7804 115.294C32.7104 115.284 32.6404 115.273 32.5704 115.261C32.4174 115.236 32.2643 115.21 32.1118 115.181C30.7449 114.92 29.4061 114.512 28.1072 114.015C27.9337 113.949 27.7601 113.881 27.5881 113.811C27.5071 113.778 27.426 113.745 27.345 113.712C27.3135 113.698 27.163 113.636 27.2905 113.689C27.431 113.748 27.2075 113.654 27.2015 113.651C26.8509 113.499 26.5028 113.341 26.1582 113.175C25.457 112.839 24.7683 112.476 24.0957 112.085C23.419 111.692 22.7583 111.271 22.1177 110.82C21.9586 110.708 21.8006 110.594 21.644 110.478C21.571 110.424 21.4985 110.37 21.4265 110.315C21.3855 110.284 21.3445 110.252 21.3029 110.221C21.1519 110.106 21.3865 110.289 21.2914 110.212C20.9949 109.974 20.6953 109.737 20.4122 109.482C20.1551 109.251 19.9146 109 19.6945 108.733C19.6665 108.698 19.6395 108.663 19.611 108.629C19.5385 108.543 19.6705 108.702 19.6665 108.701C19.629 108.691 19.537 108.522 19.514 108.489C19.4229 108.357 19.3369 108.222 19.2559 108.083C19.1764 107.947 19.1019 107.809 19.0323 107.668C19.0003 107.603 18.9693 107.538 18.9398 107.472C18.9228 107.434 18.9073 107.396 18.8898 107.359C18.8373 107.244 18.9823 107.599 18.9088 107.4C18.8038 107.116 18.7063 106.831 18.6317 106.537C18.5977 106.401 18.5672 106.266 18.5407 106.129C18.5257 106.052 18.5117 105.974 18.4987 105.896C18.4937 105.866 18.4897 105.837 18.4847 105.808C18.4572 105.643 18.4882 105.795 18.4917 105.871C18.4782 105.58 18.4332 105.29 18.4247 104.997C18.4082 104.426 18.4617 103.868 18.5152 103.302C18.4832 103.64 18.5057 103.374 18.5172 103.298C18.5267 103.236 18.5367 103.173 18.5467 103.111C18.5697 102.971 18.7013 102.334 18.7288 102.196C18.7783 101.946 18.7288 102.196 18.7913 101.949C18.9013 101.514 19.0308 101.083 19.1759 100.659C19.3444 100.166 19.582 99.6918 19.7385 99.1964C19.8311 98.9035 18.7883 99.6184 18.6678 99.3396C18.4587 98.8553 18.7003 97.7354 18.2837 98.0052C17.7835 98.3292 17.7015 98.8618 17.9246 99.3798L17.9256 99.3793Z" fill="#512516"/>
<path d="M43.7738 105.549C41.7548 106.426 40.3089 108.474 39.6757 110.535C39.0236 112.658 39.2141 115.24 40.6385 117.015C41.6143 118.231 43.1887 118.878 44.6565 119.249C46.541 119.723 48.5221 119.839 50.4586 119.805C52.5566 119.769 54.6537 119.541 56.7207 119.184C58.5682 118.865 60.4957 118.496 62.2056 117.699C65.307 116.253 67.212 113.175 68.2182 110.005C68.6288 108.71 68.8879 107.38 69.0624 106.034C69.1525 105.342 69.2255 104.639 69.232 103.941C69.232 103.909 69.233 103.878 69.233 103.847C69.233 103.321 68.7729 102.818 68.2327 102.842C67.6906 102.866 67.233 103.283 67.2325 103.847C67.2325 104.311 67.1949 104.777 67.1509 105.239C67.1289 105.47 67.1034 105.701 67.0744 105.932C67.0624 106.025 67.0269 106.266 67.0829 105.871C67.0744 105.931 67.0669 105.99 67.0584 106.049C67.0374 106.198 67.0144 106.347 66.9904 106.495C66.8914 107.105 66.7678 107.71 66.6173 108.31C66.4488 108.981 66.2472 109.644 66.0056 110.293C65.9456 110.454 65.8831 110.615 65.8181 110.774C65.8026 110.812 65.7856 110.85 65.7711 110.888C65.8866 110.586 65.8236 110.765 65.7941 110.832C65.7536 110.923 65.7141 111.015 65.6726 111.106C65.519 111.442 65.353 111.773 65.1734 112.097C64.9914 112.424 64.7958 112.744 64.5848 113.053C64.4787 113.209 64.3602 113.357 64.2547 113.513C64.2587 113.507 64.4147 113.309 64.3167 113.432C64.2847 113.472 64.2527 113.513 64.2207 113.553C64.1557 113.634 64.0896 113.714 64.0226 113.792C63.7741 114.082 63.509 114.359 63.2279 114.618C63.0859 114.749 62.9393 114.876 62.7893 114.997C62.7618 115.019 62.7338 115.041 62.7063 115.063C62.5497 115.19 62.9023 114.918 62.7403 115.036C62.6538 115.1 62.5682 115.163 62.4802 115.225C62.1511 115.454 61.8065 115.66 61.4489 115.841C61.3574 115.887 61.2649 115.932 61.1714 115.975C61.1289 115.995 61.0853 116.014 61.0428 116.034C60.8518 116.122 61.2684 115.943 61.0723 116.022C60.8748 116.101 60.6762 116.177 60.4737 116.244C59.6495 116.516 58.7968 116.717 57.9495 116.902C57.0108 117.108 56.064 117.279 55.1133 117.418C55.0613 117.425 54.7732 117.432 54.7497 117.469C54.7677 117.44 54.9667 117.44 54.8162 117.46C54.7497 117.469 54.6832 117.478 54.6167 117.486C54.3606 117.519 54.104 117.549 53.8475 117.577C53.3548 117.63 52.8612 117.675 52.3671 117.71C51.3828 117.78 50.3961 117.813 49.4093 117.797C48.9407 117.789 48.4725 117.77 48.0049 117.737C47.7989 117.723 47.5923 117.706 47.3868 117.686C47.2652 117.675 47.1442 117.661 47.0232 117.647C46.9351 117.637 46.533 117.576 46.8721 117.631C46.0604 117.499 45.2582 117.36 44.4735 117.106C44.3115 117.054 44.1509 116.998 43.9919 116.937C43.9454 116.919 43.8994 116.9 43.8528 116.882C43.7523 116.844 43.7013 116.763 43.9104 116.908C43.8353 116.856 43.7288 116.828 43.6468 116.789C43.3437 116.645 43.0501 116.48 42.7746 116.288C42.7165 116.248 42.66 116.196 42.5985 116.16C42.8891 116.328 42.666 116.213 42.585 116.143C42.464 116.039 42.3489 115.928 42.2409 115.811C42.1949 115.761 42.1514 115.709 42.1069 115.657C42.0479 115.59 42.0044 115.473 42.1629 115.734C42.1424 115.7 42.1149 115.668 42.0919 115.636C42.0074 115.516 41.9313 115.39 41.8628 115.26C41.8093 115.158 41.7628 115.053 41.7138 114.949C41.6047 114.717 41.7838 115.151 41.6993 114.911C41.6743 114.84 41.6468 114.771 41.6223 114.701C41.5342 114.446 41.4632 114.185 41.4097 113.922C41.3872 113.811 41.3432 113.678 41.3477 113.564C41.3372 113.828 41.3557 113.617 41.3492 113.545C41.3422 113.473 41.3367 113.402 41.3317 113.33C41.3152 113.068 41.3142 112.805 41.3287 112.543C41.3352 112.425 41.3447 112.306 41.3572 112.188C41.3597 112.165 41.3622 112.141 41.3652 112.117C41.3792 112.005 41.3767 112.023 41.3572 112.173C41.3477 112.117 41.3812 112.019 41.3912 111.963C41.4367 111.707 41.4952 111.454 41.5672 111.205C41.6388 110.956 41.7258 110.714 41.8178 110.473C41.8823 110.304 41.8028 110.496 41.7973 110.519C41.8123 110.455 41.8553 110.386 41.8828 110.327C41.9413 110.201 42.0029 110.076 42.0679 109.953C42.1854 109.73 42.3139 109.513 42.4525 109.302C42.5145 109.207 42.579 109.114 42.6455 109.022C42.6805 108.974 42.8301 108.808 42.651 109.009C42.695 108.96 42.7345 108.904 42.7766 108.853C42.9301 108.666 43.0931 108.487 43.2647 108.317C43.3412 108.241 43.4197 108.167 43.4997 108.096C43.5493 108.051 43.7818 107.91 43.7918 107.849C43.7573 107.876 43.7233 107.903 43.6888 107.929C43.7218 107.904 43.7553 107.879 43.7893 107.855C43.8398 107.818 43.8903 107.783 43.9419 107.748C44.0264 107.691 44.1129 107.636 44.2004 107.583C44.389 107.471 44.585 107.371 44.7861 107.284C45.2682 107.074 45.4132 106.327 45.1452 105.909C44.8226 105.407 44.2925 105.325 43.7768 105.549H43.7738Z" fill="#512516"/>
<path d="M81.8228 100.067C81.6787 100.788 81.4927 101.501 81.2476 102.195C81.1926 102.35 81.1351 102.504 81.0746 102.657C81.0621 102.689 80.9561 102.955 81.0216 102.79C81.0791 102.643 81.0291 102.772 81.0131 102.808C80.9931 102.853 80.9731 102.899 80.9526 102.944C80.8165 103.246 80.668 103.541 80.5064 103.83C80.3504 104.108 80.1824 104.38 80.0018 104.644C79.9183 104.765 79.8313 104.884 79.7442 105.003C79.6467 105.136 79.8938 104.814 79.7332 105.017C79.6822 105.081 79.6307 105.144 79.5787 105.208C79.1931 105.672 78.7665 106.101 78.3069 106.491C78.1973 106.584 78.0808 106.67 77.9723 106.764C77.9803 106.757 78.1748 106.61 78.0463 106.706C78.0173 106.728 77.9888 106.75 77.9598 106.772C77.8948 106.82 77.8287 106.868 77.7622 106.915C77.5172 107.09 77.2656 107.256 77.008 107.411C76.4619 107.743 75.8917 108.033 75.3076 108.289C75.2351 108.321 74.9945 108.403 75.2801 108.302C75.2071 108.328 75.136 108.362 75.064 108.39C74.909 108.453 74.7534 108.513 74.5969 108.571C74.2863 108.687 73.9732 108.794 73.6576 108.895C72.988 109.109 72.3083 109.292 71.6241 109.454C70.8079 109.646 69.9847 109.807 69.158 109.948C68.7184 110.024 68.2777 110.093 67.8366 110.158C67.6231 110.19 67.409 110.221 67.195 110.25C67.1469 110.257 67.0989 110.263 67.0509 110.27C66.8003 110.305 67.2795 110.24 67.0274 110.274C66.9059 110.29 66.7843 110.306 66.6628 110.321C66.1457 110.388 65.636 110.735 65.6626 111.326C65.6841 111.813 66.1072 112.403 66.6628 112.331C69.7181 111.934 72.8354 111.462 75.7042 110.284C77.019 109.743 78.2438 109.081 79.3646 108.201C80.4034 107.386 81.2901 106.384 81.9878 105.259C82.8661 103.843 83.4262 102.231 83.7513 100.601C83.8538 100.087 83.6048 99.4913 83.0526 99.3652C82.555 99.2511 81.9323 99.5159 81.8223 100.067L81.8228 100.067Z" fill="#512516"/>
<path d="M70.4023 69.626C70.5828 69.6331 70.7634 69.6471 70.9434 69.6622C71.1595 69.6798 71.375 69.7009 71.5901 69.7245C71.7221 69.7391 71.8547 69.7541 71.9867 69.7707C72.0587 69.7798 72.1312 69.7888 72.2033 69.7984C72.2373 69.8029 72.2713 69.8074 72.3058 69.8119C72.3838 69.822 71.9672 69.7652 72.1873 69.7958C73.8827 70.0335 75.5606 70.3932 77.2041 70.876C78.2588 71.186 79.2991 71.5467 80.3169 71.9627C80.3774 71.9874 80.4374 72.012 80.4974 72.0371C80.5334 72.0522 80.57 72.0677 80.606 72.0823C80.739 72.1376 80.4659 72.0225 80.4759 72.027C80.621 72.0909 80.767 72.1521 80.912 72.2165C81.1816 72.336 81.4492 72.4601 81.7148 72.5877C82.2724 72.856 82.821 73.1429 83.3592 73.4489C83.9008 73.7568 84.432 74.0839 84.9496 74.4316C85.2137 74.6084 85.4737 74.7908 85.7303 74.9782C85.8598 75.0727 85.9884 75.1686 86.1159 75.2661C86.1509 75.2927 86.1849 75.3209 86.2204 75.3465C86.2229 75.348 86.0059 75.1782 86.1224 75.2701C86.1974 75.3294 86.2724 75.3882 86.347 75.448C87.3897 76.2845 88.358 77.2149 89.2262 78.2333C89.3377 78.3639 89.4473 78.4956 89.5553 78.6292C89.6048 78.69 89.6538 78.7513 89.7023 78.8131C89.7319 78.8503 89.7604 78.8875 89.7899 78.9246C89.9474 79.1251 89.6758 78.7719 89.7779 78.9091C89.9874 79.1909 90.195 79.4728 90.3925 79.7632C90.7986 80.3605 91.1722 80.98 91.5113 81.6176C91.6909 81.9547 91.8604 82.2968 92.0205 82.644C92.0965 82.8088 92.1705 82.9746 92.242 83.1414C92.2695 83.2052 92.3425 83.3906 92.223 83.0941C92.2395 83.1348 92.2565 83.175 92.273 83.2157C92.3165 83.3217 92.359 83.4277 92.401 83.5343C92.6931 84.2803 92.9427 85.0425 93.1517 85.8162C93.3773 86.6512 93.5549 87.4988 93.6894 88.3529C93.7069 88.4629 93.7234 88.5729 93.7394 88.6829C93.7469 88.7332 93.7529 88.7839 93.7609 88.8342C93.7829 88.9774 93.7269 88.5659 93.7539 88.7799C93.7849 89.0271 93.8144 89.2743 93.8399 89.522C93.8874 89.9897 93.9235 90.459 93.948 90.9287C93.998 91.8848 94.0085 92.8449 93.953 93.801C93.926 94.2627 93.8604 94.7194 93.8244 95.1796C93.8254 95.1671 93.8609 94.9179 93.8369 95.0862C93.8284 95.1434 93.8204 95.2012 93.8119 95.2585C93.7979 95.3534 93.7829 95.4484 93.7674 95.5429C93.7304 95.7659 93.6894 95.9885 93.6444 96.2096C93.4868 96.9782 93.2758 97.7364 93.0072 98.4739C92.9432 98.6493 92.8762 98.8241 92.8057 98.9969C92.7051 99.2441 92.8947 98.796 92.7897 99.0351C92.7461 99.1341 92.7031 99.2326 92.6581 99.331C92.5056 99.6641 92.34 99.9912 92.1625 100.311C91.8264 100.917 91.4383 101.481 91.0302 102.039C91.2432 101.748 91.0552 102.005 91.0027 102.071C90.9502 102.136 90.8977 102.201 90.8441 102.266C90.7381 102.394 90.6296 102.52 90.5191 102.644C90.2905 102.902 90.0524 103.15 89.8064 103.391C89.5738 103.618 89.3342 103.837 89.0877 104.048C88.9712 104.148 88.8531 104.247 88.7336 104.344C88.6711 104.394 88.6081 104.444 88.5455 104.494C88.4115 104.601 88.7261 104.356 88.6271 104.43C88.5866 104.461 88.5465 104.492 88.5055 104.523C87.9944 104.909 87.4608 105.265 86.9106 105.592C86.371 105.913 85.8153 106.207 85.2477 106.474C85.1091 106.54 84.9701 106.603 84.8306 106.666C84.7676 106.694 84.704 106.722 84.6405 106.749C84.6025 106.766 84.5645 106.782 84.5265 106.798C84.379 106.863 84.7706 106.697 84.613 106.762C84.3354 106.876 84.0569 106.988 83.7753 107.093C82.6955 107.497 81.5872 107.823 80.4639 108.082C79.9478 108.201 79.4287 108.306 78.907 108.397C78.669 108.439 78.4304 108.478 78.1918 108.514C78.0823 108.531 77.9728 108.547 77.8627 108.562C77.7677 108.576 77.5182 108.606 77.9293 108.554C77.8687 108.561 77.8087 108.57 77.7487 108.577C76.5774 108.728 75.3916 108.827 74.2098 108.821C74.1548 108.821 74.0998 108.821 74.0452 108.819C73.5216 108.805 73.0215 109.291 73.045 109.824C73.07 110.381 73.4846 110.814 74.0452 110.829C74.9005 110.852 75.7632 110.791 76.6139 110.712C78.703 110.52 80.7845 110.15 82.794 109.541C85.2537 108.796 87.6433 107.702 89.6873 106.125C92.095 104.267 93.9164 101.835 94.9527 98.9597C96.2236 95.4338 96.195 91.5105 95.6229 87.8474C95.1178 84.6149 93.962 81.4563 92.1195 78.7473C90.4971 76.3613 88.4135 74.3547 86.0309 72.7435C83.9583 71.3423 81.6722 70.2661 79.3151 69.4442C77.5031 68.8121 75.6362 68.3373 73.7457 68.0158C72.6859 67.8354 71.6131 67.6857 70.5388 67.6229C70.4933 67.6204 70.4478 67.6174 70.4023 67.6159C69.8787 67.5963 69.3785 68.0922 69.402 68.6207C69.427 69.1819 69.8416 69.6044 70.4023 69.6255V69.626Z" fill="#512516"/>
<path d="M22.1692 77.3441C22.1156 77.219 22.1862 77.3898 22.1351 77.2627C22.1111 77.2024 22.0866 77.1426 22.0626 77.0823C22.0056 76.9381 21.9511 76.7934 21.8976 76.6482C21.7871 76.3483 21.683 76.0463 21.582 75.7434C21.3414 75.0199 21.1219 74.2889 20.9168 73.5549C20.4852 72.01 20.1046 70.4435 19.851 68.8589C19.7905 68.4795 19.767 68.3183 19.728 67.941C19.6985 67.6561 19.677 67.3697 19.672 67.0834C19.67 66.9703 19.6705 66.8573 19.6755 66.7442C19.678 66.6905 19.681 66.6362 19.6855 66.5824C19.688 66.5523 19.693 66.5217 19.694 66.4915C19.6985 66.3961 19.67 66.6076 19.691 66.5106C19.709 66.4272 19.725 66.3448 19.7455 66.2619C19.7605 66.2006 19.8285 66.1298 19.74 66.2594C19.7565 66.2353 19.7815 66.1926 19.7895 66.166C19.814 66.0856 19.695 66.2659 19.7745 66.1871C19.8545 66.1077 19.6855 66.2458 19.74 66.2117C19.806 66.1705 19.726 66.2509 19.6745 66.2358C19.674 66.2358 19.702 66.2252 19.7035 66.2267C19.707 66.2308 19.789 66.2102 19.797 66.2087C19.71 66.2232 19.772 66.2117 19.8235 66.2107C19.8921 66.2092 19.9586 66.2112 20.0271 66.2147C20.1596 66.2212 19.9576 66.2006 20.0391 66.2147C20.0741 66.2207 20.1091 66.2272 20.1436 66.2348C20.2151 66.2509 20.2862 66.271 20.3557 66.2941C20.3847 66.3036 20.4127 66.3142 20.4417 66.3242C20.4707 66.3353 20.4992 66.3463 20.5282 66.3584C20.4882 66.3418 20.4847 66.3408 20.5172 66.3554C21.2294 66.6925 21.7706 67.217 22.3022 67.8108C23.0574 68.6549 23.6931 69.6029 24.2692 70.5771C24.8804 71.6111 25.4275 72.6887 25.8861 73.8001C25.9897 74.0508 26.2177 74.2291 26.5013 74.1508C26.7369 74.0859 26.9549 73.785 26.8504 73.5328C25.9757 71.4136 24.8624 69.3603 23.4155 67.5777C22.8368 66.8648 22.1807 66.175 21.3955 65.6897C20.8308 65.341 20.0581 65.0501 19.3939 65.2717C18.9013 65.4359 18.7558 65.9705 18.7002 66.4327C18.6327 66.9934 18.6837 67.5672 18.7483 68.1254C18.9388 69.7768 19.3114 71.4076 19.7335 73.0133C20.1636 74.6491 20.6393 76.294 21.3054 77.851C21.412 78.1002 21.7771 78.1565 21.9896 78.0314C22.2462 77.8806 22.2762 77.5943 22.1692 77.3441Z" fill="#512516"/>
<path d="M61.8075 74.6245C62.2512 72.5661 63.0969 70.5801 64.1302 68.7538C64.5728 67.9716 65.0744 67.1778 65.6275 66.5287C65.8551 66.2614 66.0992 66.0042 66.3737 65.7851C66.2772 65.862 66.4428 65.7374 66.4703 65.7188C66.5228 65.6841 66.5768 65.6505 66.6323 65.6208C66.6738 65.5982 66.8259 65.548 66.6828 65.5917C66.7433 65.5731 66.8134 65.559 66.8714 65.5359C66.9389 65.5088 66.8309 65.5444 66.8159 65.5429C66.8259 65.5439 66.8834 65.545 66.8909 65.5399C66.9239 65.5173 67.0339 65.5992 66.8544 65.5304C66.8764 65.5389 66.9019 65.5379 66.9239 65.546C67.0254 65.5846 66.8004 65.5198 66.9079 65.5384C66.9214 65.5409 66.9464 65.56 66.9569 65.5686C67.0124 65.6133 66.8814 65.4766 66.9184 65.5394C66.9349 65.5676 66.9814 65.6103 67.0059 65.6319C66.8964 65.5369 66.9764 65.5887 67.0084 65.6439C67.0339 65.6881 67.0584 65.7329 67.0819 65.7781C67.0904 65.7941 67.0959 65.8117 67.1049 65.8273C67.1449 65.8981 67.0664 65.7092 67.1089 65.8394C67.1915 66.0921 67.2575 66.3433 67.3005 66.606C67.306 66.6392 67.334 66.8417 67.3175 66.7115C67.3285 66.796 67.338 66.8804 67.346 66.9648C67.3625 67.1306 67.3745 67.2969 67.3835 67.4637C67.4745 69.1623 67.3 70.9192 67.0484 72.5611C66.8959 73.5569 66.7043 74.5486 66.4568 75.5253C66.3497 75.9479 66.2317 76.3674 66.0962 76.7819C66.0332 76.9743 65.9666 77.1652 65.8951 77.3546C65.8641 77.436 65.8321 77.5164 65.7996 77.5973C65.7466 77.7279 65.8411 77.5043 65.7856 77.6304C65.7641 77.6792 65.7426 77.7284 65.7206 77.7766C65.6085 78.0233 65.6506 78.3177 65.9001 78.4639C66.1152 78.5905 66.4718 78.5317 66.5843 78.2836C67.2945 76.7231 67.6541 74.9968 67.9357 73.3132C68.2442 71.4694 68.4613 69.5768 68.3948 67.7038C68.3708 67.0336 68.3233 66.3292 68.1142 65.6876C67.9562 65.2028 67.6766 64.6944 67.1439 64.5653C66.5028 64.41 65.8896 64.8556 65.446 65.2646C64.7868 65.8725 64.2567 66.6352 63.7786 67.3898C63.1049 68.4539 62.5312 69.5838 62.0381 70.7429C61.541 71.9115 61.1109 73.1138 60.8428 74.3577C60.7068 74.9883 61.671 75.2575 61.8075 74.625V74.6245Z" fill="#512516"/>
<path d="M58.6112 63.0515C58.6252 62.8314 58.6432 62.6119 58.6667 62.3928C58.6772 62.2939 58.6912 62.1954 58.7017 62.0964C58.7177 61.9472 58.6627 62.3577 58.6972 62.1331C58.7072 62.0673 58.7167 62.0015 58.7272 61.9356C58.7968 61.4945 58.8858 61.0564 58.9923 60.6229C59.0998 60.1853 59.2254 59.7522 59.3669 59.3246C59.4309 59.1312 59.4984 58.9388 59.5695 58.7479C59.609 58.6413 59.6495 58.5353 59.691 58.4298C59.7115 58.3771 59.7325 58.3243 59.754 58.2716C59.7775 58.2128 59.8615 57.9616 59.77 58.2284C59.9116 57.8149 60.1341 57.4109 60.3322 57.0221C60.5387 56.6166 60.7603 56.2187 60.9953 55.8294C61.2239 55.451 61.4655 55.0808 61.7195 54.719C61.8491 54.5346 61.9831 54.3533 62.1181 54.1729C62.1541 54.1247 62.2042 54.0222 62.0846 54.2156C62.1131 54.1689 62.1541 54.1262 62.1887 54.083C62.2652 53.9865 62.3422 53.8906 62.4207 53.7956C62.9809 53.1148 63.5905 52.4743 64.2477 51.8874C64.3927 51.7583 64.5398 51.6317 64.6888 51.5076C64.7713 51.4393 64.8543 51.372 64.9384 51.3052C64.9549 51.2921 64.9719 51.2785 64.9884 51.2655C65.0331 51.2303 65.0331 51.2303 64.9884 51.2655C64.9437 51.3006 64.9437 51.301 64.9884 51.2665C65.0224 51.2408 65.0559 51.2152 65.0899 51.1901C65.4175 50.9454 65.7556 50.7148 66.1032 50.5003C66.4433 50.2903 66.7924 50.0959 67.1509 49.9195C67.3315 49.8306 67.5205 49.7582 67.6996 49.6673C67.4205 49.8095 67.7186 49.6618 67.7931 49.6326C67.8856 49.5965 67.9782 49.5618 68.0717 49.5286C68.4403 49.3965 68.8164 49.2855 69.198 49.198C69.3865 49.1548 69.5761 49.1177 69.7666 49.0865C69.8046 49.0805 69.8427 49.075 69.8807 49.0689C70.0472 49.0418 69.7986 49.08 69.7861 49.081C69.9007 49.074 70.0152 49.0539 70.1292 49.0433C70.5108 49.0096 70.8944 49.0016 71.2765 49.0212C71.4496 49.0302 71.6211 49.0473 71.7932 49.0644C72.0072 49.086 71.5436 49.0247 71.7567 49.0589C71.7947 49.0649 71.8332 49.0704 71.8712 49.0765C71.9862 49.0951 72.1007 49.1162 72.2148 49.1403C72.5919 49.2186 72.963 49.3252 73.3246 49.4578C73.4101 49.4889 73.4941 49.5231 73.5786 49.5558C73.7842 49.6351 73.3636 49.4578 73.5651 49.5497C73.6026 49.5668 73.6401 49.5829 73.6777 49.6C73.8672 49.6869 74.0538 49.7803 74.2363 49.8808C74.6189 50.0908 74.9855 50.329 75.3356 50.5902C75.3916 50.6319 75.5697 50.7163 75.3496 50.5993C75.3851 50.6184 75.4281 50.6616 75.4571 50.6857C75.5477 50.759 75.6372 50.8339 75.7252 50.9108C75.9157 51.0761 76.1008 51.2474 76.2818 51.4227C76.6174 51.7478 76.938 52.0894 77.2326 52.4522C77.2596 52.4853 77.2861 52.5195 77.3136 52.5526C77.4572 52.7285 77.1801 52.3688 77.3116 52.5496C77.3656 52.624 77.4206 52.6978 77.4732 52.7732C77.5902 52.9405 77.7007 53.1118 77.8037 53.2877C77.8868 53.4293 77.9648 53.574 78.0368 53.7212C78.0753 53.8001 78.1108 53.88 78.1473 53.9594C78.2258 54.1327 78.0723 53.7614 78.1158 53.885C78.1353 53.9403 78.1588 53.9946 78.1788 54.0498C78.2859 54.3432 78.3674 54.6462 78.4199 54.9542C78.4664 55.228 78.4074 54.7909 78.4199 54.9381C78.4264 55.0139 78.4359 55.0893 78.4414 55.1652C78.4519 55.3154 78.4559 55.4656 78.4534 55.6163C78.4509 55.7656 78.4414 55.9148 78.4264 56.0635C78.4234 56.0931 78.4194 56.1228 78.4164 56.1524C78.3999 56.3368 78.4609 55.8811 78.4284 56.063C78.4154 56.1368 78.4049 56.2107 78.3909 56.2845C78.3344 56.583 78.2564 56.8774 78.1623 57.1663C78.1168 57.3064 78.0673 57.4456 78.0148 57.5833C77.9898 57.6496 77.9633 57.7149 77.9373 57.7807C77.9063 57.8601 77.8182 57.9827 77.9653 57.7164C77.9423 57.7576 77.9273 57.8053 77.9083 57.848C77.6417 58.4555 77.3276 59.0408 77.002 59.6185C76.3108 60.8464 75.5667 62.0467 74.974 63.3278C74.2833 64.822 73.7967 66.3815 73.7112 68.0359C73.6907 68.4308 73.6972 68.8262 73.7257 69.2206C73.7637 69.7436 74.1583 70.251 74.7259 70.2254C75.2351 70.2023 75.7672 69.7818 75.7262 69.2206C75.6952 68.7966 75.6907 68.3715 75.7167 67.947C75.7282 67.7616 75.7472 67.5772 75.7672 67.3928C75.7757 67.315 75.8182 67.1783 75.7577 67.4591C75.7677 67.4124 75.7717 67.3637 75.7792 67.3165C75.7957 67.2125 75.8137 67.109 75.8332 67.006C75.9768 66.2529 76.2073 65.5193 76.4949 64.8099C76.5994 64.5517 76.4119 64.9998 76.5219 64.7441C76.5584 64.6597 76.5954 64.5758 76.6329 64.4919C76.712 64.3166 76.794 64.1427 76.878 63.9704C77.0415 63.6358 77.2141 63.3062 77.3921 62.9792C77.7407 62.3401 78.1103 61.7131 78.4729 61.0821C79.1636 59.8798 79.8583 58.6323 80.2144 57.2818C80.6035 55.8067 80.4829 54.3377 79.8738 52.944C79.5252 52.1462 79.0011 51.4303 78.4334 50.7761C77.7542 49.9934 76.972 49.293 76.1268 48.6961C74.6574 47.6587 72.9005 47.0573 71.104 47.004C67.5451 46.8985 64.2292 48.9152 61.8441 51.4262C59.2409 54.1669 57.3369 57.7692 56.7777 61.5327C56.7027 62.0371 56.6427 62.5426 56.6102 63.0515C56.5767 63.577 57.0938 64.0794 57.6104 64.0563C58.1806 64.0307 58.5752 63.6147 58.6107 63.0515H58.6112Z" fill="#512516"/>
<path d="M19.7285 111.274C20.3592 113.394 21.1039 115.485 21.8786 117.555C23.5275 121.963 25.3945 126.317 27.6921 130.426C28.8739 132.539 30.1818 134.582 31.6957 136.472C32.7414 137.777 33.9057 138.859 35.3606 139.695C38.6295 141.572 42.4615 142.36 46.1579 142.823C50.3665 143.349 54.6507 143.355 58.8693 142.94C62.7078 142.561 66.6193 141.892 70.2117 140.433C71.6936 139.832 73.107 139.112 74.3583 138.105C75.5026 137.183 76.3508 135.921 77.1556 134.705C79.4117 131.294 81.2336 127.586 82.9701 123.888C84.7956 120.001 86.489 116.051 88.1129 112.075C89.0477 109.787 89.9604 107.489 90.8346 105.177C90.8757 105.069 90.9167 104.96 90.9572 104.852C91.1467 104.343 90.7461 103.75 90.2585 103.616C89.6978 103.461 89.2182 103.808 89.0282 104.317C88.4275 105.928 87.7969 107.528 87.1597 109.125C86.493 110.796 85.8123 112.462 85.1166 114.121C85.1136 114.129 85.0156 114.362 85.0776 114.214C85.1402 114.066 85.0411 114.301 85.0381 114.308C84.9926 114.416 84.9471 114.523 84.9016 114.631C84.7991 114.874 84.696 115.117 84.593 115.359C84.3875 115.842 84.1799 116.325 83.9713 116.807C83.5407 117.803 83.1041 118.795 82.6605 119.784C80.918 123.666 79.0896 127.529 76.9555 131.211C76.5014 131.995 76.0313 132.769 75.5361 133.527C75.3171 133.862 75.0925 134.194 74.8615 134.521C74.7469 134.683 74.6304 134.844 74.5124 135.004C74.4609 135.074 74.4083 135.143 74.3568 135.212C74.3153 135.268 74.2328 135.395 74.3928 135.166C74.3608 135.212 74.3243 135.255 74.2903 135.299C73.9087 135.785 73.4971 136.23 73.0195 136.623C72.9835 136.653 72.7814 136.817 72.9315 136.696C73.0795 136.577 72.8769 136.736 72.8364 136.767C72.7009 136.867 72.5624 136.964 72.4223 137.059C72.1262 137.257 71.8217 137.442 71.5106 137.615C71.1955 137.791 70.8739 137.956 70.5483 138.111C70.3688 138.196 70.1882 138.279 70.0067 138.359C69.8937 138.409 69.7701 138.46 69.9662 138.378C69.8521 138.426 69.7381 138.473 69.6231 138.519C68.8334 138.837 68.0262 139.112 67.2105 139.356C65.381 139.902 63.507 140.294 61.6215 140.586C61.3904 140.622 61.1589 140.656 60.9278 140.688C60.8763 140.696 60.8243 140.703 60.7728 140.71C60.5072 140.748 60.9933 140.682 60.7273 140.716C60.5967 140.733 60.4662 140.75 60.3357 140.766C59.808 140.832 59.2799 140.89 58.7507 140.942C57.7015 141.043 56.6492 141.116 55.5959 141.162C53.4919 141.253 51.3828 141.238 49.2808 141.104C48.251 141.039 47.2222 140.945 46.198 140.818C46.0819 140.803 45.9664 140.788 45.8504 140.773C45.5968 140.741 46.0074 140.797 45.8474 140.773C45.7838 140.764 45.7198 140.756 45.6558 140.747C45.4027 140.711 45.1497 140.672 44.8971 140.632C44.4135 140.555 43.9314 140.469 43.4512 140.374C41.6818 140.025 39.9263 139.557 38.2519 138.879C38.1634 138.843 38.0748 138.806 37.9868 138.769C38.2789 138.891 37.9363 138.746 37.8793 138.721C37.6912 138.637 37.5047 138.55 37.3196 138.46C36.972 138.291 36.6299 138.111 36.2959 137.916C35.9788 137.731 35.6682 137.534 35.3681 137.322C35.3011 137.275 35.2346 137.227 35.1686 137.178C35.1321 137.151 35.0965 137.123 35.06 137.097C34.9285 137.001 35.1281 137.152 35.1346 137.155C34.9905 137.092 34.845 136.922 34.7269 136.818C34.0823 136.255 33.5361 135.588 33.006 134.918C32.9685 134.871 32.7219 134.552 32.848 134.717C32.7609 134.603 32.6739 134.488 32.5884 134.373C32.4143 134.14 32.2438 133.903 32.0758 133.665C31.7492 133.203 31.4331 132.733 31.126 132.257C29.8152 130.226 28.6619 128.094 27.6011 125.921C27.0754 124.844 26.5738 123.756 26.0917 122.66C25.9772 122.4 25.8641 122.139 25.7521 121.879C25.6996 121.757 25.6471 121.634 25.5951 121.512C25.5666 121.444 25.5375 121.377 25.509 121.309C25.492 121.268 25.475 121.228 25.458 121.187C25.502 121.293 25.502 121.292 25.457 121.185C25.2485 120.686 25.0429 120.185 24.8409 119.683C23.7181 116.887 22.6863 114.048 21.7906 111.17C21.7461 111.027 21.7015 110.883 21.6585 110.739C21.504 110.219 20.9568 109.891 20.4282 110.037C19.9146 110.179 19.5745 110.751 19.7295 111.273L19.7285 111.274Z" fill="#512516"/>
<path d="M82.4289 130.957C83.7513 131.261 85.0661 131.6 86.3625 132.002C86.9331 132.179 87.4998 132.368 88.0609 132.572C88.3215 132.667 88.5811 132.766 88.8386 132.869C89.1032 132.974 89.2217 133.024 89.4283 133.115C90.2485 133.478 91.0542 133.888 91.7949 134.397C91.8739 134.452 91.9519 134.508 92.0295 134.564C92.218 134.7 91.9809 134.515 92.1085 134.624C92.2405 134.736 92.3736 134.846 92.4991 134.965C92.6151 135.076 92.7266 135.191 92.8317 135.312C92.8742 135.361 92.9142 135.412 92.9562 135.462C92.8197 135.298 92.9227 135.419 92.9827 135.51C93.0587 135.625 93.1147 135.75 93.1863 135.866C93.2753 136.011 93.1263 135.672 93.1743 135.832C93.1953 135.901 93.2228 135.968 93.2423 136.039C93.2588 136.098 93.2683 136.161 93.2848 136.22C93.3398 136.42 93.2893 136.042 93.2803 136.189C93.2743 136.286 93.2833 136.39 93.2813 136.488C93.2773 136.744 93.3458 136.247 93.2788 136.502C93.2573 136.584 93.2403 136.666 93.2143 136.746C93.2013 136.787 93.1838 136.826 93.1713 136.868C93.1243 137.024 93.2463 136.721 93.2143 136.766C93.1608 136.841 93.1283 136.943 93.0812 137.024C93.0372 137.1 92.9882 137.172 92.9402 137.245C92.9357 137.252 92.8507 137.356 92.8547 137.364C92.8342 137.323 93.0267 137.159 92.8767 137.329C92.7337 137.492 92.5871 137.648 92.4276 137.795C92.348 137.868 92.2665 137.939 92.183 138.008C92.1365 138.047 92.0885 138.083 92.0425 138.122C92.1945 137.995 92.141 138.048 92.0325 138.127C91.8169 138.283 91.5964 138.433 91.3698 138.573C90.8497 138.894 90.3055 139.176 89.7509 139.432C89.6083 139.498 89.4653 139.563 89.3213 139.625C89.2342 139.663 89.0682 139.731 89.2512 139.656C89.1572 139.695 89.0632 139.734 88.9687 139.772C88.6226 139.912 88.274 140.044 87.9229 140.171C86.283 140.761 84.5995 141.226 82.9046 141.626C78.5104 142.665 74.0828 143.278 69.6101 143.704C64.0666 144.233 58.4937 144.45 52.9257 144.426C47.4303 144.403 41.9308 144.144 36.4639 143.568C32.1298 143.112 27.7921 142.465 23.536 141.384C21.9166 140.972 20.3082 140.497 18.7508 139.888C18.5942 139.826 18.4392 139.763 18.2836 139.7C18.0631 139.61 18.3712 139.74 18.2106 139.67C18.1206 139.63 18.0306 139.592 17.9411 139.551C17.643 139.418 17.3479 139.279 17.0573 139.13C16.5547 138.874 16.0636 138.593 15.5999 138.271C15.4954 138.199 15.3964 138.116 15.2899 138.046C15.2594 138.026 15.4724 138.196 15.3064 138.057C15.2609 138.019 15.2143 137.982 15.1693 137.943C14.9998 137.798 14.8372 137.645 14.6862 137.481C14.6177 137.406 14.5572 137.316 14.4847 137.246C14.4581 137.22 14.6372 137.463 14.5257 137.297C14.4987 137.257 14.4701 137.218 14.4436 137.178C14.3926 137.1 14.3446 137.021 14.3006 136.939C14.2791 136.899 14.2611 136.858 14.2396 136.819C14.1506 136.658 14.2781 136.928 14.2721 136.903C14.2376 136.756 14.1926 136.553 14.1351 136.415C14.1181 136.374 14.1511 136.71 14.1511 136.524C14.1511 136.483 14.1456 136.442 14.1441 136.4C14.1421 136.319 14.1826 136.015 14.1461 136.193C14.1056 136.392 14.1511 136.179 14.1631 136.137C14.1781 136.081 14.1911 136.026 14.2081 135.971C14.2251 135.917 14.2551 135.86 14.2661 135.806C14.2366 135.949 14.1831 135.977 14.2596 135.835C14.3191 135.724 14.3786 135.615 14.4481 135.51C14.4842 135.455 14.5272 135.404 14.5612 135.349C14.4681 135.5 14.4797 135.448 14.5692 135.346C14.7682 135.121 14.9803 134.911 15.2103 134.717C15.2729 134.664 15.3364 134.613 15.4004 134.562C15.2449 134.686 15.3799 134.58 15.4604 134.522C15.6059 134.416 15.755 134.316 15.9065 134.219C16.6142 133.765 17.3699 133.392 18.1391 133.056C18.2937 132.989 18.0221 133.105 18.1801 133.038C18.2276 133.018 18.2751 132.999 18.3232 132.979C18.4367 132.932 18.5502 132.887 18.6642 132.842C18.9003 132.748 19.1379 132.658 19.3764 132.571C19.8871 132.385 20.4022 132.212 20.9203 132.049C22.0871 131.683 23.269 131.367 24.4588 131.085C25.7876 130.769 27.1265 130.497 28.4703 130.252C29.002 130.155 29.303 129.505 29.169 129.016C29.015 128.454 28.4718 128.217 27.9387 128.314C25.296 128.796 22.6613 129.378 20.1016 130.203C18.2411 130.803 16.3321 131.513 14.7002 132.614C13.6124 133.347 12.4656 134.362 12.2101 135.723C12.0035 136.822 12.3831 137.821 13.0703 138.668C13.7655 139.525 14.7377 140.164 15.6975 140.684C17.0433 141.413 18.4892 141.967 19.9406 142.442C23.9041 143.74 28.0492 144.485 32.1713 145.055C37.6352 145.811 43.1427 146.216 48.6551 146.37C54.5451 146.534 60.4477 146.422 66.3252 145.992C71.322 145.627 76.3233 145.047 81.2366 144.049C84.6675 143.351 88.178 142.487 91.3223 140.898C93.0622 140.02 95.3703 138.511 95.2853 136.27C95.2258 134.695 94.0525 133.532 92.8382 132.689C91.0822 131.469 88.9812 130.718 86.9576 130.086C85.6408 129.675 84.3044 129.33 82.9606 129.021C82.4344 128.9 81.8778 129.183 81.7303 129.723C81.5917 130.229 81.8998 130.837 82.4289 130.959V130.957Z" fill="#512516"/>
<path d="M76.5334 134.105C77.7657 134.53 79.0876 135.032 80.1033 135.879C80.4604 136.176 80.7195 136.442 80.904 136.842C80.9416 136.923 80.8675 136.735 80.916 136.873C80.9311 136.916 80.9456 136.959 80.9581 137.003C80.9701 137.046 80.9796 137.09 80.9891 137.134C81.0201 137.275 80.9861 137.033 80.9956 137.176C81.0006 137.245 81.0001 137.314 80.9996 137.383C80.9996 137.407 80.9921 137.434 80.9941 137.458C81.0006 137.538 81.0261 137.325 80.9951 137.449C80.9701 137.549 80.9431 137.647 80.9146 137.746C80.8795 137.867 80.9641 137.657 80.904 137.773C80.8745 137.83 80.8475 137.888 80.8155 137.944C80.787 137.993 80.757 138.041 80.725 138.088C80.703 138.121 80.58 138.279 80.6805 138.154C80.5935 138.261 80.5029 138.364 80.4059 138.462C80.3164 138.551 80.2229 138.636 80.1263 138.717C80.0988 138.741 79.9233 138.879 80.0278 138.799C79.9568 138.854 79.8843 138.907 79.8113 138.958C79.5337 139.153 79.2421 139.327 78.9435 139.488C78.1758 139.902 77.5007 140.173 76.6734 140.462C75.6792 140.811 74.6634 141.096 73.6401 141.345C71.1265 141.958 68.5628 142.361 65.9941 142.651C59.579 143.376 53.0673 143.46 46.6296 143C43.8003 142.798 40.9751 142.483 38.1829 141.977C36.0133 141.584 33.8407 141.092 31.7682 140.326C31.0095 140.046 30.3348 139.759 29.6051 139.336C29.3245 139.174 29.0515 138.997 28.7934 138.8C28.8974 138.879 28.7219 138.741 28.6949 138.718C28.6414 138.673 28.5883 138.627 28.5368 138.579C28.4323 138.482 28.3318 138.381 28.2388 138.274C28.2133 138.244 28.0862 138.079 28.1817 138.209C28.1527 138.169 28.1237 138.13 28.0962 138.089C28.0282 137.988 27.9732 137.882 27.9172 137.774C27.8607 137.664 27.9432 137.876 27.8977 137.722C27.8832 137.672 27.8657 137.624 27.8527 137.574C27.8402 137.525 27.8362 137.473 27.8216 137.425C27.7946 137.336 27.8191 137.551 27.8267 137.458C27.8287 137.435 27.8216 137.407 27.8211 137.383C27.8211 137.31 27.8191 137.237 27.8262 137.164C27.8161 137.272 27.8347 137.117 27.8377 137.106C27.8492 137.059 27.8602 137.011 27.8747 136.964C27.9252 136.798 28.0192 136.621 28.1632 136.432C28.4368 136.072 28.8914 135.723 29.3045 135.462C29.9122 135.077 30.5664 134.767 31.2315 134.497C31.4821 134.395 31.6582 134.162 31.5806 133.879C31.5151 133.64 31.2175 133.426 30.9655 133.528C29.7181 134.034 28.3168 134.652 27.4481 135.732C26.9444 136.359 26.6618 137.16 26.9204 137.952C27.3285 139.201 28.6189 139.988 29.7251 140.538C31.5771 141.458 33.6032 142.022 35.6107 142.478C38.3724 143.105 41.1866 143.501 44.0029 143.781C47.3383 144.112 50.6916 144.264 54.0425 144.275C57.4389 144.285 60.8378 144.152 64.2202 143.839C67.0674 143.574 69.9127 143.192 72.7094 142.589C74.7809 142.141 76.861 141.584 78.789 140.685C79.9158 140.16 81.2651 139.419 81.7948 138.219C82.6645 136.25 80.5325 134.779 79.0171 134.039C78.2989 133.688 77.5527 133.396 76.7985 133.135C76.1883 132.925 75.9262 133.895 76.5324 134.104L76.5334 134.105Z" fill="#512516"/>
<path d="M53.7149 147.224C48.5826 147.223 43.4472 147.048 38.3329 146.608C36.2809 146.431 34.2418 146.173 32.1963 145.938C32.5194 145.975 32.1583 145.933 32.0843 145.923C31.9802 145.908 31.8767 145.894 31.7727 145.879C31.5276 145.845 31.2826 145.81 31.038 145.773C30.6039 145.71 30.1703 145.643 29.7371 145.573C28.9184 145.442 28.1012 145.301 27.2865 145.147C24.7723 144.675 22.2677 144.104 19.83 143.321C19.0168 143.06 18.2121 142.772 17.4229 142.445C17.2229 142.362 17.6415 142.539 17.5304 142.491C17.4914 142.474 17.4524 142.457 17.4129 142.44C17.3344 142.406 17.2559 142.372 17.1779 142.336C17.0398 142.274 16.9028 142.21 16.7667 142.143C16.5342 142.03 16.3046 141.91 16.0821 141.779C15.919 141.683 15.765 141.577 15.6109 141.467C15.7355 141.556 15.8475 141.664 15.7185 141.548C15.6099 141.451 15.5024 141.353 15.3999 141.249C15.3054 141.152 15.2138 141.052 15.1263 140.949C15.0898 140.905 15.0383 140.859 15.0118 140.81C15.1288 141.029 15.0343 140.838 14.9978 140.786C14.8527 140.582 14.7217 140.368 14.6052 140.147C14.5442 140.03 14.4887 139.911 14.4341 139.792C14.3561 139.621 14.4646 139.846 14.4601 139.853C14.4681 139.842 14.3981 139.693 14.3916 139.675C14.3071 139.443 14.2366 139.206 14.1796 138.966C14.1346 138.776 14.1005 138.584 14.0685 138.391C14.034 138.181 14.0965 138.645 14.0745 138.436C14.0685 138.381 14.062 138.326 14.057 138.271C14.047 138.165 14.039 138.059 14.033 137.953C14.0145 137.612 14.018 137.269 14.043 136.928C14.053 136.794 14.0675 136.661 14.0825 136.526C14.098 136.389 14.0335 136.853 14.0715 136.613C14.0795 136.563 14.087 136.512 14.096 136.462C14.1111 136.376 14.1266 136.29 14.1476 136.205C14.2736 135.696 13.985 135.092 13.4489 134.969C12.9312 134.85 12.3536 135.125 12.2186 135.671C11.5529 138.364 12.4051 141.699 14.7502 143.311C15.1628 143.594 15.6169 143.819 16.0706 144.028C16.8463 144.384 17.643 144.696 18.4482 144.976C20.7323 145.771 23.0914 146.349 25.458 146.832C29.1295 147.582 32.851 148.088 36.5784 148.456C41.5637 148.948 46.5736 149.173 51.5814 149.223C52.2926 149.23 53.0032 149.234 53.7144 149.234C54.2376 149.234 54.7387 148.772 54.7147 148.229C54.6902 147.685 54.2751 147.224 53.7144 147.224L53.7149 147.224Z" fill="#512516"/>
<path d="M53.7149 149.233C58.9218 149.232 64.1322 149.053 69.32 148.598C73.1845 148.259 77.044 147.775 80.8565 147.051C83.3737 146.573 85.8819 145.994 88.32 145.198C89.7229 144.74 91.1777 144.235 92.4446 143.462C94.9577 141.927 95.7424 138.686 95.2623 135.928C95.2473 135.842 95.2318 135.756 95.2108 135.671C95.0848 135.16 94.4856 134.805 93.9805 134.969C93.4538 135.14 93.1468 135.658 93.2818 136.205C93.3048 136.297 93.3213 136.391 93.3373 136.485C93.3443 136.527 93.3508 136.57 93.3578 136.612C93.3948 136.846 93.3368 136.432 93.3468 136.526C93.3623 136.674 93.3793 136.82 93.3893 136.969C93.4128 137.313 93.4143 137.66 93.3933 138.005C93.3878 138.093 93.3808 138.182 93.3723 138.271C93.3668 138.326 93.3603 138.38 93.3548 138.435C93.3328 138.645 93.3953 138.181 93.3608 138.391C93.3253 138.603 93.2873 138.815 93.2358 139.024C93.1813 139.244 93.1152 139.462 93.0377 139.675C93.0197 139.724 92.9962 139.773 92.9812 139.823C92.9397 139.96 93.0872 139.592 92.9952 139.792C92.9402 139.911 92.8852 140.03 92.8242 140.147C92.7076 140.368 92.5766 140.582 92.4316 140.786C92.4181 140.806 92.4041 140.825 92.3906 140.843C92.3255 140.93 92.3345 140.919 92.4181 140.81C92.3981 140.817 92.346 140.898 92.327 140.921C92.2165 141.053 92.0995 141.18 91.9769 141.302C91.8909 141.387 91.8014 141.468 91.7119 141.548C91.6984 141.56 91.6839 141.571 91.6699 141.582C91.5518 141.685 91.9189 141.396 91.8104 141.473C91.7394 141.523 91.6699 141.575 91.5968 141.623C91.1672 141.907 90.7001 142.134 90.232 142.344C90.164 142.375 90.096 142.405 90.0274 142.435C89.9849 142.453 89.9419 142.471 89.8994 142.49C89.7869 142.539 90.1065 142.4 90.0729 142.417C90.0444 142.431 90.0139 142.442 89.9844 142.454C89.8124 142.525 89.6398 142.595 89.4668 142.662C89.0677 142.818 88.6651 142.963 88.26 143.102C85.9709 143.883 83.6103 144.455 81.2416 144.932C79.6132 145.261 77.9748 145.54 76.3308 145.781C76.1168 145.813 75.9022 145.843 75.6877 145.873C75.5737 145.889 75.4596 145.905 75.3456 145.921C75.2931 145.928 75.2411 145.935 75.1885 145.943C74.93 145.978 75.3766 145.918 75.17 145.945C74.6949 146.008 74.2193 146.069 73.7437 146.127C72.7094 146.253 71.6731 146.365 70.6359 146.466C65.7216 146.942 60.7843 147.162 55.848 147.212C55.1368 147.219 54.4261 147.222 53.7149 147.222C53.1918 147.222 52.6907 147.684 52.7147 148.227C52.7392 148.771 53.1543 149.232 53.7149 149.232V149.233Z" fill="#512516"/>
<path d="M89.3212 108.509C89.4478 108.451 89.0367 108.623 89.1442 108.583C89.1992 108.563 89.2532 108.54 89.3077 108.519C89.4868 108.452 89.6693 108.393 89.8534 108.339C90.1205 108.262 90.3915 108.2 90.6656 108.154C90.7506 108.14 90.9907 108.126 90.6666 108.15C90.7406 108.145 90.8146 108.133 90.8882 108.126C91.0612 108.11 91.2352 108.101 91.4088 108.1C91.5688 108.099 91.7294 108.105 91.8889 108.119C91.9294 108.123 91.9699 108.128 92.0105 108.132C92.1845 108.148 91.9404 108.129 91.9274 108.121C91.9994 108.164 92.1495 108.16 92.233 108.179C92.3976 108.218 92.5601 108.265 92.7181 108.324C92.7091 108.321 92.8372 108.372 92.8382 108.371C92.8182 108.397 92.6256 108.268 92.8067 108.363C92.8947 108.409 92.9832 108.453 93.0687 108.504C93.1462 108.55 93.2198 108.603 93.2958 108.651C93.4868 108.773 93.1763 108.545 93.2868 108.641C93.3223 108.672 93.3593 108.701 93.3948 108.733C93.4618 108.791 93.5278 108.853 93.5894 108.918C93.6254 108.955 93.7494 109.112 93.6184 108.94C93.4873 108.769 93.6519 108.999 93.6849 109.058C93.7084 109.1 93.7284 109.144 93.7514 109.187C93.8489 109.37 93.6699 108.953 93.7224 109.117C93.7884 109.325 93.8444 109.527 93.8849 109.742C93.9265 109.964 93.8649 109.544 93.8779 109.675C93.8834 109.731 93.8904 109.786 93.8954 109.841C93.9069 109.973 93.914 110.105 93.917 110.236C93.9235 110.509 93.9139 110.781 93.8944 111.052C93.8844 111.19 93.8714 111.328 93.8564 111.465C93.8474 111.545 93.8374 111.625 93.8279 111.704C93.8129 111.832 93.8614 111.471 93.8419 111.599C93.8349 111.645 93.8289 111.69 93.8219 111.736C93.6069 113.163 93.2053 114.563 92.7321 115.924C92.6046 116.291 92.4706 116.656 92.3305 117.019C92.264 117.191 92.1965 117.363 92.1275 117.534C92.0885 117.63 92.0495 117.727 92.0095 117.823C91.9919 117.865 91.9739 117.908 91.9564 117.951C91.9079 118.067 92.037 117.761 91.9629 117.935C91.6519 118.661 91.3218 119.379 90.9652 120.084C90.6271 120.752 90.2675 121.409 89.8794 122.05C89.5343 122.62 89.1472 123.153 88.7716 123.7C88.9552 123.433 88.7826 123.684 88.7371 123.74C88.6891 123.798 88.6406 123.857 88.5916 123.915C88.4785 124.048 88.3625 124.178 88.244 124.306C88.0119 124.556 87.7693 124.797 87.5203 125.029C87.2537 125.279 86.9786 125.519 86.6981 125.751C86.567 125.86 86.4345 125.967 86.301 126.072C86.3005 126.072 86.2119 126.153 86.1999 126.152C86.2424 126.155 86.3615 126.028 86.2494 126.113C86.1634 126.178 86.0779 126.244 85.9914 126.308C84.8126 127.19 83.5627 127.974 82.2834 128.699C81.2061 129.31 80.1048 129.879 78.987 130.411C78.5954 130.597 78.2018 130.778 77.8057 130.955C77.6752 131.013 77.5447 131.07 77.4136 131.127C77.3681 131.146 77.3226 131.166 77.2771 131.185C77.121 131.253 77.5762 131.06 77.3916 131.137C77.3636 131.148 77.3356 131.16 77.3071 131.172C76.8245 131.37 76.4284 131.849 76.6084 132.408C76.759 132.875 77.3201 133.322 77.8387 133.11C79.4592 132.445 81.0396 131.669 82.577 130.832C83.8988 130.112 85.1922 129.334 86.4215 128.464C87.6738 127.579 88.8996 126.606 89.9119 125.445C90.8882 124.324 91.6709 123.03 92.369 121.721C93.1673 120.224 93.8549 118.662 94.4421 117.07C94.9702 115.639 95.4213 114.166 95.6869 112.661C95.904 111.432 96.066 110.1 95.7434 108.872C95.3628 107.423 94.008 106.468 92.5821 106.205C91.3028 105.968 89.9444 106.131 88.7316 106.599C88.5901 106.654 88.45 106.712 88.312 106.774C87.8329 106.99 87.6823 107.727 87.9534 108.149C88.273 108.646 88.8096 108.74 89.3217 108.51L89.3212 108.509Z" fill="#512516"/>
<path d="M87.3147 111.019C87.3842 111.062 87.4522 111.107 87.5183 111.156C87.3602 111.039 87.4938 111.14 87.5338 111.178C87.5563 111.2 87.5763 111.224 87.5988 111.245C87.6878 111.329 87.5898 111.353 87.5213 111.14C87.5383 111.192 87.5933 111.26 87.6228 111.307C87.7323 111.484 87.5263 111.029 87.6158 111.29C87.6398 111.36 87.6593 111.431 87.6758 111.503C87.7018 111.616 87.6933 111.875 87.6868 111.509C87.6898 111.684 87.7148 111.857 87.7123 112.033C87.7098 112.229 87.6953 112.425 87.6733 112.619C87.6648 112.696 87.6223 112.881 87.6823 112.56C87.6723 112.613 87.6668 112.667 87.6583 112.719C87.6408 112.829 87.6208 112.938 87.5993 113.047C87.5053 113.522 87.3782 113.99 87.2322 114.452C87.0716 114.959 86.8876 115.458 86.6855 115.95C86.663 116.005 86.597 116.224 86.6805 115.964C86.66 116.028 86.6255 116.092 86.5985 116.154C86.543 116.281 86.4865 116.408 86.429 116.534C86.3129 116.788 86.1929 117.039 86.0679 117.289C85.5878 118.248 85.0471 119.182 84.4245 120.055C84.3414 120.172 84.2559 120.287 84.1704 120.402C84.0699 120.536 84.2054 120.352 84.2174 120.34C84.1634 120.394 84.1194 120.465 84.0714 120.524C83.8528 120.794 83.6192 121.05 83.3687 121.29C83.2446 121.408 83.1176 121.524 82.9881 121.636C82.9216 121.693 82.854 121.75 82.786 121.806C82.7585 121.828 82.4739 122.055 82.637 121.928C82.2929 122.195 81.9343 122.443 81.5707 122.682C81.1336 122.969 80.909 123.585 81.2116 124.057C81.4932 124.495 82.1118 124.725 82.58 124.417C83.2727 123.962 83.9478 123.469 84.565 122.914C85.0666 122.462 85.4907 121.953 85.8978 121.416C86.576 120.521 87.1562 119.55 87.6698 118.552C88.229 117.465 88.7196 116.333 89.1022 115.171C89.4263 114.186 89.6833 113.145 89.7118 112.104C89.7243 111.648 89.6898 111.154 89.5333 110.723C89.2997 110.079 88.9041 109.649 88.3255 109.284C87.8814 109.004 87.2037 109.175 86.9571 109.644C86.697 110.138 86.8421 110.72 87.3157 111.019H87.3147Z" fill="#512516"/>
<path d="M40.749 113.096C41.0166 112.471 41.3797 111.93 41.9028 111.496C42.2639 111.196 42.725 110.971 43.1662 110.837C43.3722 110.774 43.5818 110.726 43.7943 110.692C43.8233 110.687 43.9934 110.665 43.8438 110.683C43.8894 110.677 43.9349 110.672 43.9809 110.667C44.0629 110.659 44.1444 110.653 44.2269 110.649C44.3885 110.641 44.5535 110.638 44.7146 110.654C44.9836 110.681 45.2147 110.404 45.2147 110.151C45.2147 109.857 44.9846 109.676 44.7146 109.649C44.292 109.606 43.8478 109.663 43.4332 109.739C42.54 109.904 41.6923 110.316 41.0246 110.936C40.531 111.395 40.1504 111.971 39.8858 112.59C39.7793 112.839 39.8123 113.128 40.0653 113.277C40.2764 113.401 40.6425 113.347 40.7495 113.097L40.749 113.096Z" fill="#512516"/>
<path d="M36.3644 110.329C36.969 110.254 37.5102 110.286 38.0713 110.513C38.2069 110.567 38.4924 110.732 38.672 110.858C38.6985 110.877 38.7245 110.896 38.75 110.916C38.712 110.886 38.7155 110.89 38.761 110.926C38.797 110.956 38.8325 110.986 38.8675 111.018C38.9521 111.093 39.0326 111.172 39.1101 111.255C39.1831 111.332 39.2516 111.413 39.3197 111.495C39.4062 111.6 39.2611 111.414 39.3397 111.521C39.3702 111.562 39.4002 111.603 39.4292 111.646C39.5207 111.778 39.6052 111.914 39.6823 112.056C39.7358 112.154 39.7803 112.256 39.8303 112.356C39.8773 112.449 39.7763 112.221 39.8203 112.332C39.8248 112.343 39.8293 112.355 39.8333 112.366C39.9248 112.621 40.1739 112.793 40.4485 112.717C40.694 112.649 40.8896 112.355 40.7975 112.099C40.586 111.509 40.2174 110.96 39.7868 110.512C38.8925 109.581 37.6367 109.166 36.3639 109.323C36.0958 109.356 35.8638 109.53 35.8638 109.825C35.8638 110.071 36.0938 110.361 36.3639 110.328L36.3644 110.329Z" fill="#512516"/>
<path d="M28.7914 86.3247C26.0847 85.9127 23.7711 86.3684 23.447 88.5152C23.1229 90.662 25.0549 92.7364 27.7616 93.1489C30.4683 93.5609 32.9255 92.1551 33.2496 90.0083C33.5737 87.8615 31.4986 86.7371 28.7914 86.3252V86.3247ZM32.1408 88.9598C32.1408 89.0759 32.1113 89.1844 32.0533 89.2849L31.9532 89.415C31.8732 89.4949 31.7792 89.5501 31.6707 89.5808C31.6136 89.5883 31.5571 89.5964 31.5001 89.6039C31.4121 89.6074 31.3296 89.5888 31.253 89.5486C31.1735 89.5225 31.105 89.4783 31.047 89.4155C30.9845 89.3572 30.9405 89.2879 30.9145 89.2085C30.8744 89.1316 30.8559 89.0492 30.8594 88.9603V88.9266C30.8594 88.8106 30.8889 88.7021 30.947 88.6016C30.9805 88.5584 31.014 88.5147 31.047 88.4715C31.127 88.3916 31.221 88.3363 31.3296 88.3057C31.3866 88.2981 31.4431 88.2901 31.5001 88.2826C31.5881 88.279 31.6707 88.2976 31.7472 88.3378C31.8267 88.3639 31.8952 88.4082 31.9532 88.471C32.0157 88.5292 32.0598 88.5986 32.0858 88.6779C32.1258 88.7548 32.1443 88.8372 32.1408 88.9261V88.9598Z" fill="#512516"/>
<path d="M51.6744 90.4575C51.6304 88.2865 49.3953 87.5329 46.6581 87.5887C43.9209 87.6445 41.7178 88.4885 41.7618 90.6594C41.8058 92.8303 44.0599 94.5451 46.7976 94.4893C49.5348 94.4335 51.7184 92.6284 51.6744 90.4575ZM44.3565 90.1892L44.2565 90.3193C44.1984 90.3821 44.1294 90.4263 44.0504 90.4524C43.9739 90.4926 43.8919 90.5112 43.8033 90.5077C43.7153 90.5112 43.6328 90.4926 43.5563 90.4524C43.4768 90.4263 43.4082 90.3821 43.3502 90.3193L43.3167 90.2856C43.2372 90.2053 43.1822 90.1108 43.1517 90.0018C43.1442 89.9445 43.1362 89.8877 43.1287 89.8305C43.1287 89.7144 43.1582 89.6059 43.2162 89.5054C43.2497 89.4622 43.2832 89.4185 43.3162 89.3753C43.3742 89.3125 43.4432 89.2683 43.5223 89.2421C43.5988 89.2019 43.6808 89.1834 43.7693 89.1869C43.8573 89.1834 43.9399 89.2019 44.0164 89.2421C44.0959 89.2683 44.1644 89.3125 44.2224 89.3753C44.2335 89.3863 44.2445 89.3974 44.256 89.4089C44.3355 89.4893 44.3905 89.5838 44.421 89.6928C44.4285 89.7501 44.4365 89.8068 44.444 89.8641C44.444 89.9802 44.4145 90.0887 44.3565 90.1892Z" fill="#512516"/>
<path d="M33.1495 98.3564C34.1173 98.5779 35.2541 98.6643 36.0758 97.9987C36.3584 97.7696 36.6295 97.4063 36.6895 97.035C36.733 96.7677 36.6204 96.4944 36.3404 96.4171C36.1018 96.3512 35.7687 96.4985 35.7252 96.7677C35.7222 96.7878 35.7177 96.8084 35.7112 96.8275C35.7037 96.8496 35.6962 96.8727 35.6902 96.8954C35.6592 97.0049 35.7137 96.8572 35.6987 96.8793C35.6562 96.9421 35.6072 97.0265 35.5747 97.0948C35.5402 97.1667 35.6372 97.029 35.5962 97.0672C35.5757 97.0863 35.5602 97.1114 35.5407 97.131C35.5012 97.1712 35.4601 97.2084 35.4196 97.247C35.3546 97.3083 35.4817 97.2058 35.4296 97.2395C35.4051 97.2556 35.3821 97.2727 35.3576 97.2882C35.2941 97.3289 35.2271 97.3636 35.1591 97.3953C35.2586 97.349 35.0775 97.4224 35.041 97.4334C34.9495 97.4611 34.8555 97.4822 34.761 97.4972C34.8315 97.4857 34.735 97.5008 34.7094 97.5028C34.6624 97.5068 34.6154 97.5103 34.5684 97.5128C34.4544 97.5183 34.3404 97.5168 34.2268 97.5113C33.9518 97.4977 33.6847 97.4485 33.4166 97.3872C32.7899 97.2435 32.5224 98.2122 33.1505 98.3564H33.1495Z" fill="#512516"/>
<path d="M38.9116 97.8796C38.4199 97.9017 37.9533 97.8886 37.4887 97.7329C37.4492 97.7198 37.4102 97.7058 37.3716 97.6907C37.4592 97.7254 37.3386 97.6756 37.3211 97.6666C37.2461 97.6279 37.1741 97.5867 37.1026 97.541C37.0901 97.5329 37.0011 97.4676 37.0601 97.5128C37.1176 97.557 37.0366 97.4927 37.0261 97.4827C36.977 97.436 36.932 97.3862 36.8845 97.339C36.821 97.2762 36.928 97.4038 36.8955 97.3556C36.879 97.3315 36.8615 97.3079 36.8455 97.2832C36.8185 97.241 36.7975 97.1958 36.7715 97.1531C36.707 97.0451 36.7995 97.2611 36.7605 97.129C36.7495 97.0923 36.736 97.0561 36.7265 97.019C36.7175 96.9853 36.714 96.9496 36.704 96.9165C36.678 96.8285 36.702 97.0456 36.711 96.9707C36.7135 96.9491 36.707 96.924 36.7075 96.9014C36.7195 96.2548 35.7192 96.2543 35.7072 96.9014C35.6997 97.3214 35.9103 97.7399 36.1768 98.0489C36.8345 98.8101 37.9763 98.9261 38.9116 98.8844C39.5527 98.8558 39.5562 97.851 38.9116 97.8796Z" fill="#512516"/>
<path d="M31.3446 91.2613C31.1455 92.3787 29.5741 93.0308 27.8336 92.7183C26.0937 92.4058 24.8439 91.2467 25.0429 90.1294C25.242 89.012 26.6068 89.523 28.3468 89.8355C30.0867 90.148 31.5436 90.144 31.3446 91.2613Z" fill="#7A3829"/>
<path d="M43.6193 91.8823C43.6158 93.0173 45.0457 93.9417 46.8136 93.9472C48.5816 93.9527 50.0175 93.0373 50.021 91.9024C50.0245 90.7675 48.5906 91.0242 46.8231 91.0187C45.0552 91.0131 43.6233 90.7469 43.6198 91.8818L43.6193 91.8823Z" fill="#7A3829"/>
</g>
<defs>
<clipPath id="clip0_658_13079">
<rect width="108" height="108" fill="white"/>
</clipPath>
<clipPath id="clip1_658_13079">
<rect width="84" height="106" fill="white" transform="translate(12 47)"/>
</clipPath>
</defs>
</svg>
