<svg width="101" height="128" viewBox="0 0 101 128" fill="none" xmlns="http://www.w3.org/2000/svg">
<g clip-path="url(#clip0_658_12707)">
<path d="M50.7292 127.501C74.318 127.501 93.4405 124.698 93.4405 121.241C93.4405 117.783 74.318 114.98 50.7292 114.98C27.1403 114.98 8.01782 117.783 8.01782 121.241C8.01782 124.698 27.1403 127.501 50.7292 127.501Z" fill="#DBD8D7"/>
<path d="M10.5843 78.7809C11.1917 79.2095 18.836 98.6071 18.836 98.6071C18.836 98.6071 0.675286 101.834 1.15636 108.768C1.63744 115.702 12.1009 124.611 55.5182 121.963C98.9355 119.314 98.3342 112.693 98.4545 112.331C98.5747 111.97 99.7798 108.412 99.1761 107.155C98.5723 105.897 99.3607 104.747 98.0215 103.784C96.6823 102.82 86.3006 99.811 86.3006 99.811C86.3006 99.811 92.8577 94.7547 94.9949 91.0226C97.1315 87.2906 100.51 80.7896 100.144 78.141C99.778 75.4925 99.8983 73.4615 98.8159 73.2129C97.7334 72.9643 92.4055 73.6848 92.0808 72.8999C91.756 72.115 92.4416 70.9941 92.4416 70.9941C92.4416 70.9941 90.6375 73.4459 85.5862 73.9876C80.5349 74.5294 79.4525 73.9876 79.4525 73.9876C79.4525 73.9876 74.0987 76.8258 70.6463 76.9811C67.1946 77.1358 65.9823 77.4795 65.6215 77.5698C65.2607 77.6601 66.2366 82.2987 58.7126 84.193C51.1891 86.0873 42.5868 87.4393 38.2198 85.4853C33.8529 83.5314 33.8649 81.3434 33.4602 81.3921C33.0555 81.4409 32.1276 82.7254 28.6945 83.3183C22.7496 84.3447 10.5849 78.7815 10.5849 78.7815L10.5843 78.7809Z" fill="white"/>
<path d="M33.6907 83.2301C33.6907 83.2301 34.9216 91.2619 49.5043 90.058C61.1705 89.0949 63.1435 92.2798 62.4934 97.8947C61.0502 110.355 55.798 113.05 50.9927 114.425C50.9927 114.425 64.9752 113.421 67.9627 111.367C79.1622 103.667 85.4463 73.475 85.0085 74.0451C84.5707 74.6145 83.9014 75.4711 80.1731 75.5415C76.4447 75.6119 75.242 76.2139 73.919 76.2139C72.5961 76.2139 66.7029 77.3582 66.1015 77.5682C65.5002 77.7783 68.2958 80.968 59.7453 83.8977C44.2443 89.2086 33.6907 83.2301 33.6907 83.2301Z" fill="#DBD8D7"/>
<path d="M91.7713 75.1211C92.4105 75.537 97.107 74.3518 95.9025 79.2577C95.051 82.7243 90.9522 91.8166 88.2462 93.4226C85.5401 95.0286 82.6097 96.7158 82.6097 96.7158C82.6097 96.7158 81.3493 94.5242 84.6279 92.0424C89.2703 88.5276 91.4826 81.2742 91.9336 79.2577C92.3846 77.2417 91.7713 75.1211 91.7713 75.1211Z" fill="#DBD8D7"/>
<path d="M4.28345 106.552C7.38219 103.603 17.1523 101.616 19.8584 100.954C20.043 100.908 21.5421 104.024 21.5421 104.024C17.8228 105.167 17.2726 107.274 17.2726 107.274C17.2726 107.274 16.2112 106.62 11.2591 106.191C5.92152 105.727 4.28345 106.552 4.28345 106.552Z" fill="#DBD8D7"/>
<path d="M96.3624 106.309C93.2636 103.36 84.3228 101.616 81.6167 100.954C81.4321 100.909 78.9106 103.422 78.9106 103.422C83.3991 104.626 84.6836 107.274 84.6836 107.274C84.6836 107.274 85.2639 106.62 90.216 106.191C95.5535 105.727 96.3624 106.309 96.3624 106.309Z" fill="#DBD8D7"/>
<path d="M21.7658 105.124C18.7248 106.634 18.7158 108.268 19.0165 109.803C19.3171 111.338 26.2723 116.648 50.1645 116.244C74.0566 115.839 82.0263 112.652 83.051 110.355C84.0757 108.058 82.5248 107.275 82.3715 106.974C82.2181 106.673 78.3406 105.123 78.126 105.047C77.9113 104.972 71.4534 113.354 50.4062 114.426C34.7309 115.224 22.8645 105.589 22.4435 105.288C22.0226 104.987 21.7652 105.124 21.7652 105.124H21.7658Z" fill="#DBD8D7"/>
<path d="M71.9952 1.21289C64.2655 2.3608 57.5628 9.88089 56.3601 12.6498C55.1574 15.4188 55.2717 18.9889 54.4635 19.2417C53.6559 19.4945 44.5545 15.4188 35.7844 17.2246C27.0144 19.0304 24.882 20.8543 24.2169 20.2343C23.5518 19.6143 7.56074 16.2573 6.20711 22.2996C4.85347 28.3425 8.01777 38.274 8.01777 38.274C8.01777 38.274 4.55641 47.0016 5.32734 54.4242C6.09826 61.8467 8.01777 63.8145 8.01777 63.8145C8.01777 63.8145 3.94784 72.7136 9.26737 76.9808C14.5869 81.248 21.8019 83.0219 26.781 83.4409C31.7602 83.8592 34.6545 81.0307 34.6545 81.0307C34.6545 81.0307 35.794 89.8191 51.4291 86.4482C67.0641 83.0773 66.102 77.5695 66.102 77.5695C66.102 77.5695 77.1806 75.4338 77.6298 75.5428C78.0796 75.6517 85.843 76.179 90.3652 72.6035C94.8873 69.0279 99.1755 63.3028 99.5363 59.7068C99.8971 56.1102 100.434 43.795 94.9943 37.7569C89.5551 31.7188 75.4114 26.9761 75.4114 26.9761C75.4114 26.9761 76.4452 20.2903 78.9708 16.2898C81.4965 12.2887 81.5584 8.8022 79.3316 5.66728C77.1048 2.53295 71.9952 1.21289 71.9952 1.21289Z" fill="#FFE9D4"/>
<path d="M6.96717 67.0405C5.96713 70.1965 6.68935 75.5369 12.953 79.417C19.2166 83.2972 25.0269 83.8335 27.3481 83.4753C29.6693 83.1172 33.4596 81.3926 33.4596 81.3926C33.4596 81.3926 33.8775 86.8781 47.7043 86.2419C61.5311 85.6062 65.7255 78.7742 65.7255 78.7742C65.7255 78.7742 66.5583 77.35 67.1398 77.2759C67.7207 77.2019 76.4421 74.7231 77.0356 75.133C77.6292 75.5429 86.6325 73.2284 91.1174 71.304C95.6022 69.3796 97.826 64.1602 97.826 64.1602C97.826 64.1602 93.871 68.5447 89.2472 68.2865C84.6234 68.0282 84.1634 67.4034 84.1634 67.4034C84.1634 67.4034 79.091 70.436 73.6789 70.436C68.2668 70.436 67.8224 70.0749 67.8224 70.0749C67.8224 70.0749 65.8445 77.6973 53.6372 80.5487C49.646 81.4811 44.4877 82.304 41.867 81.5118C36.4729 79.8811 35.7844 74.9602 35.7844 74.9602C35.7844 74.9602 35.1926 79.0535 28.0967 79.2593C24.7581 79.3562 17.1793 77.2229 12.953 74.3372C8.19693 71.0897 6.96717 67.0393 6.96717 67.0393V67.0405Z" fill="#EAD3C1"/>
<path d="M5.21558 55.3699C5.37854 54.8907 5.36712 49.9428 12.3415 49.1265C26.6536 47.4513 27.3235 41.4325 31.6743 41.9309C37.4995 42.5978 36.7563 49.1265 47.705 51.3525C55.7294 52.9838 65.5957 57.399 60.7254 65.9575C60.7254 65.9575 70.7571 58.999 77.6305 58.6378C84.5039 58.2767 86.789 59.6882 86.789 59.6882C86.789 59.6882 89.3147 57.9155 92.9228 58.2767C96.5309 58.6378 99.4757 60.3985 99.5376 59.7063C99.5995 59.0135 100.696 53.9884 99.2586 48.2904C97.8214 42.5924 94.3377 37.5578 88.2467 32.6964C82.1562 27.8351 76.6064 26.8287 75.4121 26.9756C74.2178 27.1224 69.831 26.1328 69.831 26.1328C69.831 26.1328 71.3043 20.7743 66.5837 19.2707C61.8632 17.767 53.6397 19.7318 53.6397 19.7318C53.6397 19.7318 44.9352 18.2161 38.22 17.6912C31.5047 17.1663 24.2182 21.0765 24.2182 21.0765C24.2182 21.0765 11.2321 18.2522 7.29083 21.5069C3.34959 24.7616 8.49352 38.2741 8.49352 38.2741L5.21618 55.3699H5.21558Z" fill="#D1C8C1"/>
<path d="M56.3601 12.6488C70.6457 7.71289 76.6544 19.7054 76.6857 19.6314C76.7169 19.5573 82.3275 13.2044 80.7484 8.73499C79.1692 4.26496 75.1817 -0.287547 69.0185 1.96734C62.8553 4.22222 56.3607 12.6494 56.3607 12.6494L56.3601 12.6488Z" fill="#D1C8C1"/>
<path d="M11.6572 37.2478C11.0258 37.0769 6.83683 24.427 9.24703 23.1629C11.6572 21.8988 17.791 32.7579 17.791 32.7579C17.791 32.7579 16.7988 34.4488 14.3633 35.8032C12.4642 36.859 11.6572 37.2478 11.6572 37.2478Z" fill="#FFB6B6"/>
<path d="M59.3604 34.0298C59.1012 35.4408 64.8074 38.1965 64.8074 38.1965C64.8074 38.1965 69.3836 23.0588 66.3168 22.2991C62.5499 21.3661 59.3598 34.0292 59.3598 34.0292L59.3604 34.0298Z" fill="#FFB6B6"/>
<path d="M32.0356 58.3741C31.9628 59.3962 30.6766 60.1378 29.1618 60.0301C27.6476 59.9223 26.4786 59.0062 26.5513 57.9835C26.6241 56.9614 32.1078 57.352 32.035 58.3741H32.0356Z" fill="#FFB6B6"/>
<path d="M66.5746 59.9306C66.5283 60.0071 66.476 60.0799 66.4242 60.1521C66.396 60.1919 66.3665 60.2304 66.3377 60.2695C66.1675 60.5013 66.5505 60.0016 66.4062 60.181C66.3106 60.2996 66.215 60.4182 66.1158 60.5338C65.4567 61.3006 64.7086 61.9905 63.922 62.6249C63.8619 62.6737 63.8012 62.7218 63.741 62.7694C63.7056 62.7971 63.6701 62.8248 63.6346 62.8531C63.53 62.9367 63.9244 62.6315 63.7416 62.77C63.5991 62.8777 63.4572 62.9855 63.3129 63.0908C62.9899 63.3268 62.661 63.5543 62.3273 63.774C61.5726 64.2712 60.7932 64.7293 59.9952 65.1531C59.5364 65.3969 59.0722 65.6292 58.6025 65.8513C58.3481 65.9717 58.0926 66.0885 57.8358 66.2029C57.7161 66.2558 57.5965 66.3082 57.4762 66.36C57.4155 66.3865 57.3541 66.4124 57.2934 66.4382C57.1232 66.5117 57.4209 66.3847 57.4221 66.3841C57.3776 66.4015 57.3331 66.4214 57.2886 66.4394C56.1117 66.9282 54.9108 67.3592 53.6955 67.7402C50.6575 68.6925 47.5275 69.3378 44.3752 69.773C44.3313 69.779 44.285 69.782 44.2417 69.7911C44.5147 69.7327 44.3608 69.7754 44.2928 69.7838C44.1876 69.7977 44.0824 69.8115 43.9771 69.8248C43.7336 69.8561 43.4894 69.8856 43.2453 69.9145C42.76 69.9716 42.2741 70.0234 41.7876 70.0716C40.7984 70.1685 39.8074 70.2467 38.8152 70.3075C36.5968 70.4442 34.3706 70.5038 32.148 70.4779C30.0204 70.4532 27.8923 70.328 25.7803 70.0644C25.6535 70.0487 25.5236 70.0373 25.3973 70.015C25.6402 70.0571 25.4009 70.015 25.2914 69.9993C25.0431 69.9638 24.7953 69.9265 24.5476 69.8874C24.0966 69.8157 23.6462 69.7369 23.1976 69.6502C22.3346 69.4841 21.4771 69.2902 20.628 69.0645C19.8396 68.855 19.0585 68.6173 18.2881 68.3488C17.9177 68.2194 17.5497 68.0827 17.1847 67.9389C17.0241 67.8757 16.8648 67.8101 16.7048 67.7439C16.5082 67.6626 16.9369 67.845 16.6898 67.7366C16.5905 67.6933 16.4913 67.6499 16.3921 67.606C15.1443 67.048 13.9392 66.3907 12.8123 65.6154C12.5561 65.4396 12.3071 65.2548 12.0576 65.07C11.9211 64.9683 12.2927 65.2566 12.06 65.0718C12.0047 65.0279 11.9493 64.9845 11.8946 64.94C11.7707 64.8401 11.6475 64.7383 11.526 64.6354C11.078 64.255 10.6492 63.8523 10.2427 63.4279C9.86026 63.0282 9.5223 62.5966 9.16329 62.1771C9.44833 62.5106 9.14826 62.1536 9.0773 62.0567C8.99371 61.9423 8.91253 61.8267 8.83255 61.71C8.67981 61.4872 8.53308 61.2603 8.39237 61.0298C8.12717 60.594 7.88423 60.1443 7.66654 59.6832C7.61302 59.5701 7.5613 59.4563 7.51079 59.3413C7.48734 59.2883 7.46629 59.2336 7.44163 59.1812C7.62685 59.5725 7.49636 59.3112 7.45787 59.2167C7.36586 58.988 7.27927 58.7574 7.19869 58.5245C7.03813 58.058 6.90162 57.5836 6.78977 57.1027C6.68334 56.6434 6.59434 56.1793 6.51796 55.714C6.49872 55.5954 6.48008 55.4768 6.46264 55.3582C6.45302 55.2914 6.4434 55.224 6.43378 55.1572C6.43558 55.1698 6.45963 55.3691 6.444 55.2276C6.41453 54.967 6.38326 54.7063 6.35981 54.4445C6.27803 53.5199 6.25878 52.5893 6.30689 51.6623C6.32854 51.2416 6.36462 50.822 6.41393 50.4036C6.42055 50.3495 6.42716 50.2953 6.43378 50.2411C6.45603 50.0515 6.41092 50.3116 6.42295 50.3194C6.40371 50.3073 6.45783 50.0798 6.46384 50.0407C6.49571 49.8318 6.53119 49.6235 6.57028 49.4159C6.83969 47.967 7.27205 46.5572 7.77418 45.1733C8.57818 42.957 9.72435 40.6672 9.67023 38.2516C9.63896 36.8587 9.15728 35.4796 8.77843 34.1524C8.30036 32.4747 7.81026 30.7983 7.44163 29.0924C7.34782 28.6578 7.26183 28.222 7.18726 27.7838C7.15419 27.59 7.12352 27.3961 7.09586 27.2017C7.05076 26.8905 7.1151 27.3733 7.08864 27.1517C7.07421 27.0295 7.05918 26.908 7.04595 26.7858C6.96416 26.0093 6.92929 25.2237 6.99483 24.4442C7.00205 24.3611 7.01107 24.2781 7.01949 24.1956C7.04956 23.8982 6.97138 24.4586 7.0243 24.1685C7.05437 24.0012 7.08443 23.8338 7.12412 23.6683C7.16261 23.5088 7.20771 23.3505 7.26063 23.1952C7.28468 23.1241 7.31234 23.0543 7.3376 22.9839C7.40195 22.8039 7.29551 23.085 7.28889 23.0958C7.31475 23.0513 7.33219 22.9995 7.35444 22.9532C7.42179 22.8135 7.49636 22.6775 7.57934 22.5463C7.61783 22.4855 7.65932 22.4277 7.69901 22.3681C7.83913 22.1586 7.51861 22.5679 7.71405 22.3518C7.89625 22.1502 8.08387 21.963 8.29014 21.7854C8.47235 21.6283 8.20895 21.842 8.23842 21.8221C8.29134 21.7866 8.34125 21.7463 8.39357 21.7096C8.51444 21.6253 8.63892 21.5452 8.7658 21.4706C8.88728 21.399 9.01055 21.3315 9.13623 21.2683C9.19577 21.2382 9.2553 21.2094 9.31604 21.1811C9.36475 21.1582 9.65159 21.0336 9.43631 21.1245C9.23185 21.2112 9.45675 21.1179 9.50907 21.0974C9.58243 21.0691 9.6564 21.0414 9.73037 21.0155C9.87168 20.9656 10.0142 20.9192 10.1579 20.8759C10.464 20.7844 10.7743 20.7079 11.087 20.6435C11.2319 20.614 11.3781 20.5863 11.5242 20.5617C11.609 20.5472 11.6932 20.534 11.778 20.5213C12.0744 20.4768 11.5873 20.543 11.7798 20.5201C12.1189 20.4792 12.4587 20.4455 12.7996 20.4226C13.4882 20.3769 14.1791 20.3696 14.8689 20.3883C15.5502 20.407 16.2303 20.4515 16.9087 20.5159C17.2508 20.5484 17.593 20.5857 17.934 20.6279C18.0097 20.6375 18.0855 20.6465 18.1613 20.6568C18.4728 20.6971 17.9869 20.6321 18.1625 20.6568C18.3302 20.6802 18.4986 20.7043 18.6664 20.729C19.7621 20.8933 20.8511 21.0992 21.9323 21.3412C22.5289 21.4748 23.1236 21.6181 23.7123 21.7806C24.0755 21.8811 24.4207 21.8474 24.7761 21.6885C24.8645 21.6494 24.9517 21.6078 25.0401 21.5687C25.0786 21.5519 25.1177 21.535 25.1567 21.5181C25.4093 21.4086 24.8681 21.6379 25.0359 21.5693C25.1489 21.523 25.262 21.476 25.3756 21.4309C25.6817 21.3087 25.9902 21.1925 26.3005 21.0811C27.2001 20.7579 28.1142 20.4744 29.0366 20.2222C30.282 19.8821 31.5431 19.6004 32.8137 19.3734C33.1871 19.3066 33.5618 19.2446 33.937 19.1874C34.1252 19.1585 34.3135 19.1308 34.5017 19.1044C34.5402 19.0989 34.5781 19.0941 34.6166 19.0887C34.7783 19.0646 34.3646 19.1206 34.5275 19.1007C34.6442 19.0863 34.7609 19.07 34.8781 19.0556C35.6948 18.9539 36.5138 18.8738 37.334 18.816C39.194 18.6842 41.0624 18.6637 42.9248 18.7534C43.9483 18.8028 44.9706 18.8852 45.9886 19.0002C46.2484 19.0297 46.5076 19.0616 46.7668 19.0947C46.786 19.0971 46.961 19.12 46.8161 19.1007C46.6597 19.0797 46.8822 19.1098 46.9183 19.1152C47.0765 19.1375 47.2346 19.1603 47.3928 19.1838C47.9292 19.2645 48.4644 19.3542 48.9984 19.4523C51.2444 19.867 53.4586 20.4431 55.6264 21.1606C56.2242 21.3586 56.9669 20.9319 57.1058 20.3197C57.2567 19.6563 56.9055 19.0508 56.2657 18.8389C50.1915 16.8284 43.721 15.955 37.3334 16.4082C33.394 16.6875 29.4395 17.4099 25.7136 18.7408C24.9836 19.0014 24.2487 19.2783 23.5499 19.616C23.859 19.5757 24.1675 19.5353 24.4766 19.4944C23.5289 19.2211 22.5613 19.0074 21.595 18.8118C19.4391 18.3754 17.2406 18.0606 15.0403 17.9865C12.7215 17.9089 10.3155 18.0967 8.18009 19.0664C7.17945 19.5209 6.30629 20.2161 5.65804 21.1046C4.90094 22.1418 4.63574 23.4787 4.5696 24.7367C4.49443 26.167 4.7049 27.6146 4.9743 29.0154C5.25092 30.4528 5.62917 31.8686 6.02546 33.2771C6.37725 34.5268 6.7549 35.771 7.06639 37.0321C7.12773 37.2795 7.19027 37.5281 7.23237 37.7797C7.24078 37.829 7.2456 37.8796 7.25522 37.9284C7.23898 37.8447 7.21914 37.6063 7.23597 37.8068C7.24499 37.9145 7.25462 38.0223 7.25943 38.13C7.26845 38.3383 7.26604 38.5471 7.25401 38.7554C7.248 38.8565 7.23958 38.9571 7.22936 39.0576C7.22395 39.1082 7.21733 39.1587 7.21192 39.2093C7.19328 39.3875 7.26303 38.88 7.22335 39.1178C6.8914 41.0868 6.02787 42.9203 5.36217 44.7893C4.46256 47.3133 3.87985 49.9432 3.87384 52.6332C3.86842 55.1187 4.24306 57.7125 5.20282 60.0203C5.94789 61.8123 6.9804 63.4345 8.29134 64.8678C9.73037 66.4406 11.4797 67.7445 13.3409 68.775C15.6224 70.0379 18.1095 70.9354 20.6376 71.5572C23.8554 72.3481 27.1791 72.7249 30.4865 72.8489C34.0723 72.9838 37.6828 72.8592 41.256 72.5329C44.2586 72.259 47.2545 71.8286 50.1981 71.1689C52.4567 70.6627 54.6871 70.0192 56.8502 69.1939C58.6121 68.5216 60.3398 67.7439 61.9797 66.8108C63.2167 66.1072 64.3911 65.309 65.5048 64.4235C66.2102 63.8625 66.8843 63.2576 67.4971 62.5948C67.8753 62.1855 68.2355 61.7521 68.553 61.2934C68.5861 61.2459 68.6192 61.1983 68.6492 61.149C68.9758 60.6096 68.7857 59.8024 68.2175 59.502C67.6336 59.1932 66.9204 59.3582 66.5722 59.9342L66.5746 59.9306Z" fill="#512516"/>
<path d="M50.3724 23.1874C50.5738 23.1392 50.7704 23.0441 50.9629 22.9701C51.3995 22.8027 51.8366 22.6384 52.2762 22.4795C53.6569 21.9811 55.0569 21.5356 56.4766 21.1618C57.3366 20.9349 58.2043 20.7345 59.0781 20.5677C59.5405 20.4792 60.0053 20.3998 60.4714 20.3318C60.5405 20.3215 60.9278 20.2529 60.5929 20.3137C60.7095 20.2926 60.8298 20.2836 60.9477 20.2698C61.1846 20.2415 61.4221 20.2168 61.6597 20.1951C62.6044 20.109 63.5545 20.0747 64.5022 20.1145C64.9526 20.1337 65.4 20.1752 65.848 20.2252C66.0182 20.2445 65.6153 20.1903 65.7843 20.2168C65.8408 20.2258 65.8974 20.2336 65.9539 20.2421C66.0363 20.2547 66.1193 20.2673 66.2016 20.283C66.3033 20.3029 66.4031 20.3275 66.5017 20.3594C66.5462 20.3739 66.5913 20.3974 66.6364 20.4082C66.6815 20.419 66.3135 20.2529 66.4957 20.351C66.5847 20.3992 66.6737 20.4437 66.7591 20.4991C66.794 20.522 66.827 20.5485 66.8625 20.5701C66.972 20.6363 66.5943 20.339 66.7615 20.4931C66.8385 20.5641 66.9172 20.6315 66.99 20.7074C67.0543 20.7748 67.1091 20.8603 67.1776 20.9223C67.1896 20.9331 66.9774 20.6418 67.061 20.7712C67.0754 20.7928 67.0928 20.8133 67.1073 20.835C67.1373 20.8789 67.168 20.9229 67.1975 20.9674C67.3201 21.1564 67.4272 21.3557 67.5222 21.5597C67.5474 21.6133 67.5685 21.6693 67.5944 21.7228C67.6004 21.7349 67.4675 21.4014 67.5252 21.5615C67.5354 21.5904 67.548 21.6187 67.5589 21.647C67.604 21.765 67.6461 21.8836 67.6852 22.004C67.7682 22.2592 67.8385 22.518 67.8986 22.7793C67.9636 23.061 68.0171 23.3451 68.0622 23.6304C68.0736 23.705 68.0839 23.7797 68.0959 23.8543C68.1266 24.0494 68.055 23.519 68.0869 23.7905C68.1061 23.9567 68.1253 24.1222 68.1416 24.2883C68.2721 25.6674 68.257 27.0585 68.1723 28.4399C68.1266 29.1864 68.0586 29.9316 67.9726 30.675C67.9504 30.867 67.9269 31.0584 67.9029 31.2498C67.8956 31.3064 67.859 31.5839 67.8866 31.3774C67.9131 31.1812 67.8902 31.3479 67.8836 31.3973C67.8752 31.4575 67.8668 31.5171 67.8583 31.5773C67.8036 31.9607 67.7447 32.3442 67.6816 32.7264C67.2293 35.4586 66.5997 38.2077 65.5919 40.793C65.5414 40.9231 65.4884 41.0525 65.4355 41.1819C65.3646 41.3583 65.569 40.8743 65.459 41.1271C65.4325 41.1873 65.4067 41.2475 65.3802 41.3071C65.1264 41.8814 65.1938 42.6272 65.812 42.954C66.3345 43.2303 67.1854 43.137 67.4573 42.5218C68.604 39.9286 69.3088 37.1453 69.8254 34.3637C70.3924 31.3124 70.7785 28.1576 70.6035 25.0498C70.4742 22.751 70.0863 19.8345 68.0033 18.4392C67.5402 18.1292 67.0105 17.98 66.4662 17.8999C65.4331 17.7488 64.3976 17.6742 63.3531 17.6922C61.3602 17.7265 59.3649 18.0257 57.4214 18.4555C54.8518 19.0237 52.3929 19.8887 49.9298 20.7983C49.8654 20.8223 49.8005 20.8494 49.7337 20.8651C49.1215 21.0107 48.6988 21.7421 48.8936 22.3459C49.0999 22.9845 49.7169 23.3433 50.373 23.1868L50.3724 23.1874Z" fill="#512516"/>
<path d="M7.12476 63.2563C7.12476 63.2563 7.12476 63.2575 7.12536 63.2581L6.9612 62.6507C6.9612 62.6507 7.06763 62.2529 6.99367 62.3745C6.97864 62.3997 6.97082 62.4359 6.95999 62.4629C6.92211 62.5623 6.87881 62.6598 6.83852 62.7579C6.69901 63.0962 6.56431 63.4369 6.43923 63.7806C6.04534 64.8641 5.73445 65.9807 5.54683 67.119C5.28704 68.6967 5.23352 70.2653 5.51796 71.8442C5.82405 73.5435 6.61241 75.1266 7.76159 76.4112C8.42187 77.1492 9.22347 77.7553 10.0076 78.3531C10.7786 78.9406 11.5783 79.4883 12.401 80.0006C14.0968 81.057 15.884 81.9461 17.7265 82.7142C19.3514 83.3919 21.0303 83.9554 22.7484 84.3436C24.2205 84.6759 25.7569 84.9155 27.2699 84.8571C29.0301 84.7891 30.8359 84.3382 32.4169 83.5593C33.2383 83.1542 34.0399 82.607 34.6046 81.8762C34.6551 81.8106 34.7128 81.7432 34.7579 81.6722C35.0953 81.1395 34.8866 80.3214 34.3267 80.0253C33.7326 79.7111 33.0417 79.8886 32.6814 80.4575C32.6766 80.4647 32.6718 80.4719 32.667 80.4791C32.5594 80.6344 32.7843 80.3106 32.8017 80.307C32.7524 80.3166 32.6351 80.4984 32.5979 80.5369C32.4782 80.6591 32.3489 80.7693 32.219 80.88C32.0621 81.0137 32.4614 80.7012 32.317 80.8054C32.2749 80.8355 32.234 80.8674 32.1914 80.8975C32.0849 80.9733 31.9755 81.0462 31.8642 81.1154C31.6141 81.2713 31.3537 81.4115 31.0873 81.5373C31.0163 81.5711 30.9448 81.6024 30.8732 81.6355C30.694 81.7179 30.949 81.6018 30.9664 81.5969C30.9225 81.609 30.8732 81.6355 30.8317 81.6517C30.6519 81.7234 30.4703 81.789 30.2869 81.8504C29.8497 81.9966 29.4041 82.1164 28.9537 82.2145C28.7216 82.2651 28.4883 82.3096 28.2537 82.3494C28.1292 82.3704 28.0042 82.3879 27.8797 82.4084C27.6656 82.4433 28.1653 82.3759 28.0102 82.3915C27.9645 82.3957 27.9188 82.4023 27.8731 82.4072C27.2669 82.4716 26.6535 82.4692 26.0456 82.4306C25.7028 82.4084 25.363 82.3542 25.0215 82.3307C25.4093 82.3578 25.0762 82.3379 24.986 82.3241C24.9018 82.3114 24.8176 82.2982 24.7334 82.285C24.5494 82.2549 24.3654 82.223 24.182 82.188C22.5385 81.8762 20.9287 81.3875 19.367 80.7921C19.1583 80.7127 18.9497 80.6308 18.7428 80.5472C18.6454 80.508 18.548 80.4677 18.4506 80.428C18.4127 80.4123 18.2317 80.3371 18.385 80.4015C18.554 80.4719 18.2852 80.3587 18.278 80.3551C17.8564 80.1733 17.4379 79.9837 17.0236 79.7857C16.1805 79.383 15.3524 78.9478 14.5436 78.4795C13.73 78.0081 12.9356 77.5037 12.1653 76.9638C11.974 76.8295 11.784 76.6929 11.5958 76.5539C11.508 76.4894 11.4208 76.4244 11.3342 76.3588C11.2849 76.3215 11.2356 76.2836 11.1857 76.2463C11.0041 76.1084 11.2861 76.3269 11.1718 76.2354C10.8152 75.9495 10.455 75.6666 10.1147 75.3608C9.80557 75.0833 9.51632 74.7835 9.25173 74.4627C9.21806 74.4218 9.18558 74.379 9.1513 74.3381C9.06411 74.2352 9.22287 74.426 9.21805 74.4248C9.17295 74.4133 9.06231 74.2105 9.03464 74.1708C8.9252 74.0124 8.82177 73.8505 8.72435 73.6844C8.62873 73.5219 8.53913 73.3563 8.45555 73.1872C8.41706 73.1095 8.37978 73.0313 8.3443 72.9518C8.32385 72.9067 8.30521 72.8615 8.28416 72.8164C8.22102 72.6797 8.39541 73.1047 8.30701 72.8663C8.18073 72.5256 8.06347 72.1843 7.97387 71.8316C7.93297 71.6697 7.89629 71.5072 7.86442 71.3434C7.84638 71.2507 7.82954 71.1574 7.81391 71.0635C7.80789 71.0286 7.80308 70.9937 7.79707 70.9588C7.764 70.7613 7.80128 70.9425 7.80549 71.034C7.78925 70.6849 7.73513 70.3382 7.72491 69.9872C7.70506 69.3034 7.76941 68.6341 7.83375 67.9557C7.79527 68.3608 7.82233 68.043 7.83616 67.9515C7.84758 67.8768 7.85961 67.8022 7.87164 67.7275C7.8993 67.5602 8.05745 66.7969 8.09053 66.6308C8.15006 66.3316 8.09053 66.6308 8.1657 66.3352C8.29799 65.814 8.45374 65.2981 8.62813 64.7895C8.83079 64.1989 9.11643 63.6307 9.30465 63.0372C9.4159 62.6863 8.16209 63.5428 8.01716 63.2088C7.7658 62.6285 8.05625 61.2867 7.55533 61.61C6.95398 61.9982 6.85536 62.6363 7.12356 63.2569L7.12476 63.2563Z" fill="#512516"/>
<path d="M38.2042 70.6487C35.7765 71.6997 34.038 74.1532 33.2767 76.623C32.4926 79.1668 32.7217 82.2596 34.4343 84.3869C35.6075 85.843 37.5006 86.6189 39.2655 87.0625C41.5314 87.6313 43.9134 87.7698 46.2418 87.7295C48.7644 87.6861 51.2859 87.4128 53.7713 86.9855C55.9926 86.6032 58.3102 86.1614 60.3662 85.2061C64.0952 83.4731 66.3857 79.7862 67.5956 75.9873C68.0893 74.4361 68.4008 72.8422 68.6107 71.2296C68.719 70.4007 68.8068 69.5592 68.8146 68.7225C68.8146 68.6845 68.8158 68.6466 68.8158 68.6093C68.8158 67.9797 68.2625 67.3765 67.6131 67.4054C66.9612 67.4349 66.411 67.9345 66.4104 68.6093C66.4104 69.1655 66.3653 69.7241 66.3124 70.2773C66.2859 70.5542 66.2552 70.8311 66.2204 71.1074C66.2059 71.2193 66.1632 71.5077 66.2306 71.0351C66.2204 71.1062 66.2113 71.1772 66.2011 71.2482C66.1759 71.4264 66.1482 71.6046 66.1193 71.7822C66.0003 72.5129 65.8517 73.2383 65.6707 73.9564C65.4681 74.7606 65.2257 75.5551 64.9353 76.3323C64.8631 76.5255 64.7879 76.7181 64.7098 76.9089C64.6911 76.9547 64.6707 76.9998 64.6533 77.0462C64.7922 76.6838 64.7164 76.8981 64.6809 76.9781C64.6322 77.0877 64.5847 77.1972 64.5348 77.3062C64.3502 77.7095 64.1505 78.1062 63.9346 78.4938C63.7157 78.8863 63.4806 79.2691 63.2269 79.6399C63.0994 79.8265 62.9568 80.0035 62.83 80.1901C62.8348 80.1829 63.0224 79.9457 62.9045 80.0932C62.866 80.142 62.8276 80.1907 62.7891 80.2389C62.7109 80.3352 62.6315 80.4309 62.5509 80.5248C62.2521 80.8727 61.9334 81.2044 61.5954 81.5144C61.4246 81.6715 61.2484 81.8232 61.068 81.9689C61.0349 81.9953 61.0013 82.0218 60.9682 82.0483C60.78 82.1994 61.2039 81.8737 61.0091 82.0158C60.905 82.0917 60.8022 82.1681 60.6964 82.2415C60.3007 82.516 59.8864 82.7634 59.4564 82.9801C59.3464 83.0355 59.2351 83.0891 59.1227 83.1408C59.0715 83.1643 59.0192 83.1872 58.9681 83.2107C58.7384 83.316 59.2393 83.1023 59.0036 83.1968C58.7661 83.2913 58.5273 83.3822 58.2838 83.4623C57.2927 83.7885 56.2675 84.0293 55.2488 84.2514C54.12 84.4982 52.9817 84.7023 51.8385 84.869C51.776 84.878 51.4296 84.8859 51.4013 84.9304C51.423 84.8955 51.6623 84.8961 51.4813 84.9196C51.4013 84.9298 51.3214 84.9407 51.2414 84.9509C50.9335 84.99 50.625 85.0261 50.3165 85.0598C49.7242 85.1236 49.1307 85.1772 48.5365 85.2194C47.3531 85.303 46.1666 85.3422 44.9802 85.3229C44.4167 85.3139 43.8538 85.291 43.2916 85.2519C43.0438 85.2344 42.7955 85.2139 42.5483 85.1905C42.4022 85.1766 42.2566 85.161 42.1111 85.1441C42.0053 85.1321 41.5218 85.0586 41.9295 85.1242C40.9535 84.9665 39.989 84.7992 39.0454 84.4958C38.8506 84.4332 38.6576 84.3658 38.4664 84.293C38.4104 84.2719 38.3551 84.249 38.2992 84.2273C38.1783 84.181 38.117 84.0847 38.3683 84.258C38.2781 84.196 38.15 84.1623 38.0514 84.1154C37.687 83.9426 37.334 83.7452 37.0027 83.5159C36.9329 83.4671 36.865 83.4051 36.791 83.3624C37.1404 83.5628 36.8722 83.425 36.7748 83.3413C36.6292 83.2167 36.4909 83.0843 36.361 82.944C36.3057 82.8838 36.2534 82.8218 36.1999 82.7598C36.1289 82.6786 36.0766 82.5389 36.2672 82.8513C36.2426 82.811 36.2095 82.7731 36.1818 82.7345C36.0802 82.5901 35.9888 82.4396 35.9064 82.2837C35.8421 82.1615 35.7861 82.0357 35.7272 81.9111C35.5961 81.6336 35.8114 82.153 35.7098 81.8653C35.6797 81.781 35.6466 81.698 35.6172 81.6137C35.5113 81.3085 35.4259 80.9961 35.3616 80.6801C35.3345 80.5477 35.2816 80.3882 35.287 80.2521C35.2744 80.5681 35.2966 80.3147 35.2888 80.2286C35.2804 80.1432 35.2738 80.0571 35.2678 79.971C35.2479 79.6574 35.2467 79.3426 35.2642 79.029C35.272 78.8869 35.2834 78.7448 35.2985 78.6034C35.3015 78.5751 35.3045 78.5468 35.3081 78.5185C35.3249 78.3837 35.3219 78.4059 35.2985 78.5853C35.287 78.5179 35.3273 78.4011 35.3393 78.3337C35.3941 78.0273 35.4644 77.7239 35.551 77.4254C35.637 77.1274 35.7416 76.8373 35.8523 76.5483C35.9299 76.3455 35.8343 76.576 35.8276 76.6031C35.8457 76.5273 35.8974 76.4442 35.9305 76.3738C36.0008 76.2227 36.0748 76.0728 36.153 75.9259C36.2943 75.6587 36.4488 75.398 36.6154 75.1452C36.69 75.0321 36.7675 74.9201 36.8475 74.8099C36.8896 74.7521 37.0694 74.5535 36.8541 74.7949C36.9071 74.7353 36.9546 74.6685 37.0051 74.6071C37.1897 74.3832 37.3857 74.1689 37.592 73.9654C37.684 73.8745 37.7784 73.786 37.8746 73.7C37.9342 73.647 38.2138 73.4772 38.2258 73.405C38.1843 73.4369 38.1434 73.4688 38.1019 73.5007C38.1416 73.4706 38.1819 73.4405 38.2228 73.4116C38.2835 73.3677 38.3443 73.3255 38.4062 73.2834C38.5078 73.2148 38.6119 73.1492 38.7171 73.086C38.9438 72.9511 39.1796 72.8319 39.4213 72.7272C40.001 72.4762 40.1754 71.5811 39.8531 71.0803C39.4652 70.4783 38.8278 70.3802 38.2078 70.6487H38.2042Z" fill="#512516"/>
<path d="M83.9534 64.0807C83.7802 64.9451 83.5565 65.7992 83.2619 66.6305C83.1957 66.8165 83.1266 67.0013 83.0538 67.1843C83.0388 67.2222 82.9113 67.5418 82.9901 67.3432C83.0592 67.168 82.9991 67.3215 82.9799 67.3649C82.9558 67.419 82.9317 67.4738 82.9071 67.5286C82.7435 67.8898 82.5649 68.2437 82.3707 68.5892C82.1831 68.9233 81.981 69.249 81.7639 69.5644C81.6635 69.71 81.5589 69.8527 81.4542 69.9948C81.337 70.1549 81.634 69.769 81.441 70.0116C81.3797 70.0887 81.3177 70.1645 81.2552 70.2404C80.7915 70.7965 80.2786 71.3106 79.726 71.7783C79.5943 71.8897 79.4541 71.9926 79.3237 72.1052C79.3333 72.0968 79.5672 71.921 79.4127 72.036C79.3778 72.0618 79.3435 72.0883 79.3086 72.1142C79.2304 72.1726 79.1511 72.2298 79.0711 72.2864C78.7764 72.4958 78.4739 72.6939 78.1643 72.8805C77.5076 73.2778 76.822 73.6251 76.1197 73.9327C76.0325 73.9706 75.7432 74.0687 76.0866 73.9477C75.9988 73.9784 75.9134 74.0194 75.8268 74.0537C75.6404 74.1283 75.4534 74.2005 75.2652 74.2704C74.8917 74.4088 74.5153 74.5376 74.1358 74.6586C73.3306 74.9151 72.5134 75.1342 71.6907 75.3274C70.7093 75.5579 69.7195 75.7512 68.7255 75.9203C68.1969 76.0106 67.6671 76.0937 67.1367 76.1719C66.88 76.2098 66.6226 76.2466 66.3652 76.2821C66.3075 76.2899 66.2497 76.2977 66.192 76.3061C65.8907 76.3477 66.4668 76.27 66.1638 76.3098C66.0176 76.329 65.8715 76.3483 65.7254 76.3669C65.1036 76.447 64.4908 76.8629 64.5227 77.5708C64.5485 78.1541 65.0573 78.8614 65.7254 78.7747C69.399 78.2998 73.1472 77.7334 76.5965 76.3218C78.1775 75.6747 79.6502 74.8813 80.9978 73.8267C82.2468 72.8498 83.313 71.6495 84.1519 70.3024C85.2078 68.6055 85.8814 66.6744 86.2722 64.7211C86.3955 64.1053 86.096 63.3914 85.4321 63.2403C84.8338 63.1037 84.0851 63.4209 83.9528 64.0813L83.9534 64.0807Z" fill="#512516"/>
<path d="M70.2217 27.6086C70.4388 27.6171 70.6559 27.6339 70.8724 27.652C71.1322 27.673 71.3913 27.6983 71.6499 27.7266C71.8087 27.7441 71.968 27.7621 72.1268 27.782C72.2134 27.7928 72.3006 27.8037 72.3872 27.8151C72.4281 27.8205 72.469 27.8259 72.5105 27.8314C72.6043 27.8434 72.1033 27.7754 72.3679 27.8121C74.4065 28.0968 76.424 28.5278 78.4001 29.1063C79.6683 29.4777 80.9191 29.9099 82.1428 30.4083C82.2156 30.4378 82.2878 30.4673 82.3599 30.4974C82.4032 30.5154 82.4471 30.5341 82.4904 30.5515C82.6504 30.6178 82.322 30.4799 82.3341 30.4853C82.5085 30.5618 82.6841 30.6352 82.8584 30.7123C83.1826 30.8555 83.5043 31.0042 83.8236 31.1571C84.4941 31.4785 85.1538 31.8222 85.8008 32.1888C86.4521 32.5578 87.0907 32.9497 87.7131 33.3662C88.0306 33.5781 88.3433 33.7966 88.6518 34.0211C88.8076 34.1343 88.9621 34.2493 89.1155 34.3661C89.1576 34.398 89.1985 34.4317 89.2412 34.4624C89.2442 34.4642 88.9832 34.2607 89.1233 34.3709C89.2135 34.4419 89.3037 34.5123 89.3933 34.584C90.6471 35.5862 91.8113 36.701 92.8553 37.9211C92.9894 38.0777 93.121 38.2354 93.2509 38.3955C93.3105 38.4683 93.3694 38.5418 93.4277 38.6158C93.4632 38.6603 93.4975 38.7049 93.533 38.7494C93.7224 38.9896 93.3959 38.5664 93.5185 38.7308C93.7705 39.0685 94.0201 39.4061 94.2576 39.7541C94.7459 40.4698 95.1951 41.212 95.6028 41.9758C95.8187 42.3797 96.0226 42.7897 96.215 43.2056C96.3064 43.4031 96.3954 43.6017 96.4814 43.8015C96.5145 43.878 96.6023 44.1001 96.4585 43.745C96.4784 43.7937 96.4988 43.8419 96.5187 43.8906C96.571 44.0176 96.6221 44.1446 96.6726 44.2723C97.0238 45.1661 97.3239 46.0793 97.5752 47.0063C97.8464 48.0067 98.0599 49.0222 98.2217 50.0455C98.2427 50.1773 98.2626 50.3092 98.2818 50.441C98.2908 50.5012 98.2981 50.562 98.3077 50.6222C98.3341 50.7937 98.2668 50.3007 98.2993 50.5572C98.3365 50.8533 98.372 51.1495 98.4027 51.4462C98.4598 52.0066 98.5031 52.5689 98.5326 53.1317C98.5927 54.2772 98.6053 55.4275 98.5386 56.573C98.5061 57.1262 98.4274 57.6733 98.3841 58.2247C98.3853 58.2097 98.428 57.9111 98.3991 58.1128C98.3889 58.1814 98.3792 58.2506 98.369 58.3192C98.3522 58.433 98.3341 58.5468 98.3155 58.6599C98.271 58.9272 98.2217 59.1939 98.1676 59.4587C97.9781 60.3797 97.7244 61.288 97.4014 62.1717C97.3245 62.3818 97.2439 62.5912 97.1591 62.7983C97.0382 63.0945 97.2661 62.5575 97.1399 62.844C97.0875 62.9626 97.0358 63.0806 96.9817 63.1986C96.7983 63.5977 96.5992 63.9895 96.3858 64.373C95.9817 65.0983 95.515 65.7743 95.0243 66.4431C95.2805 66.0939 95.0544 66.4021 94.9912 66.481C94.9281 66.5592 94.865 66.6369 94.8006 66.7145C94.6731 66.868 94.5426 67.0191 94.4097 67.1684C94.1349 67.4766 93.8487 67.7746 93.5528 68.0623C93.2732 68.3344 92.9851 68.5968 92.6887 68.8502C92.5486 68.97 92.4067 69.088 92.2629 69.2042C92.1878 69.265 92.112 69.324 92.0368 69.3842C91.8757 69.513 92.2539 69.2192 92.1348 69.3083C92.0861 69.345 92.038 69.3824 91.9887 69.4191C91.3741 69.8814 90.7325 70.3082 90.071 70.7C89.4222 71.0847 88.7541 71.4362 88.0715 71.757C87.905 71.8353 87.7378 71.9117 87.57 71.9864C87.4942 72.0201 87.4179 72.0538 87.3415 72.0863C87.2958 72.1062 87.2501 72.1254 87.2044 72.1453C87.027 72.2223 87.4978 72.0237 87.3084 72.1013C86.9747 72.2386 86.6397 72.3728 86.3012 72.4986C85.0029 72.9826 83.6703 73.3727 82.3196 73.6827C81.6991 73.8253 81.0749 73.9511 80.4476 74.0607C80.1614 74.1106 79.8746 74.1576 79.5877 74.2009C79.456 74.2208 79.3243 74.2401 79.192 74.2587C79.0778 74.275 78.7777 74.3111 79.272 74.2485C79.1992 74.2575 79.1271 74.2677 79.0549 74.2768C77.6466 74.4574 76.2208 74.5753 74.7998 74.5687C74.7336 74.5687 74.6675 74.5681 74.6019 74.5663C73.9723 74.5494 73.371 75.1321 73.3992 75.7702C73.4293 76.4371 73.9278 76.956 74.6019 76.9741C75.6302 77.0018 76.6676 76.9283 77.6905 76.8344C80.2023 76.6039 82.7051 76.1609 85.1213 75.4313C88.0788 74.5392 90.952 73.2276 93.4097 71.3381C96.3046 69.1121 98.4947 66.1981 99.7407 62.7537C101.269 58.5293 101.234 53.8287 100.546 49.44C99.9391 45.567 98.5494 41.7826 96.3341 38.5369C94.3833 35.6783 91.8781 33.2741 89.0132 31.3437C86.5213 29.6649 83.7725 28.3755 80.9383 27.3907C78.7597 26.6335 76.5148 26.0646 74.2417 25.6794C72.9675 25.4633 71.6776 25.2839 70.3859 25.2087C70.3312 25.2057 70.2764 25.2021 70.2217 25.2003C69.5921 25.1768 68.9908 25.7709 69.019 26.4041C69.0491 27.0765 69.5476 27.5828 70.2217 27.608V27.6086Z" fill="#512516"/>
<path d="M12.2271 36.8556C12.1628 36.7058 12.2476 36.9104 12.1862 36.7581C12.1574 36.6859 12.1279 36.6143 12.099 36.542C12.0305 36.3693 11.9649 36.1959 11.9006 36.0219C11.7677 35.6626 11.6426 35.3008 11.5211 34.9378C11.2319 34.071 10.9679 33.1952 10.7213 32.3158C10.2024 30.4648 9.74476 28.5879 9.43988 26.6894C9.36711 26.2349 9.33885 26.0417 9.29195 25.5897C9.25647 25.2483 9.23061 24.9052 9.22459 24.5621C9.22219 24.4267 9.22279 24.2913 9.2288 24.1558C9.23181 24.0914 9.23542 24.0264 9.24083 23.962C9.24384 23.9259 9.24985 23.8892 9.25105 23.853C9.25647 23.7387 9.22219 23.9921 9.24745 23.8759C9.26909 23.776 9.28834 23.6773 9.31299 23.578C9.33103 23.5045 9.41282 23.4196 9.30638 23.5749C9.32622 23.5461 9.35629 23.4949 9.36591 23.463C9.39538 23.3667 9.25226 23.5828 9.34787 23.4883C9.44409 23.3932 9.24083 23.5587 9.30638 23.5178C9.38576 23.4684 9.28954 23.5647 9.2276 23.5467C9.227 23.5467 9.26068 23.534 9.26248 23.5358C9.26669 23.5406 9.36531 23.516 9.37493 23.5141C9.2703 23.5316 9.34486 23.5178 9.4068 23.5166C9.48919 23.5147 9.56917 23.5172 9.65155 23.5214C9.81091 23.5292 9.56796 23.5045 9.66598 23.5214C9.70808 23.5286 9.75017 23.5364 9.79167 23.5454C9.87766 23.5647 9.96305 23.5888 10.0466 23.6165C10.0815 23.6279 10.1152 23.6406 10.1501 23.6526C10.1849 23.6658 10.2192 23.6791 10.2541 23.6935C10.206 23.6737 10.2018 23.6725 10.2409 23.6899C11.0972 24.0938 11.7479 24.7222 12.3871 25.4337C13.2951 26.445 14.0594 27.5809 14.7522 28.7481C15.487 29.9869 16.1449 31.278 16.6963 32.6095C16.8208 32.9099 17.095 33.1236 17.436 33.0297C17.7192 32.952 17.9814 32.5915 17.8557 32.2893C16.804 29.7503 15.4654 27.2901 13.7257 25.1544C13.0299 24.3003 12.241 23.4738 11.2968 22.8923C10.6179 22.4746 9.68883 22.1261 8.89024 22.3915C8.29792 22.5884 8.12292 23.2288 8.05618 23.7826C7.97499 24.4544 8.03633 25.1418 8.1139 25.8106C8.34302 27.7892 8.79102 29.7431 9.29856 31.6669C9.81572 33.6268 10.3876 35.5976 11.1886 37.463C11.3167 37.7616 11.7557 37.829 12.0112 37.6791C12.3197 37.4985 12.3558 37.1554 12.2271 36.8556Z" fill="#512516"/>
<path d="M59.8874 33.596C60.4208 31.1298 61.4377 28.7503 62.6801 26.5623C63.2123 25.625 63.8154 24.674 64.4805 23.8963C64.7541 23.576 65.0476 23.2678 65.3777 23.0054C65.2617 23.0975 65.4607 22.9482 65.4938 22.9259C65.5569 22.8844 65.6219 22.8441 65.6886 22.8086C65.7386 22.7815 65.9214 22.7213 65.7494 22.7736C65.8221 22.7514 65.9063 22.7345 65.9761 22.7068C66.0573 22.6743 65.9274 22.7171 65.9093 22.7152C65.9214 22.7165 65.9905 22.7177 65.9995 22.7116C66.0392 22.6846 66.1715 22.7827 65.9556 22.7002C65.9821 22.7104 66.0128 22.7092 66.0392 22.7189C66.1613 22.7652 65.8907 22.6876 66.02 22.7098C66.0362 22.7128 66.0663 22.7357 66.0789 22.7459C66.1457 22.7995 65.9881 22.6358 66.0326 22.711C66.0525 22.7447 66.1084 22.7959 66.1378 22.8218C66.0061 22.708 66.1024 22.77 66.1409 22.8362C66.1715 22.8892 66.201 22.9428 66.2293 22.997C66.2395 23.0162 66.2461 23.0373 66.2569 23.056C66.305 23.1408 66.2106 22.9145 66.2617 23.0704C66.3609 23.3732 66.4403 23.6741 66.492 23.989C66.4987 24.0287 66.5323 24.2713 66.5125 24.1154C66.5257 24.2165 66.5371 24.3176 66.5468 24.4188C66.5666 24.6174 66.581 24.8166 66.5919 25.0165C66.7013 27.0517 66.4914 29.1567 66.189 31.1238C66.0056 32.3169 65.7752 33.5051 65.4776 34.6753C65.3489 35.1815 65.207 35.6841 65.044 36.1807C64.9682 36.4113 64.8882 36.64 64.8023 36.867C64.765 36.9645 64.7265 37.0608 64.6874 37.1577C64.6237 37.3142 64.7373 37.0463 64.6706 37.1974C64.6447 37.2558 64.6188 37.3148 64.5924 37.3726C64.4577 37.6681 64.5082 38.0209 64.8083 38.1961C65.0668 38.3477 65.4956 38.2773 65.6309 37.98C66.4848 36.1103 66.9172 34.042 67.2558 32.0249C67.6268 29.8158 67.8878 27.5483 67.8078 25.3042C67.7789 24.5012 67.7218 23.6573 67.4704 22.8886C67.2804 22.3077 66.9443 21.6986 66.3038 21.5439C65.5329 21.3579 64.7956 21.8918 64.2622 22.3818C63.4697 23.1101 62.8322 24.0239 62.2574 24.928C61.4473 26.2029 60.7576 27.5567 60.1647 28.9454C59.5669 30.3455 59.0498 31.7859 58.7274 33.2764C58.5639 34.0318 59.7233 34.3544 59.8874 33.5966V33.596Z" fill="#512516"/>
<path d="M56.0443 19.7316C56.0612 19.4679 56.0828 19.2049 56.1111 18.9424C56.1237 18.8238 56.1405 18.7059 56.1532 18.5873C56.1724 18.4085 56.1063 18.9003 56.1478 18.6312C56.1598 18.5524 56.1712 18.4735 56.1838 18.3946C56.2674 17.8661 56.3745 17.3412 56.5026 16.8218C56.6318 16.2975 56.7828 15.7786 56.953 15.2663C57.0299 15.0346 57.1111 14.8041 57.1965 14.5753C57.244 14.4477 57.2927 14.3207 57.3426 14.1943C57.3673 14.1311 57.3926 14.0679 57.4184 14.0047C57.4467 13.9342 57.5477 13.6333 57.4377 13.9529C57.6078 13.4575 57.8754 12.9735 58.1136 12.5076C58.3619 12.0219 58.6283 11.5451 58.911 11.0786C59.1858 10.6254 59.4762 10.1817 59.7817 9.74832C59.9375 9.52741 60.0986 9.31011 60.261 9.09401C60.3043 9.03622 60.3644 8.91342 60.2207 9.14517C60.255 9.08919 60.3043 9.03803 60.3458 8.98626C60.4378 8.87069 60.5304 8.75572 60.6248 8.64195C61.2983 7.82631 62.0314 7.05883 62.8215 6.35576C62.9959 6.20106 63.1727 6.04937 63.3519 5.90069C63.4511 5.81883 63.551 5.73817 63.652 5.65811C63.6718 5.64246 63.6923 5.62621 63.7121 5.61056C63.7658 5.56842 63.7658 5.56842 63.7121 5.61056C63.6584 5.65269 63.6584 5.65309 63.7121 5.61176C63.753 5.58106 63.7933 5.55036 63.8342 5.52027C64.2281 5.22712 64.6346 4.95083 65.0525 4.6938C65.4614 4.44218 65.8812 4.20923 66.3123 3.99795C66.5294 3.8914 66.7567 3.80472 66.972 3.69577C66.6365 3.86612 66.9949 3.68915 67.0845 3.65424C67.1957 3.6109 67.307 3.56936 67.4194 3.52964C67.8626 3.37132 68.3148 3.23829 68.7737 3.13356C69.0004 3.08179 69.2283 3.03725 69.4574 2.99992C69.5031 2.9927 69.5488 2.98608 69.5945 2.97886C69.7948 2.94635 69.4959 2.9921 69.4808 2.9933C69.6186 2.98488 69.7563 2.9608 69.8934 2.94816C70.3522 2.90783 70.8134 2.8982 71.2729 2.92167C71.4809 2.93251 71.6872 2.95297 71.8941 2.97344C72.1514 2.99932 71.594 2.92589 71.8502 2.96682C71.8959 2.97404 71.9422 2.98066 71.9879 2.98789C72.1262 3.01016 72.2639 3.03544 72.401 3.06433C72.8544 3.15824 73.3006 3.28585 73.7354 3.44476C73.8382 3.48208 73.9392 3.52301 74.0409 3.56214C74.288 3.65725 73.7823 3.44476 74.0246 3.55492C74.0697 3.57538 74.1148 3.59465 74.1599 3.61511C74.3878 3.71925 74.6122 3.83121 74.8316 3.9516C75.2917 4.20321 75.7325 4.48853 76.1534 4.80154C76.2208 4.85151 76.4348 4.95263 76.1702 4.81238C76.2129 4.83525 76.2647 4.88702 76.2995 4.91591C76.4084 5.0038 76.516 5.09349 76.6219 5.18558C76.851 5.38362 77.0735 5.58889 77.2912 5.79897C77.6947 6.18842 78.0801 6.59774 78.4343 7.03235C78.4668 7.07208 78.4987 7.11301 78.5317 7.15274C78.7043 7.36342 78.3712 6.93243 78.5293 7.14913C78.5943 7.23821 78.6604 7.3267 78.7236 7.41699C78.8643 7.61744 78.9972 7.8227 79.1211 8.03338C79.2209 8.20313 79.3147 8.37649 79.4013 8.55286C79.4476 8.64737 79.4903 8.74307 79.5342 8.83818C79.6286 9.04585 79.444 8.60102 79.4963 8.74909C79.5197 8.81531 79.548 8.88032 79.5721 8.94653C79.7008 9.29807 79.7988 9.66104 79.8619 10.03C79.9178 10.3581 79.8469 9.8344 79.8619 10.0108C79.8697 10.1017 79.8812 10.192 79.8878 10.2828C79.9004 10.4628 79.9052 10.6428 79.9022 10.8234C79.8992 11.0022 79.8878 11.1809 79.8697 11.3591C79.8661 11.3946 79.8613 11.4302 79.8577 11.4657C79.8379 11.6866 79.9112 11.1406 79.8721 11.3585C79.8565 11.447 79.8439 11.5355 79.827 11.624C79.7591 11.9815 79.6653 12.3343 79.5522 12.6804C79.4975 12.8483 79.438 13.0151 79.3748 13.18C79.3448 13.2595 79.3129 13.3377 79.2816 13.4166C79.2443 13.5117 79.1385 13.6586 79.3153 13.3395C79.2876 13.3889 79.2696 13.4461 79.2467 13.4972C78.9262 14.225 78.5486 14.9262 78.1571 15.6185C77.326 17.0896 76.4312 18.5277 75.7186 20.0626C74.8882 21.8528 74.3031 23.7213 74.2002 25.7035C74.1756 26.1766 74.1834 26.6503 74.2177 27.1228C74.2634 27.7495 74.7378 28.3574 75.4204 28.3267C76.0325 28.299 76.6724 27.7952 76.6231 27.1228C76.5858 26.6148 76.5804 26.1056 76.6116 25.5969C76.6255 25.3748 76.6483 25.1539 76.6724 24.933C76.6826 24.8397 76.7337 24.6759 76.6609 25.0124C76.673 24.9564 76.6778 24.8981 76.6868 24.8415C76.7066 24.7169 76.7283 24.5929 76.7517 24.4695C76.9243 23.5672 77.2016 22.6883 77.5473 21.8384C77.673 21.529 77.4475 22.0659 77.5798 21.7595C77.6237 21.6584 77.6682 21.5579 77.7133 21.4573C77.8083 21.2473 77.9069 21.039 78.008 20.8325C78.2046 20.4316 78.4121 20.0368 78.6261 19.6449C79.0453 18.8792 79.4897 18.128 79.9257 17.3719C80.7561 15.9315 81.5914 14.4369 82.0196 12.8188C82.4874 11.0515 82.3425 9.29145 81.61 7.62165C81.1909 6.66576 80.5607 5.80799 79.8781 5.02426C79.0615 4.08643 78.121 3.24732 77.1047 2.53221C75.338 1.2892 73.2254 0.568672 71.0654 0.504866C66.7862 0.378458 62.7993 2.79466 59.9314 5.80318C56.8014 9.08678 54.5121 13.4027 53.8398 17.9119C53.7496 18.5162 53.6774 19.1218 53.6383 19.7316C53.598 20.3612 54.2198 20.9631 54.841 20.9355C55.5266 20.9048 56.001 20.4063 56.0437 19.7316H56.0443Z" fill="#512516"/>
<path d="M9.29248 77.5073C10.0508 80.0475 10.9462 82.5528 11.8777 85.0334C13.8603 90.3137 16.1051 95.5307 18.8677 100.453C20.2887 102.985 21.8613 105.433 23.6815 107.697C24.939 109.262 26.3389 110.558 28.0882 111.559C32.0186 113.808 36.6261 114.753 41.0707 115.306C46.1311 115.937 51.2822 115.944 56.3546 115.447C60.9699 114.993 65.6731 114.191 69.9925 112.444C71.7743 111.723 73.4737 110.861 74.9783 109.654C76.3542 108.55 77.3741 107.038 78.3417 105.58C81.0543 101.494 83.245 97.0506 85.3329 92.6203C87.5278 87.9631 89.564 83.2306 91.5166 78.4674C92.6405 75.7262 93.738 72.9729 94.7891 70.2027C94.8384 70.0727 94.8877 69.9427 94.9365 69.8127C95.1644 69.2035 94.6827 68.4932 94.0964 68.3319C93.4223 68.1465 92.8456 68.5618 92.6171 69.1728C91.8948 71.1026 91.1365 73.0192 90.3704 74.9322C89.5688 76.9349 88.7504 78.9303 87.9139 80.9185C87.9103 80.9276 87.7924 81.2075 87.867 81.0299C87.9422 80.8523 87.8231 81.134 87.8195 81.1425C87.7648 81.2719 87.7101 81.4007 87.6553 81.5301C87.5321 81.8209 87.4082 82.1116 87.2843 82.4017C87.0371 82.9808 86.7876 83.5593 86.5368 84.1371C86.0191 85.3296 85.4941 86.5184 84.9607 87.703C82.8656 92.3543 80.6671 96.9826 78.1011 101.395C77.5551 102.334 76.9898 103.262 76.3945 104.169C76.1311 104.571 75.8611 104.968 75.5833 105.36C75.4456 105.554 75.3055 105.748 75.1635 105.939C75.1016 106.022 75.0385 106.105 74.9765 106.188C74.9266 106.255 74.8274 106.407 75.0198 106.133C74.9813 106.188 74.9374 106.239 74.8965 106.292C74.4377 106.874 73.9428 107.408 73.3685 107.878C73.3252 107.914 73.0823 108.111 73.2627 107.966C73.4407 107.823 73.1971 108.014 73.1484 108.051C72.9855 108.171 72.8189 108.287 72.6505 108.4C72.2945 108.638 71.9283 108.86 71.5542 109.067C71.1754 109.278 70.7887 109.475 70.3973 109.661C70.1814 109.764 69.9643 109.862 69.746 109.958C69.6101 110.018 69.4616 110.079 69.6973 109.981C69.5602 110.038 69.4231 110.095 69.2848 110.15C68.3352 110.531 67.3647 110.86 66.3839 111.152C64.1841 111.807 61.9309 112.277 59.6638 112.627C59.386 112.669 59.1075 112.71 58.8297 112.749C58.7678 112.758 58.7052 112.767 58.6433 112.775C58.324 112.82 58.9085 112.742 58.5886 112.782C58.4316 112.803 58.2747 112.823 58.1177 112.843C57.4833 112.922 56.8483 112.991 56.2121 113.053C54.9504 113.174 53.6852 113.262 52.4188 113.316C49.8889 113.426 47.353 113.408 44.8255 113.248C43.5874 113.17 42.3504 113.057 41.1188 112.905C40.9793 112.887 40.8404 112.869 40.7009 112.851C40.396 112.812 40.8897 112.879 40.6973 112.851C40.6209 112.84 40.5439 112.83 40.467 112.819C40.1627 112.776 39.8584 112.73 39.5547 112.682C38.9732 112.589 38.3935 112.487 37.8162 112.373C35.6886 111.955 33.5779 111.393 31.5646 110.581C31.4582 110.538 31.3517 110.494 31.2459 110.45C31.5971 110.596 31.1852 110.422 31.1166 110.392C30.8905 110.292 30.6662 110.187 30.4437 110.08C30.0258 109.877 29.6144 109.661 29.2127 109.428C28.8315 109.206 28.458 108.97 28.0972 108.716C28.0166 108.66 27.9367 108.602 27.8573 108.544C27.8134 108.512 27.7707 108.478 27.7268 108.446C27.5686 108.332 27.8086 108.513 27.8164 108.516C27.6432 108.441 27.4682 108.237 27.3263 108.113C26.5512 107.438 25.8945 106.639 25.2571 105.836C25.212 105.779 24.9155 105.397 25.067 105.595C24.9624 105.459 24.8578 105.321 24.7549 105.183C24.5457 104.903 24.3406 104.62 24.1386 104.335C23.7459 103.781 23.3658 103.218 22.9966 102.648C21.4205 100.214 20.0338 97.6598 18.7583 95.0564C18.1263 93.7664 17.5231 92.4626 16.9434 91.1492C16.8057 90.838 16.6698 90.5256 16.5351 90.2132C16.472 90.0669 16.4088 89.92 16.3463 89.7737C16.312 89.6925 16.2771 89.6118 16.2429 89.5306C16.2224 89.4818 16.202 89.4336 16.1815 89.3849C16.2344 89.5113 16.2344 89.5107 16.1803 89.3825C15.9296 88.7841 15.6824 88.184 15.4395 87.5821C14.0894 84.2322 12.8488 80.8307 11.7718 77.3827C11.7183 77.2112 11.6648 77.039 11.6131 76.8669C11.4273 76.2438 10.7694 75.8508 10.1338 76.0259C9.51618 76.1957 9.10726 76.8813 9.29368 77.5067L9.29248 77.5073Z" fill="#512516"/>
<path d="M84.6823 101.09C86.2722 101.454 87.8532 101.861 89.4119 102.342C90.098 102.554 90.7793 102.78 91.454 103.026C91.7673 103.14 92.0795 103.258 92.3891 103.381C92.7073 103.508 92.8498 103.567 93.0981 103.676C94.0843 104.111 95.0531 104.602 95.9437 105.212C96.0387 105.277 96.1325 105.345 96.2257 105.412C96.4525 105.575 96.1674 105.354 96.3208 105.484C96.4795 105.618 96.6395 105.75 96.7904 105.893C96.9299 106.025 97.064 106.163 97.1903 106.308C97.2414 106.367 97.2895 106.428 97.34 106.488C97.1759 106.292 97.2998 106.437 97.3719 106.546C97.4633 106.683 97.5307 106.833 97.6167 106.972C97.7237 107.146 97.5445 106.739 97.6022 106.931C97.6275 107.014 97.6606 107.095 97.684 107.179C97.7039 107.25 97.7153 107.325 97.7351 107.397C97.8013 107.636 97.7405 107.182 97.7297 107.359C97.7225 107.476 97.7333 107.6 97.7309 107.717C97.7261 108.023 97.8085 107.428 97.7279 107.734C97.7021 107.832 97.6816 107.93 97.6503 108.026C97.6347 108.075 97.6137 108.123 97.5986 108.172C97.5421 108.36 97.6888 107.997 97.6503 108.05C97.586 108.14 97.5469 108.262 97.4904 108.359C97.4375 108.45 97.3785 108.537 97.3208 108.625C97.3154 108.633 97.2132 108.757 97.218 108.767C97.1933 108.717 97.4248 108.521 97.2444 108.725C97.0724 108.92 96.8962 109.107 96.7044 109.283C96.6088 109.371 96.5108 109.456 96.4104 109.538C96.3544 109.585 96.2967 109.629 96.2414 109.675C96.4242 109.523 96.3598 109.587 96.2294 109.68C95.9702 109.868 95.705 110.047 95.4326 110.215C94.8072 110.6 94.1529 110.937 93.486 111.245C93.3146 111.324 93.1426 111.401 92.9694 111.476C92.8648 111.521 92.6652 111.603 92.8853 111.513C92.7722 111.559 92.6591 111.606 92.5455 111.652C92.1294 111.82 91.7102 111.978 91.2881 112.13C89.3163 112.837 87.2921 113.393 85.2542 113.874C79.9707 115.118 74.647 115.852 69.2691 116.363C62.6038 116.997 55.903 117.257 49.2081 117.228C42.6005 117.2 35.9881 116.89 29.4148 116.2C24.2035 115.653 18.988 114.879 13.8705 113.583C11.9234 113.09 9.98944 112.52 8.11684 111.79C7.92862 111.717 7.7422 111.641 7.55518 111.565C7.28999 111.457 7.66042 111.613 7.46738 111.529C7.35914 111.482 7.2509 111.436 7.14326 111.388C6.78485 111.228 6.43006 111.061 6.08068 110.883C5.47632 110.576 4.8858 110.24 4.32835 109.854C4.20267 109.767 4.0836 109.668 3.95551 109.584C3.91883 109.56 4.175 109.764 3.97536 109.597C3.92063 109.552 3.86471 109.507 3.81059 109.461C3.60673 109.287 3.41129 109.103 3.22968 108.906C3.1473 108.817 3.07454 108.709 2.98734 108.625C2.95547 108.595 3.17075 108.886 3.03665 108.687C3.00418 108.639 2.9699 108.592 2.93803 108.544C2.87669 108.451 2.81896 108.356 2.76605 108.257C2.74019 108.21 2.71854 108.161 2.69268 108.114C2.58564 107.92 2.73898 108.245 2.73177 108.215C2.69028 108.038 2.63615 107.795 2.567 107.63C2.54655 107.58 2.58624 107.983 2.58624 107.76C2.58624 107.711 2.57963 107.662 2.57782 107.612C2.57542 107.515 2.62413 107.15 2.58023 107.364C2.53152 107.603 2.58624 107.347 2.60067 107.296C2.61872 107.23 2.63435 107.163 2.6548 107.098C2.67524 107.033 2.71132 106.965 2.72455 106.9C2.68907 107.072 2.62473 107.105 2.71674 106.935C2.7883 106.802 2.85986 106.671 2.94344 106.546C2.98674 106.48 3.03846 106.419 3.07935 106.352C2.9675 106.533 2.98133 106.471 3.08897 106.349C3.32831 106.079 3.58328 105.827 3.8599 105.595C3.93507 105.532 4.01144 105.47 4.08841 105.41C3.90139 105.558 4.06375 105.431 4.16057 105.362C4.33556 105.235 4.51477 105.115 4.69697 104.999C5.54788 104.455 6.45652 104.008 7.38139 103.606C7.56721 103.525 7.24068 103.663 7.4307 103.584C7.48783 103.56 7.54496 103.536 7.60269 103.513C7.73919 103.457 7.8757 103.402 8.01281 103.349C8.29664 103.237 8.58228 103.129 8.86913 103.025C9.4831 102.801 10.1025 102.594 10.7255 102.399C12.1284 101.96 13.5494 101.582 14.98 101.244C16.5778 100.866 18.1876 100.539 19.8034 100.246C20.4427 100.129 20.8047 99.3511 20.6435 98.7648C20.4583 98.0913 19.8052 97.8077 19.1642 97.9239C15.9867 98.5012 12.8188 99.1982 9.74108 100.187C7.50407 100.906 5.20872 101.757 3.24652 103.075C1.93859 103.954 0.5597 105.17 0.252411 106.8C0.00405428 108.118 0.460477 109.314 1.28673 110.329C2.1226 111.356 3.29162 112.121 4.44561 112.744C6.06384 113.618 7.80234 114.282 9.54745 114.851C14.3131 116.405 19.2971 117.299 24.2534 117.982C30.8231 118.887 37.4452 119.372 44.0732 119.557C51.1553 119.753 58.2524 119.62 65.3195 119.105C71.3275 118.666 77.341 117.972 83.2487 116.776C87.3739 115.94 91.5948 114.904 95.3754 113.001C97.4675 111.949 100.243 110.141 100.141 107.456C100.069 105.569 98.6582 104.175 97.1981 103.165C95.0868 101.704 92.5605 100.804 90.1275 100.047C88.5441 99.5546 86.9373 99.1411 85.3215 98.7709C84.6889 98.6258 84.0196 98.9653 83.8422 99.6118C83.6756 100.219 84.046 100.947 84.6823 101.093V101.09Z" fill="#512516"/>
<path d="M77.5935 104.862C79.0753 105.371 80.6646 105.972 81.886 106.987C82.3153 107.343 82.6268 107.662 82.8487 108.142C82.8938 108.238 82.8048 108.013 82.8632 108.178C82.8812 108.23 82.8986 108.281 82.9137 108.334C82.9281 108.386 82.9395 108.438 82.951 108.491C82.9882 108.659 82.9473 108.37 82.9588 108.541C82.9648 108.624 82.9642 108.706 82.9636 108.789C82.9636 108.818 82.9546 108.851 82.957 108.88C82.9648 108.975 82.9955 108.719 82.9582 108.869C82.9281 108.988 82.8956 109.106 82.8614 109.224C82.8193 109.369 82.9209 109.117 82.8487 109.257C82.8132 109.325 82.7808 109.394 82.7423 109.461C82.708 109.52 82.6719 109.578 82.6334 109.634C82.607 109.673 82.459 109.862 82.5799 109.713C82.4753 109.841 82.3664 109.965 82.2498 110.082C82.1421 110.189 82.0297 110.29 81.9136 110.388C81.8806 110.416 81.6695 110.581 81.7952 110.486C81.7098 110.551 81.6226 110.615 81.5348 110.676C81.201 110.91 80.8504 111.119 80.4914 111.311C79.5684 111.807 78.7565 112.132 77.7619 112.479C76.5664 112.896 75.3451 113.238 74.1147 113.536C71.0924 114.271 68.0099 114.753 64.9213 115.101C57.2078 115.97 49.3783 116.07 41.6377 115.519C38.2359 115.277 34.8389 114.899 31.4816 114.293C28.8729 113.823 26.2607 113.233 23.7687 112.315C22.8564 111.98 22.0452 111.636 21.1679 111.13C20.8305 110.935 20.5022 110.723 20.1919 110.487C20.317 110.582 20.1059 110.416 20.0734 110.389C20.0091 110.334 19.9453 110.279 19.8834 110.222C19.7577 110.106 19.6368 109.985 19.525 109.856C19.4943 109.821 19.3416 109.623 19.4564 109.779C19.4215 109.731 19.3867 109.684 19.3536 109.635C19.2718 109.514 19.2057 109.387 19.1383 109.258C19.0704 109.126 19.1696 109.38 19.1149 109.196C19.0974 109.136 19.0764 109.078 19.0607 109.018C19.0457 108.96 19.0409 108.896 19.0235 108.839C18.991 108.733 19.0204 108.99 19.0295 108.88C19.0319 108.851 19.0235 108.818 19.0229 108.789C19.0229 108.701 19.0204 108.614 19.0289 108.526C19.0168 108.656 19.0391 108.471 19.0427 108.458C19.0565 108.4 19.0698 108.344 19.0872 108.287C19.1479 108.089 19.261 107.877 19.4342 107.65C19.7631 107.219 20.3097 106.8 20.8064 106.487C21.5371 106.026 22.3237 105.654 23.1234 105.331C23.4247 105.209 23.6364 104.93 23.5432 104.591C23.4644 104.305 23.1066 104.048 22.8035 104.17C21.3038 104.776 19.6188 105.518 18.5742 106.811C17.9687 107.562 17.6289 108.521 17.9398 109.471C18.4305 110.967 19.982 111.91 21.3122 112.569C23.539 113.671 25.975 114.347 28.3888 114.893C31.7095 115.644 35.0933 116.119 38.4795 116.454C42.4899 116.852 46.5219 117.033 50.5509 117.046C54.6347 117.059 58.7214 116.899 62.7884 116.524C66.2118 116.207 69.6329 115.749 72.9956 115.026C75.4864 114.49 77.9874 113.822 80.3056 112.746C81.6605 112.117 83.2829 111.229 83.9197 109.791C84.9655 107.431 82.4019 105.669 80.5798 104.782C79.7163 104.362 78.8191 104.012 77.9123 103.7C77.1786 103.448 76.8635 104.61 77.5923 104.861L77.5935 104.862Z" fill="#512516"/>
<path d="M50.157 120.579C43.986 120.577 37.8114 120.368 31.662 119.841C29.1947 119.629 26.743 119.319 24.2834 119.038C24.6719 119.083 24.2377 119.032 24.1487 119.02C24.0237 119.003 23.8992 118.985 23.7741 118.968C23.4794 118.926 23.1848 118.884 22.8907 118.841C22.3688 118.764 21.8474 118.684 21.3266 118.601C20.3422 118.444 19.3596 118.274 18.38 118.091C15.357 117.525 12.3455 116.841 9.41452 115.903C8.43672 115.59 7.46916 115.245 6.52023 114.854C6.27969 114.754 6.78302 114.966 6.64952 114.908C6.60261 114.888 6.55571 114.868 6.5082 114.848C6.41379 114.807 6.31938 114.765 6.22557 114.723C6.0596 114.648 5.89483 114.572 5.73126 114.492C5.45163 114.356 5.17561 114.213 4.90801 114.055C4.71198 113.94 4.52676 113.813 4.34154 113.682C4.49128 113.788 4.62598 113.918 4.47083 113.779C4.34034 113.662 4.21105 113.544 4.08778 113.42C3.97412 113.304 3.86407 113.184 3.75884 113.06C3.71494 113.009 3.653 112.953 3.62113 112.894C3.76185 113.157 3.64819 112.927 3.60429 112.866C3.4299 112.622 3.27235 112.365 3.13223 112.1C3.05887 111.96 2.99212 111.817 2.92657 111.674C2.83276 111.47 2.96325 111.74 2.95784 111.748C2.96746 111.735 2.88328 111.556 2.87546 111.534C2.77383 111.257 2.68904 110.973 2.62049 110.685C2.56637 110.458 2.52547 110.228 2.48699 109.996C2.44549 109.745 2.52066 110.3 2.4942 110.049C2.48699 109.984 2.47917 109.918 2.47316 109.853C2.46113 109.726 2.45151 109.599 2.44429 109.471C2.42204 109.062 2.42625 108.652 2.45632 108.244C2.46835 108.083 2.48578 107.923 2.50382 107.762C2.52247 107.598 2.44489 108.153 2.4906 107.866C2.50022 107.805 2.50924 107.745 2.52006 107.685C2.5381 107.582 2.55674 107.479 2.582 107.377C2.73354 106.766 2.38656 106.043 1.74192 105.896C1.11952 105.754 0.424965 106.083 0.262601 106.737C-0.537793 109.963 0.486904 113.96 3.30662 115.891C3.80274 116.23 4.34876 116.5 4.89418 116.75C5.82687 117.176 6.78482 117.55 7.75299 117.886C10.4993 118.838 13.3359 119.53 16.1815 120.109C20.596 121.008 25.0706 121.615 29.5525 122.055C35.5467 122.644 41.5704 122.914 47.5917 122.974C48.4468 122.983 49.3013 122.987 50.1564 122.987C50.7855 122.987 51.388 122.433 51.3591 121.783C51.3297 121.131 50.8306 120.579 50.1564 120.579L50.157 120.579Z" fill="#512516"/>
<path d="M50.1571 122.987C56.4177 122.986 62.6825 122.77 68.9203 122.225C73.5669 121.82 78.2075 121.24 82.7916 120.372C85.8182 119.799 88.834 119.105 91.7655 118.152C93.4523 117.603 95.2016 116.999 96.7248 116.072C99.7466 114.233 100.69 110.349 100.113 107.045C100.095 106.942 100.076 106.839 100.051 106.737C99.8994 106.126 99.179 105.699 98.5716 105.896C97.9384 106.102 97.5691 106.722 97.7315 107.377C97.7592 107.488 97.779 107.6 97.7982 107.712C97.8067 107.764 97.8145 107.815 97.8229 107.865C97.8674 108.145 97.7976 107.649 97.8097 107.762C97.8283 107.939 97.8488 108.114 97.8608 108.292C97.8891 108.705 97.8909 109.12 97.8656 109.533C97.859 109.64 97.8506 109.746 97.8403 109.852C97.8337 109.918 97.8259 109.984 97.8193 110.049C97.7928 110.3 97.868 109.745 97.8265 109.996C97.7838 110.251 97.7381 110.504 97.6762 110.755C97.6106 111.018 97.5312 111.279 97.438 111.534C97.4164 111.593 97.3881 111.652 97.3701 111.712C97.3202 111.876 97.4976 111.435 97.3869 111.674C97.3208 111.818 97.2546 111.96 97.1813 112.1C97.0412 112.365 96.8836 112.622 96.7092 112.866C96.693 112.889 96.6761 112.912 96.6599 112.934C96.5817 113.038 96.5925 113.025 96.693 112.894C96.6689 112.903 96.6064 113 96.5835 113.028C96.4506 113.186 96.3099 113.338 96.1626 113.484C96.0592 113.586 95.9515 113.682 95.8439 113.779C95.8276 113.793 95.8102 113.806 95.7934 113.82C95.6514 113.942 96.0928 113.597 95.9623 113.689C95.8769 113.749 95.7934 113.811 95.7056 113.869C95.189 114.209 94.6273 114.481 94.0645 114.733C93.9827 114.77 93.9009 114.806 93.8185 114.841C93.7674 114.863 93.7157 114.885 93.6646 114.907C93.5293 114.966 93.9135 114.8 93.8733 114.82C93.839 114.836 93.8023 114.85 93.7668 114.864C93.56 114.95 93.3525 115.033 93.1444 115.114C92.6645 115.3 92.1805 115.474 91.6934 115.64C88.941 116.577 86.1026 117.261 83.2547 117.833C81.2967 118.227 79.3266 118.561 77.35 118.85C77.0926 118.888 76.8347 118.925 76.5767 118.961C76.4396 118.98 76.3025 118.999 76.1654 119.018C76.1022 119.027 76.0397 119.035 75.9765 119.044C75.6656 119.087 76.2026 119.014 75.9543 119.047C75.383 119.122 74.8111 119.196 74.2392 119.265C72.9957 119.415 71.7497 119.55 70.5025 119.671C64.5936 120.242 58.6571 120.505 52.7218 120.564C51.8667 120.573 51.0122 120.577 50.1571 120.577C49.5281 120.577 48.9255 121.131 48.9544 121.781C48.9838 122.433 49.483 122.985 50.1571 122.985V122.987Z" fill="#512516"/>
<path d="M92.9693 74.1939C93.1214 74.1253 92.6271 74.3311 92.7564 74.2836C92.8226 74.2595 92.8875 74.2312 92.953 74.2065C93.1683 74.1259 93.3878 74.0548 93.6091 73.991C93.9302 73.8989 94.2562 73.8243 94.5857 73.7689C94.6879 73.7521 94.9766 73.7352 94.5869 73.7647C94.6759 73.7581 94.7649 73.7436 94.8533 73.7352C95.0614 73.7159 95.2706 73.7051 95.4793 73.7039C95.6717 73.7033 95.8648 73.7105 96.0566 73.7274C96.1053 73.7316 96.154 73.7376 96.2027 73.7424C96.412 73.7623 96.1185 73.7388 96.1029 73.7292C96.1895 73.7816 96.3699 73.7767 96.4703 73.7996C96.6682 73.8454 96.8636 73.9025 97.0536 73.973C97.0428 73.9688 97.1968 74.0308 97.198 74.029C97.1739 74.0597 96.9424 73.9056 97.1601 74.0193C97.2659 74.0747 97.3723 74.1277 97.4752 74.1885C97.5684 74.2438 97.6568 74.307 97.7482 74.3648C97.9779 74.5105 97.6045 74.2372 97.7374 74.3528C97.7801 74.3901 97.8246 74.425 97.8673 74.4624C97.9478 74.5328 98.0272 74.6062 98.1012 74.6839C98.1445 74.729 98.2936 74.9168 98.1361 74.711C97.9785 74.5057 98.1764 74.7814 98.216 74.8518C98.2443 74.9024 98.2684 74.9553 98.296 75.0071C98.4133 75.2262 98.198 74.7266 98.2611 74.9234C98.3405 75.172 98.4079 75.414 98.4566 75.6717C98.5065 75.9371 98.4325 75.4345 98.4482 75.5916C98.4548 75.6584 98.4632 75.7246 98.4692 75.7908C98.483 75.948 98.4915 76.1063 98.4951 76.264C98.5029 76.5902 98.4915 76.9165 98.468 77.2415C98.456 77.4065 98.4403 77.5714 98.4223 77.7357C98.4115 77.8314 98.3995 77.9271 98.388 78.0223C98.37 78.1751 98.4283 77.7436 98.4049 77.8964C98.3965 77.9512 98.3892 78.006 98.3808 78.0602C98.1222 79.7709 97.6393 81.4473 97.0705 83.0786C96.9171 83.5186 96.756 83.9556 96.5876 84.3902C96.5076 84.5967 96.4264 84.802 96.3434 85.0072C96.2965 85.1228 96.2496 85.2384 96.2015 85.3533C96.1805 85.4045 96.1588 85.4557 96.1378 85.5068C96.0795 85.6465 96.2346 85.2799 96.1456 85.4876C95.7716 86.3574 95.3747 87.2176 94.9459 88.0621C94.5394 88.8627 94.107 89.6506 93.6404 90.4181C93.2255 91.1007 92.76 91.7394 92.3084 92.3955C92.5291 92.0752 92.3216 92.3756 92.2669 92.4424C92.2092 92.5129 92.1508 92.5833 92.0919 92.6525C91.956 92.812 91.8165 92.9679 91.674 93.1208C91.395 93.4206 91.1033 93.7089 90.8038 93.9876C90.4833 94.2862 90.1526 94.5739 89.8152 94.8526C89.6577 94.9826 89.4983 95.1108 89.3377 95.2373C89.3371 95.2373 89.2307 95.3336 89.2163 95.3324C89.2674 95.336 89.4105 95.1837 89.2758 95.286C89.1724 95.3643 89.0695 95.4425 88.9655 95.5202C87.5481 96.576 86.0454 97.5156 84.5071 98.3842C83.2118 99.1162 81.8876 99.7976 80.5436 100.435C80.0728 100.658 79.5995 100.876 79.1232 101.087C78.9663 101.156 78.8093 101.225 78.6518 101.293C78.5971 101.316 78.5423 101.34 78.4876 101.363C78.3 101.444 78.8472 101.213 78.6253 101.305C78.5917 101.319 78.558 101.333 78.5237 101.347C77.9434 101.584 77.4671 102.158 77.6836 102.828C77.8646 103.388 78.5393 103.923 79.1629 103.669C81.1113 102.873 83.0116 101.943 84.8601 100.939C86.4495 100.077 88.0046 99.1451 89.4827 98.1031C90.9884 97.0419 92.4623 95.8771 93.6795 94.4854C94.8533 93.1431 95.7944 91.5919 96.6339 90.0238C97.5936 88.23 98.4205 86.3592 99.1265 84.4516C99.7615 82.7367 100.304 80.9724 100.623 79.169C100.884 77.696 101.079 76.1002 100.691 74.6291C100.234 72.8931 98.6045 71.7488 96.8901 71.4334C95.3518 71.1505 93.7186 71.3455 92.2603 71.9059C92.0901 71.9715 91.9217 72.0413 91.7558 72.116C91.1797 72.3748 90.9987 73.2573 91.3246 73.7629C91.7089 74.3588 92.3541 74.4714 92.9699 74.1951L92.9693 74.1939Z" fill="#512516"/>
<path d="M90.557 77.2015C90.6406 77.2539 90.7223 77.3069 90.8017 77.3659C90.6117 77.2256 90.7723 77.3466 90.8204 77.393C90.8474 77.4188 90.8715 77.4477 90.8985 77.473C91.0056 77.5735 90.8877 77.6024 90.8053 77.3472C90.8258 77.4092 90.8919 77.4905 90.9274 77.5477C91.0591 77.7589 90.8113 77.2142 90.919 77.5266C90.9478 77.6103 90.9713 77.6957 90.9911 77.7818C91.0224 77.9173 91.0122 78.2273 91.0044 77.789C91.008 77.9985 91.038 78.2062 91.035 78.4169C91.032 78.6516 91.0146 78.8864 90.9881 79.1193C90.9779 79.2108 90.9268 79.4323 90.999 79.0483C90.9869 79.1115 90.9803 79.1759 90.9701 79.2391C90.949 79.3703 90.925 79.501 90.8991 79.6316C90.7861 80.2004 90.6333 80.762 90.4577 81.3146C90.2647 81.922 90.0434 82.5203 89.8005 83.1102C89.7734 83.1758 89.694 83.4377 89.7945 83.1265C89.7698 83.2035 89.7283 83.28 89.6958 83.3546C89.6291 83.5069 89.5611 83.6586 89.492 83.8097C89.3525 84.1137 89.2081 84.4146 89.0578 84.7138C88.4805 85.8635 87.8305 86.9819 87.0818 88.0287C86.982 88.1684 86.8791 88.3062 86.7763 88.4434C86.6554 88.6042 86.8184 88.3845 86.8328 88.37C86.7679 88.4344 86.715 88.5193 86.6572 88.5903C86.3944 88.9136 86.1136 89.22 85.8123 89.5077C85.6632 89.6497 85.5105 89.7876 85.3547 89.9218C85.2747 89.9911 85.1935 90.0585 85.1118 90.1259C85.0787 90.153 84.7365 90.4244 84.9326 90.2728C84.5188 90.5924 84.0877 90.8892 83.6505 91.1757C83.1249 91.52 82.8549 92.2574 83.2187 92.8226C83.5573 93.3481 84.3011 93.6232 84.864 93.2548C85.6969 92.7094 86.5087 92.1183 87.2508 91.4532C87.8539 90.912 88.3638 90.3023 88.8533 89.6588C89.6688 88.5867 90.3663 87.4232 90.9839 86.2271C91.6562 84.9251 92.2462 83.5683 92.7062 82.176C93.0959 80.9962 93.4049 79.7496 93.4392 78.5017C93.4543 77.9552 93.4128 77.3635 93.2245 76.847C92.9437 76.0759 92.4681 75.56 91.7723 75.123C91.2383 74.7877 90.4235 74.9924 90.127 75.5546C89.8143 76.1469 89.9887 76.844 90.5582 77.2015H90.557Z" fill="#512516"/>
<path d="M34.5673 79.6906C34.889 78.9418 35.3256 78.2935 35.9546 77.7734C36.3888 77.4146 36.9432 77.145 37.4736 76.9843C37.7214 76.909 37.9733 76.8512 38.2289 76.8097C38.2638 76.8043 38.4683 76.7778 38.2885 76.7995C38.3432 76.7928 38.3979 76.7862 38.4532 76.7808C38.5518 76.7712 38.6499 76.7639 38.7491 76.7591C38.9433 76.7495 39.1418 76.7453 39.3354 76.7645C39.6589 76.7971 39.9367 76.4648 39.9367 76.1626C39.9367 75.8099 39.6601 75.5932 39.3354 75.5607C38.8273 75.5095 38.2933 75.5775 37.7947 75.669C36.7207 75.8665 35.7015 76.3594 34.8987 77.1028C34.3051 77.6524 33.8475 78.3428 33.5294 79.0838C33.4013 79.3824 33.441 79.7291 33.7453 79.9073C33.999 80.056 34.4392 79.9916 34.5679 79.6912L34.5673 79.6906Z" fill="#512516"/>
<path d="M29.2953 76.3751C30.0223 76.286 30.673 76.3233 31.3477 76.5954C31.5107 76.661 31.854 76.8578 32.0699 77.0089C32.1018 77.0318 32.1331 77.0547 32.1637 77.0781C32.118 77.0432 32.1222 77.0474 32.177 77.0908C32.2203 77.1269 32.263 77.163 32.3051 77.2009C32.4067 77.2912 32.5035 77.3857 32.5967 77.4844C32.6845 77.5771 32.7669 77.674 32.8487 77.7728C32.9527 77.8986 32.7783 77.6753 32.8727 77.8035C32.9094 77.8528 32.9455 77.9022 32.9804 77.9527C33.0904 78.1111 33.192 78.2748 33.2847 78.4439C33.349 78.5619 33.4025 78.6841 33.4627 78.8033C33.5192 78.9153 33.3977 78.642 33.4506 78.775C33.456 78.7888 33.4614 78.8021 33.4663 78.8159C33.5763 79.1217 33.8758 79.327 34.2059 79.2361C34.5012 79.1548 34.7363 78.8027 34.6257 78.4957C34.3713 77.7896 33.9281 77.1311 33.4103 76.5942C32.3351 75.4794 30.8251 74.9816 29.2947 75.17C28.9724 75.2097 28.6934 75.418 28.6934 75.7719C28.6934 76.0663 28.97 76.4136 29.2947 76.3738L29.2953 76.3751Z" fill="#512516"/>
<path d="M20.1896 47.6157C16.9351 47.1221 14.1533 47.6681 13.7636 50.2402C13.3739 52.8123 15.6969 55.2977 18.9514 55.7919C22.2059 56.2855 25.1604 54.6013 25.55 52.0292C25.9397 49.457 23.4447 48.1099 20.1896 47.6163V47.6157ZM24.2168 50.7729C24.2168 50.9119 24.1814 51.042 24.1116 51.1624L23.9913 51.3183C23.8951 51.414 23.7821 51.4802 23.6516 51.5169C23.583 51.5259 23.5151 51.5356 23.4465 51.5446C23.3407 51.5488 23.2415 51.5265 23.1495 51.4784C23.0538 51.4471 22.9715 51.3941 22.9017 51.3189C22.8265 51.249 22.7736 51.166 22.7423 51.0709C22.6942 50.9788 22.672 50.88 22.6762 50.7735V50.7332C22.6762 50.5941 22.7117 50.4641 22.7814 50.3437C22.8217 50.2919 22.862 50.2396 22.9017 50.1878C22.9979 50.0921 23.111 50.0259 23.2415 49.9892C23.31 49.9801 23.378 49.9705 23.4465 49.9615C23.5524 49.9573 23.6516 49.9795 23.7436 50.0277C23.8392 50.059 23.9216 50.112 23.9913 50.1872C24.0665 50.257 24.1194 50.3401 24.1507 50.4352C24.1988 50.5273 24.2211 50.626 24.2168 50.7326V50.7729Z" fill="#512516"/>
<path d="M47.7037 52.5676C47.6508 49.9666 44.9633 49.0637 41.6722 49.1305C38.381 49.1973 35.732 50.2086 35.785 52.8096C35.8379 55.4106 38.5482 57.465 41.8399 57.3982C45.1311 57.3314 47.7566 55.1686 47.7037 52.5676ZM38.9048 52.2462L38.7845 52.4021C38.7147 52.4773 38.6317 52.5303 38.5367 52.5616C38.4447 52.6097 38.3461 52.632 38.2397 52.6278C38.1338 52.632 38.0346 52.6097 37.9426 52.5616C37.847 52.5303 37.7646 52.4773 37.6948 52.4021L37.6545 52.3617C37.5589 52.2654 37.4928 52.1523 37.4561 52.0216C37.4471 51.953 37.4375 51.885 37.4284 51.8164C37.4284 51.6773 37.4639 51.5473 37.5337 51.4269C37.574 51.3752 37.6143 51.3228 37.6539 51.271C37.7237 51.1958 37.8067 51.1428 37.9017 51.1115C37.9937 51.0633 38.0923 51.0411 38.1988 51.0453C38.3046 51.0411 38.4038 51.0633 38.4958 51.1115C38.5914 51.1428 38.6738 51.1958 38.7436 51.271C38.7568 51.2843 38.77 51.2975 38.7839 51.3113C38.8795 51.4077 38.9456 51.5208 38.9823 51.6514C38.9913 51.7201 39.001 51.7881 39.01 51.8567C39.01 51.9958 38.9745 52.1258 38.9048 52.2462Z" fill="#512516"/>
<path d="M25.4297 62.0298C26.5933 62.2953 27.9602 62.3988 28.9482 61.6012C29.288 61.3268 29.6139 60.8915 29.6861 60.4467C29.7384 60.1265 29.6031 59.799 29.2663 59.7063C28.9795 59.6275 28.579 59.8038 28.5267 60.1265C28.5231 60.1506 28.5177 60.1752 28.5098 60.1981C28.5008 60.2246 28.4918 60.2523 28.4846 60.2794C28.4473 60.4106 28.5128 60.2336 28.4948 60.2601C28.4437 60.3353 28.3848 60.4365 28.3457 60.5183C28.3042 60.6044 28.4208 60.4395 28.3715 60.4852C28.3469 60.5081 28.3282 60.5382 28.3048 60.5617C28.2573 60.6098 28.208 60.6544 28.1592 60.7007C28.0811 60.7742 28.2338 60.6514 28.1713 60.6917C28.1418 60.711 28.1141 60.7314 28.0847 60.7501C28.0083 60.7988 27.9277 60.8404 27.8459 60.8783C27.9656 60.8229 27.7479 60.9108 27.704 60.9241C27.594 60.9572 27.4809 60.9824 27.3673 61.0005C27.4521 60.9867 27.336 61.0047 27.3053 61.0071C27.2488 61.0119 27.1923 61.0161 27.1358 61.0192C26.9986 61.0258 26.8615 61.024 26.725 61.0174C26.3943 61.0011 26.0732 60.9421 25.7509 60.8687C24.9974 60.6965 24.6756 61.8571 25.4309 62.0298H25.4297Z" fill="#512516"/>
<path d="M32.358 61.4604C31.7668 61.4869 31.2058 61.4712 30.6471 61.2846C30.5996 61.269 30.5527 61.2521 30.5064 61.2341C30.6116 61.2756 30.4667 61.216 30.4457 61.2052C30.3555 61.1588 30.2689 61.1095 30.1829 61.0547C30.1678 61.045 30.0608 60.9668 30.1318 61.021C30.2009 61.0739 30.1035 60.9969 30.0909 60.9849C30.0319 60.9289 29.9778 60.8693 29.9207 60.8127C29.8443 60.7375 29.973 60.8904 29.9339 60.8326C29.9141 60.8037 29.893 60.7754 29.8738 60.7459C29.8413 60.6953 29.8161 60.6411 29.7848 60.59C29.7072 60.4606 29.8185 60.7194 29.7716 60.5611C29.7583 60.5171 29.7421 60.4738 29.7307 60.4293C29.7198 60.3889 29.7156 60.3462 29.7036 60.3065C29.6723 60.2011 29.7012 60.4612 29.712 60.3715C29.715 60.3456 29.7072 60.3155 29.7078 60.2884C29.7222 59.5137 28.5195 59.5131 28.5051 60.2884C28.4961 60.7916 28.7493 61.2931 29.0698 61.6632C29.8606 62.5752 31.2334 62.7142 32.358 62.6643C33.1289 62.63 33.1331 61.4261 32.358 61.4604Z" fill="#512516"/>
<path d="M23.2595 53.5301C23.0202 54.8688 21.1307 55.6501 19.038 55.2757C16.9459 54.9013 15.4432 53.5126 15.6825 52.1739C15.9219 50.8352 17.5629 51.4473 19.655 51.8218C21.7471 52.1962 23.4988 52.1913 23.2595 53.5301Z" fill="#7A3829"/>
<path d="M38.0183 54.2731C38.0141 55.6329 39.7334 56.7405 41.8591 56.7471C43.9849 56.7537 45.7114 55.657 45.7156 54.2972C45.7198 52.9374 43.9957 53.245 41.8706 53.2384C39.7448 53.2318 38.0231 52.9127 38.0189 54.2725L38.0183 54.2731Z" fill="#7A3829"/>
</g>
<defs>
<clipPath id="clip0_658_12707">
<rect width="101" height="127" fill="white" transform="translate(0 0.5)"/>
</clipPath>
</defs>
</svg>
